<?xml version="1.0" encoding="UTF-8" standalone="no"?>
<!-- Generator: Adobe Illustrator 25.2.3, SVG Export Plug-In . SVG Version: 6.00 Build 0)  -->

<svg
   xmlns:dc="http://purl.org/dc/elements/1.1/"
   xmlns:cc="http://creativecommons.org/ns#"
   xmlns:rdf="http://www.w3.org/1999/02/22-rdf-syntax-ns#"
   xmlns:svg="http://www.w3.org/2000/svg"
   xmlns="http://www.w3.org/2000/svg"
   xmlns:sodipodi="http://sodipodi.sourceforge.net/DTD/sodipodi-0.dtd"
   xmlns:inkscape="http://www.inkscape.org/namespaces/inkscape"
   version="1.1"
   id="Lager_1"
   x="0px"
   y="0px"
   viewBox="0 0 724 769"
   xml:space="preserve"
   sodipodi:docname="fast-forward-merge-2.svg"
   width="724"
   height="769"
   inkscape:version="0.92.5 (2060ec1f9f, 2020-04-08)"><metadata
   id="metadata220"><rdf:RDF><cc:Work
       rdf:about=""><dc:format>image/svg+xml</dc:format><dc:type
         rdf:resource="http://purl.org/dc/dcmitype/StillImage" /><dc:title></dc:title></cc:Work></rdf:RDF></metadata><defs
   id="defs218" /><sodipodi:namedview
   pagecolor="#ffffff"
   bordercolor="#666666"
   borderopacity="1"
   objecttolerance="10"
   gridtolerance="10"
   guidetolerance="10"
   inkscape:pageopacity="0"
   inkscape:pageshadow="2"
   inkscape:window-width="1920"
   inkscape:window-height="966"
   id="namedview216"
   showgrid="false"
   inkscape:zoom="0.85667034"
   inkscape:cx="77.353027"
   inkscape:cy="355.11476"
   inkscape:window-x="0"
   inkscape:window-y="27"
   inkscape:window-maximized="1"
   inkscape:current-layer="Lager_1" />
<style
   type="text/css"
   id="style143">
	.st0{fill:none;stroke:#404040;stroke-width:4;stroke-linecap:round;stroke-linejoin:round;stroke-miterlimit:10;}
	.st1{fill:#59AFE1;stroke:#404040;stroke-width:4;stroke-linejoin:round;stroke-miterlimit:10;}
	.st2{fill:#FFFFFF;stroke:#404040;stroke-width:4;stroke-linecap:round;stroke-linejoin:round;stroke-miterlimit:10;}
	.st3{fill:#B18BE8;stroke:#404040;stroke-width:4;stroke-linecap:round;stroke-linejoin:round;stroke-miterlimit:10;}
	.st4{fill:#404040;}
	.st5{fill:none;stroke:#CCCCCC;stroke-linecap:round;stroke-linejoin:round;stroke-miterlimit:10;}
	.st6{fill:#999999;}
	.st7{fill:#B3E3FF;stroke:#404040;stroke-width:4;stroke-linecap:round;stroke-linejoin:round;stroke-miterlimit:10;}
	.st8{fill:#414141;}
</style>
<path
   class="st0"
   d="m 283.09999,187.69656 v -23.5 m 10.8,14.8 -10.8,10.9 -10.9,-10.9 m 305.2,-28.4 h -83 41.2 m -154.9,41 c 0,22.6 -18.4,41 -41,41 H 137.49998 m 243.20001,-41 c 0,-22.6 18.4,-41 41,-41 h 30.7"
   id="path145"
   inkscape:connector-curvature="0"
   style="fill:none;stroke:#404040;stroke-width:4;stroke-linecap:round;stroke-linejoin:round;stroke-miterlimit:10" />
<circle
   class="st1"
   cx="283.10001"
   cy="232.59656"
   r="21"
   id="circle147"
   style="fill:#59afe1;stroke:#404040;stroke-width:4;stroke-linejoin:round;stroke-miterlimit:10" />
<circle
   transform="rotate(-80.781636)"
   class="st2"
   cx="-72.81012"
   cy="491.42426"
   id="ellipse149"
   r="21.00032"
   style="fill:#ffffff;stroke:#404040;stroke-width:4.00006104;stroke-linecap:round;stroke-linejoin:round;stroke-miterlimit:10" />
<circle
   class="st2"
   cx="556.59998"
   cy="150.59656"
   r="21"
   id="circle151"
   style="fill:#ffffff;stroke:#404040;stroke-width:4;stroke-linecap:round;stroke-linejoin:round;stroke-miterlimit:10" />
<circle
   transform="rotate(-80.781636)"
   class="st2"
   cx="-197.58505"
   cy="234.48846"
   id="ellipse153"
   r="21.00032"
   style="fill:#ffffff;stroke:#404040;stroke-width:4.00006104;stroke-linecap:round;stroke-linejoin:round;stroke-miterlimit:10" />
<circle
   class="st2"
   cx="116.6"
   cy="232.59656"
   r="21"
   id="circle155"
   style="fill:#ffffff;stroke:#404040;stroke-width:4;stroke-linecap:round;stroke-linejoin:round;stroke-miterlimit:10" />
<path
   class="st3"
   d="m 485.79999,14.696557 h 141.6 v 50 h -141.6 z"
   id="path157"
   inkscape:connector-curvature="0"
   style="fill:#b18be8;stroke:#404040;stroke-width:4;stroke-linecap:round;stroke-linejoin:round;stroke-miterlimit:10" />
<path
   class="st4"
   d="m 513.59999,37.996557 c -0.1,-0.8 -0.8,-1.8 -2.2,-1.8 -1.2,0 -2.1,0.8 -2.1,1.8 0,0.8 0.5,1.3 1.4,1.5 l 1.6,0.3 c 1.8,0.4 2.8,1.5 2.8,3 0,1.6 -1.4,3.1 -3.7,3.1 -2.6,0 -3.8,-1.6 -4,-3.2 l 1.4,-0.4 c 0.1,1.2 0.9,2.3 2.5,2.3 1.5,0 2.2,-0.8 2.2,-1.7 0,-0.8 -0.5,-1.4 -1.6,-1.7 l -1.5,-0.3 c -1.5,-0.3 -2.6,-1.3 -2.6,-2.9 0,-1.7 1.5,-3.2 3.5,-3.2 2.4,0 3.4,1.5 3.6,2.6 z m 10.7,4.1 c 0,2.2 -1.5,3.8 -3.7,3.8 -2.2,0 -3.7,-1.6 -3.7,-3.8 0,-2.2 1.5,-3.8 3.7,-3.8 2.2,0 3.7,1.6 3.7,3.8 z m -1.4,0 c 0,-1.7 -1.1,-2.6 -2.2,-2.6 -1.1,0 -2.2,0.9 -2.2,2.6 0,1.7 1.1,2.6 2.2,2.6 1.1,0 2.2,-0.9 2.2,-2.6 z m 3.9,3.6 v -7.2 h 1.3 v 1 c 0.5,-0.8 1.4,-1.2 2.2,-1.2 0.9,0 1.8,0.4 2.2,1.4 0.6,-1 1.5,-1.4 2.4,-1.4 1.3,0 2.5,0.9 2.5,2.7 v 4.7 h -1.4 v -4.5 c 0,-0.9 -0.5,-1.6 -1.5,-1.6 -1,0 -1.7,0.8 -1.7,1.8 v 4.4 h -1.3 v -4.6 c 0,-0.9 -0.4,-1.6 -1.5,-1.6 -1,0 -1.7,0.8 -1.7,1.8 v 4.3 z m 19.9,-2 c -0.4,1.3 -1.6,2.3 -3.2,2.3 -1.9,0 -3.6,-1.4 -3.6,-3.9 0,-2.3 1.6,-3.8 3.4,-3.8 2.2,0 3.5,1.5 3.5,3.8 v 0.5 h -5.4 c 0,1.3 1,2.2 2.2,2.2 1.2,0 1.8,-0.6 2,-1.5 z m -1.4,-2.3 c 0,-1 -0.7,-1.8 -2,-1.8 -1.2,0 -1.9,0.9 -2,1.8 z m 8.7,4.3 v -10.6 h 6.5 v 1.4 h -5 v 3.4 h 4.5 v 1.4 h -4.5 v 4.5 h -1.5 z m 14.6,-2 c -0.4,1.3 -1.6,2.3 -3.2,2.3 -1.9,0 -3.6,-1.4 -3.6,-3.9 0,-2.3 1.6,-3.8 3.4,-3.8 2.2,0 3.5,1.5 3.5,3.8 v 0.5 h -5.4 c 0,1.3 1,2.2 2.2,2.2 1.2,0 1.8,-0.6 2,-1.5 z m -1.4,-2.3 c 0,-1 -0.7,-1.8 -2,-1.8 -1.2,0 -1.9,0.9 -2,1.8 z m 5.7,0.2 1.9,-0.3 c 0.4,-0.1 0.6,-0.3 0.6,-0.5 0,-0.7 -0.5,-1.3 -1.6,-1.3 -1,0 -1.5,0.6 -1.6,1.5 l -1.4,-0.3 c 0.2,-1.4 1.4,-2.3 3,-2.3 2.2,0 3,1.2 3,2.6 v 3.6 c 0,0.6 0.1,1 0.1,1.2 h -1.4 c 0,-0.2 -0.1,-0.5 -0.1,-1 -0.3,0.5 -1,1.2 -2.3,1.2 -1.5,0 -2.4,-1 -2.4,-2.2 0.1,-1.3 1,-2 2.2,-2.2 z m 2.5,1.1 v -0.3 l -2.2,0.3 c -0.6,0.1 -1.1,0.4 -1.1,1.1 0,0.5 0.4,1 1.2,1 1.2,0 2.1,-0.6 2.1,-2.1 z m 6.3,-4.2 h 1.6 v 1.3 h -1.6 v 3.8 c 0,0.7 0.3,1 1,1 0.2,0 0.4,0 0.6,-0.1 v 1.2 c -0.1,0 -0.5,0.1 -1,0.1 -1.2,0 -2,-0.8 -2,-2.1 v -4 h -1.4 v -1.3 h 0.4 c 0.8,0 1.1,-0.5 1.1,-1.1 v -1.1 h 1.3 z m 6.8,7.5 c -1.7,0 -2.7,-1.3 -2.7,-2.9 v -4.5 h 1.4 v 4.3 c 0,1 0.4,1.9 1.6,1.9 1.1,0 1.7,-0.8 1.7,-1.8 v -4.3 h 1.4 v 5.9 c 0,0.6 0,1.1 0.1,1.3 h -1.4 c 0,-0.2 -0.1,-0.6 -0.1,-0.9 -0.3,0.6 -1.2,1 -2,1 z m 10.6,-6 h -0.6 c -1.2,0 -2,0.6 -2,2.2 v 3.6 h -1.4 v -7.2 h 1.4 v 1.3 c 0.5,-1.1 1.4,-1.4 2.2,-1.4 h 0.5 v 1.5 z m 8.5,3.7 c -0.4,1.3 -1.6,2.3 -3.2,2.3 -1.9,0 -3.6,-1.4 -3.6,-3.9 0,-2.3 1.6,-3.8 3.4,-3.8 2.2,0 3.5,1.5 3.5,3.8 v 0.5 h -5.4 c 0,1.3 1,2.2 2.2,2.2 1.2,0 1.8,-0.6 2,-1.5 z m -1.4,-2.3 c 0,-1 -0.7,-1.8 -2,-1.8 -1.2,0 -1.9,0.9 -2,1.8 z"
   id="path159"
   inkscape:connector-curvature="0"
   style="fill:#404040" />
<path
   class="st0"
   d="M 556.59999,107.89656 V 84.396557 m 10.9,14.8 -10.9,10.900003 -10.9,-10.900003"
   id="path161"
   inkscape:connector-curvature="0"
   style="fill:none;stroke:#404040;stroke-width:4;stroke-linecap:round;stroke-linejoin:round;stroke-miterlimit:10" />
<path
   class="st5"
   d="M 91.307121,385.1 H 632.70712"
   id="path163"
   inkscape:connector-curvature="0"
   style="fill:none;stroke:#cccccc;stroke-linecap:round;stroke-linejoin:round;stroke-miterlimit:10" />

<path
   class="st0"
   d="m 557.6,583.9 v 23.5 m -10.9,-14.8 10.9,-10.8 10.8,10.8 m 9,-51 h -83 41.2 m -154.9,41 c 0,22.6 -18.4,41 -41,41 H 137.6 m 243.1,-41 c 0,-22.6 18.4,-41 41,-41 h 30.7"
   id="path167"
   inkscape:connector-curvature="0"
   style="fill:none;stroke:#404040;stroke-width:4;stroke-linecap:round;stroke-linejoin:round;stroke-miterlimit:10" />
<circle
   class="st2"
   cx="283.10001"
   cy="623.59998"
   r="21"
   id="circle169"
   style="fill:#ffffff;stroke:#404040;stroke-width:4;stroke-linecap:round;stroke-linejoin:round;stroke-miterlimit:10" />
<circle
   class="st2"
   cx="199.89999"
   cy="623.59998"
   r="21"
   id="circle171"
   style="fill:#ffffff;stroke:#404040;stroke-width:4;stroke-linecap:round;stroke-linejoin:round;stroke-miterlimit:10" />
<circle
   class="st1"
   cx="556.59998"
   cy="541.59998"
   r="21"
   id="circle173"
   style="fill:#59afe1;stroke:#404040;stroke-width:4;stroke-linejoin:round;stroke-miterlimit:10" />
<circle
   transform="rotate(-80.781636)"
   class="st2"
   cx="-458.77145"
   cy="554.07343"
   id="ellipse175"
   r="21.00032"
   style="fill:#ffffff;stroke:#404040;stroke-width:4.00006104;stroke-linecap:round;stroke-linejoin:round;stroke-miterlimit:10" />
<circle
   class="st2"
   cx="116.60001"
   cy="623.59998"
   r="21"
   id="circle177"
   style="fill:#ffffff;stroke:#404040;stroke-width:4;stroke-linecap:round;stroke-linejoin:round;stroke-miterlimit:10" />
<path
   class="st0"
   d="m 556.6,498.9 v -23.5 m 10.9,14.8 -10.9,10.9 -10.8,-10.9"
   id="path179"
   inkscape:connector-curvature="0"
   style="fill:none;stroke:#404040;stroke-width:4;stroke-linecap:round;stroke-linejoin:round;stroke-miterlimit:10" />

<path
   class="st3"
   d="m 486.8,403.4 h 141.6 v 50 H 486.8 Z"
   id="path183"
   inkscape:connector-curvature="0"
   style="fill:#b18be8;stroke:#404040;stroke-width:4;stroke-linecap:round;stroke-linejoin:round;stroke-miterlimit:10" />
<path
   class="st4"
   d="m 514.6,426.7 c -0.1,-0.8 -0.8,-1.8 -2.2,-1.8 -1.2,0 -2.1,0.8 -2.1,1.8 0,0.8 0.5,1.4 1.4,1.5 l 1.6,0.3 c 1.8,0.4 2.8,1.5 2.8,3 0,1.6 -1.4,3.1 -3.7,3.1 -2.6,0 -3.8,-1.6 -4,-3.2 l 1.4,-0.4 c 0.1,1.2 0.9,2.3 2.5,2.3 1.5,0 2.2,-0.8 2.2,-1.7 0,-0.8 -0.5,-1.4 -1.6,-1.6 l -1.5,-0.3 c -1.5,-0.3 -2.6,-1.3 -2.6,-2.9 0,-1.7 1.5,-3.2 3.5,-3.2 2.4,0 3.4,1.5 3.6,2.6 z m 10.7,4.1 c 0,2.2 -1.5,3.8 -3.7,3.8 -2.2,0 -3.7,-1.6 -3.7,-3.8 0,-2.2 1.5,-3.8 3.7,-3.8 2.2,0 3.7,1.6 3.7,3.8 z m -1.5,0 c 0,-1.7 -1.1,-2.6 -2.2,-2.6 -1.1,0 -2.2,0.9 -2.2,2.6 0,1.7 1.1,2.6 2.2,2.6 1.1,0 2.2,-0.9 2.2,-2.6 z m 4,3.6 v -7.2 h 1.3 v 1 c 0.5,-0.8 1.4,-1.2 2.2,-1.2 0.9,0 1.8,0.4 2.2,1.4 0.6,-1 1.5,-1.4 2.4,-1.4 1.3,0 2.5,0.9 2.5,2.7 v 4.7 H 537 v -4.5 c 0,-0.9 -0.5,-1.6 -1.5,-1.6 -1,0 -1.7,0.8 -1.7,1.8 v 4.4 h -1.4 V 430 c 0,-0.9 -0.4,-1.6 -1.5,-1.6 -1,0 -1.7,0.8 -1.7,1.8 v 4.3 h -1.4 z m 19.9,-2 c -0.4,1.3 -1.6,2.3 -3.2,2.3 -1.9,0 -3.6,-1.4 -3.6,-3.9 0,-2.3 1.6,-3.8 3.4,-3.8 2.2,0 3.5,1.5 3.5,3.8 v 0.4 h -5.4 c 0,1.3 1,2.2 2.2,2.2 1.2,0 1.8,-0.6 2,-1.5 z m -1.4,-2.3 c 0,-1 -0.7,-1.8 -2,-1.8 -1.2,0 -1.9,0.9 -2,1.8 z m 8.6,4.3 v -10.6 h 6.5 v 1.4 h -5 v 3.4 h 4.5 v 1.4 h -4.5 v 4.5 h -1.5 z m 14.7,-2 c -0.4,1.3 -1.6,2.3 -3.2,2.3 -1.9,0 -3.6,-1.4 -3.6,-3.9 0,-2.3 1.6,-3.8 3.4,-3.8 2.2,0 3.5,1.5 3.5,3.8 v 0.4 h -5.4 c 0,1.3 1,2.2 2.2,2.2 1.2,0 1.8,-0.6 2,-1.5 z m -1.5,-2.3 c 0,-1 -0.7,-1.8 -2,-1.8 -1.2,0 -1.9,0.9 -2,1.8 z m 5.8,0.2 1.9,-0.3 c 0.4,-0.1 0.6,-0.3 0.6,-0.5 0,-0.7 -0.5,-1.3 -1.6,-1.3 -1,0 -1.5,0.6 -1.6,1.5 l -1.4,-0.3 c 0.2,-1.4 1.4,-2.3 3,-2.3 2.2,0 3,1.2 3,2.6 v 3.6 c 0,0.6 0.1,1 0.1,1.2 h -1.4 c 0,-0.2 -0.1,-0.5 -0.1,-1 -0.3,0.5 -1,1.2 -2.3,1.2 -1.5,0 -2.4,-1 -2.4,-2.2 0,-1.3 1,-2 2.2,-2.2 z m 2.5,1 V 431 l -2.2,0.3 c -0.6,0.1 -1.1,0.4 -1.1,1.1 0,0.5 0.4,1 1.2,1 1.2,0.1 2.1,-0.5 2.1,-2.1 z m 6.2,-4.1 h 1.6 v 1.3 h -1.6 v 3.8 c 0,0.7 0.3,1 1,1 0.2,0 0.4,0 0.6,-0.1 v 1.2 c -0.1,0 -0.5,0.1 -1,0.1 -1.2,0 -2,-0.8 -2,-2.1 v -4 h -1.4 v -1.3 h 0.4 c 0.8,0 1.1,-0.5 1.1,-1.1 v -1.2 h 1.3 z m 6.9,7.5 c -1.7,0 -2.7,-1.3 -2.7,-2.9 v -4.5 h 1.4 v 4.3 c 0,1 0.4,1.9 1.6,1.9 1.1,0 1.7,-0.8 1.7,-1.8 v -4.4 h 1.4 v 5.9 c 0,0.6 0,1.1 0.1,1.3 h -1.4 c 0,-0.2 -0.1,-0.6 -0.1,-0.9 -0.3,0.7 -1.2,1.1 -2,1.1 z m 10.6,-6.1 h -0.6 c -1.2,0 -2,0.6 -2,2.2 v 3.6 h -1.4 v -7.2 h 1.4 v 1.3 c 0.5,-1.1 1.4,-1.4 2.2,-1.4 h 0.5 v 1.5 z m 8.4,3.8 c -0.4,1.3 -1.6,2.3 -3.2,2.3 -1.9,0 -3.6,-1.4 -3.6,-3.9 0,-2.3 1.6,-3.8 3.4,-3.8 2.2,0 3.5,1.5 3.5,3.8 v 0.4 h -5.4 c 0,1.3 1,2.2 2.2,2.2 1.2,0 1.8,-0.6 2,-1.5 z m -1.4,-2.3 c 0,-1 -0.7,-1.8 -2,-1.8 -1.2,0 -1.9,0.9 -2,1.8 z"
   id="path185"
   inkscape:connector-curvature="0"
   style="fill:#404040" />
<g
   id="g199"
   transform="translate(-38.500012,-84.803443)">
	<path
   class="st7"
   d="m 273.5,176.9 h 96.2 v 50 h -96.2 z"
   id="path187"
   inkscape:connector-curvature="0"
   style="fill:#b3e3ff;stroke:#404040;stroke-width:4;stroke-linecap:round;stroke-linejoin:round;stroke-miterlimit:10" />
	<g
   id="g197">
		<path
   class="st8"
   d="m 306.4,208 v -10 h 2 l 2.4,7.1 c 0.2,0.7 0.4,1.2 0.5,1.5 0.1,-0.4 0.3,-0.9 0.5,-1.6 l 2.4,-7 h 1.8 v 10 h -1.3 v -8.4 l -2.9,8.4 h -1.2 l -2.9,-8.5 v 8.5 z"
   id="path189"
   inkscape:connector-curvature="0"
   style="fill:#414141" />
		<path
   class="st8"
   d="m 323.4,207.1 c -0.5,0.4 -0.9,0.7 -1.3,0.8 -0.4,0.2 -0.9,0.2 -1.4,0.2 -0.8,0 -1.4,-0.2 -1.8,-0.6 -0.4,-0.4 -0.6,-0.9 -0.6,-1.5 0,-0.4 0.1,-0.7 0.2,-1 0.2,-0.3 0.4,-0.5 0.6,-0.7 0.3,-0.2 0.6,-0.3 0.9,-0.4 0.2,-0.1 0.6,-0.1 1.1,-0.2 1,-0.1 1.7,-0.3 2.2,-0.4 0,-0.2 0,-0.3 0,-0.3 0,-0.5 -0.1,-0.9 -0.3,-1.1 -0.3,-0.3 -0.8,-0.4 -1.4,-0.4 -0.6,0 -1,0.1 -1.3,0.3 -0.3,0.2 -0.5,0.6 -0.6,1.1 l -1.2,-0.2 c 0.1,-0.5 0.3,-0.9 0.5,-1.2 0.3,-0.3 0.6,-0.6 1.1,-0.7 0.5,-0.2 1,-0.3 1.6,-0.3 0.6,0 1.1,0.1 1.5,0.2 0.4,0.1 0.7,0.3 0.9,0.6 0.2,0.2 0.3,0.5 0.4,0.8 0,0.2 0.1,0.6 0.1,1.1 v 1.6 c 0,1.1 0,1.9 0.1,2.2 0.1,0.3 0.2,0.6 0.3,0.9 h -1.3 c -0.2,-0.1 -0.3,-0.4 -0.3,-0.8 z m -0.1,-2.7 c -0.4,0.2 -1.1,0.3 -2,0.5 -0.5,0.1 -0.9,0.2 -1.1,0.2 -0.2,0 -0.4,0.2 -0.5,0.4 -0.1,0.2 -0.2,0.4 -0.2,0.6 0,0.3 0.1,0.6 0.4,0.8 0.2,0.2 0.6,0.3 1.1,0.3 0.5,0 0.9,-0.1 1.3,-0.3 0.4,-0.2 0.6,-0.5 0.8,-0.9 0.1,-0.3 0.2,-0.7 0.2,-1.2 z"
   id="path191"
   inkscape:connector-curvature="0"
   style="fill:#414141" />
		<path
   class="st8"
   d="M 327.1,199.4 V 198 h 1.2 v 1.4 z m 0,8.6 v -7.3 h 1.2 v 7.3 z"
   id="path193"
   inkscape:connector-curvature="0"
   style="fill:#414141" />
		<path
   class="st8"
   d="m 330.9,208 v -7.3 h 1.1 v 1 c 0.5,-0.8 1.3,-1.2 2.3,-1.2 0.4,0 0.8,0.1 1.2,0.2 0.4,0.2 0.6,0.4 0.8,0.6 0.2,0.2 0.3,0.6 0.4,0.9 0,0.2 0.1,0.6 0.1,1.2 v 4.5 h -1.2 v -4.4 c 0,-0.5 0,-0.9 -0.1,-1.1 -0.1,-0.2 -0.3,-0.4 -0.5,-0.6 -0.2,-0.1 -0.5,-0.2 -0.9,-0.2 -0.5,0 -1,0.2 -1.4,0.5 -0.4,0.3 -0.6,1 -0.6,1.9 v 4 z"
   id="path195"
   inkscape:connector-curvature="0"
   style="fill:#414141" />
	</g>
</g>
<g
   id="g213"
   transform="translate(-38,-222)">
	<path
   class="st7"
   d="m 547.5,849.4 h 96.2 v 50 h -96.2 z"
   id="path201"
   inkscape:connector-curvature="0"
   style="fill:#b3e3ff;stroke:#404040;stroke-width:4;stroke-linecap:round;stroke-linejoin:round;stroke-miterlimit:10" />
	<g
   id="g211">
		<path
   class="st8"
   d="m 580.4,880.5 v -10 h 2 l 2.4,7.1 c 0.2,0.7 0.4,1.2 0.5,1.5 0.1,-0.4 0.3,-0.9 0.5,-1.6 l 2.4,-7 h 1.8 v 10 h -1.3 v -8.4 l -2.9,8.4 h -1.2 l -2.9,-8.5 v 8.5 z"
   id="path203"
   inkscape:connector-curvature="0"
   style="fill:#414141" />
		<path
   class="st8"
   d="m 597.4,879.6 c -0.5,0.4 -0.9,0.7 -1.3,0.8 -0.4,0.2 -0.9,0.2 -1.4,0.2 -0.8,0 -1.4,-0.2 -1.8,-0.6 -0.4,-0.4 -0.6,-0.9 -0.6,-1.5 0,-0.4 0.1,-0.7 0.2,-1 0.2,-0.3 0.4,-0.5 0.6,-0.7 0.3,-0.2 0.6,-0.3 0.9,-0.4 0.2,-0.1 0.6,-0.1 1.1,-0.2 1,-0.1 1.7,-0.3 2.2,-0.4 0,-0.2 0,-0.3 0,-0.3 0,-0.5 -0.1,-0.9 -0.3,-1.1 -0.3,-0.3 -0.8,-0.4 -1.4,-0.4 -0.6,0 -1,0.1 -1.3,0.3 -0.3,0.2 -0.5,0.6 -0.6,1.1 l -1.2,-0.2 c 0.1,-0.5 0.3,-0.9 0.5,-1.2 0.3,-0.3 0.6,-0.6 1.1,-0.7 0.5,-0.2 1,-0.3 1.6,-0.3 0.6,0 1.1,0.1 1.5,0.2 0.4,0.1 0.7,0.3 0.9,0.6 0.2,0.2 0.3,0.5 0.4,0.8 0,0.2 0.1,0.6 0.1,1.1 v 1.6 c 0,1.1 0,1.9 0.1,2.2 0.1,0.3 0.2,0.6 0.3,0.9 h -1.3 c -0.2,-0.1 -0.3,-0.4 -0.3,-0.8 z m -0.1,-2.7 c -0.4,0.2 -1.1,0.3 -2,0.5 -0.5,0.1 -0.9,0.2 -1.1,0.2 -0.2,0 -0.4,0.2 -0.5,0.4 -0.1,0.2 -0.2,0.4 -0.2,0.6 0,0.3 0.1,0.6 0.4,0.8 0.2,0.2 0.6,0.3 1.1,0.3 0.5,0 0.9,-0.1 1.3,-0.3 0.4,-0.2 0.6,-0.5 0.8,-0.9 0.1,-0.3 0.2,-0.7 0.2,-1.2 z"
   id="path205"
   inkscape:connector-curvature="0"
   style="fill:#414141" />
		<path
   class="st8"
   d="m 601.1,871.9 v -1.4 h 1.2 v 1.4 z m 0,8.6 v -7.3 h 1.2 v 7.3 z"
   id="path207"
   inkscape:connector-curvature="0"
   style="fill:#414141" />
		<path
   class="st8"
   d="m 604.9,880.5 v -7.3 h 1.1 v 1 c 0.5,-0.8 1.3,-1.2 2.3,-1.2 0.4,0 0.8,0.1 1.2,0.2 0.4,0.2 0.6,0.4 0.8,0.6 0.2,0.2 0.3,0.6 0.4,0.9 0,0.2 0.1,0.6 0.1,1.2 v 4.5 h -1.2 V 876 c 0,-0.5 0,-0.9 -0.1,-1.1 -0.1,-0.2 -0.3,-0.4 -0.5,-0.6 -0.2,-0.1 -0.5,-0.2 -0.9,-0.2 -0.5,0 -1,0.2 -1.4,0.5 -0.4,0.3 -0.6,1 -0.6,1.9 v 4 z"
   id="path209"
   inkscape:connector-curvature="0"
   style="fill:#414141" />
	</g>
</g>
<rect
   id="rect576"
   width="322.17761"
   height="4.6692405"
   x="263.17374"
   y="755.81726"
   style="fill:#ffffff" /></svg>