<?xml version="1.0" encoding="UTF-8" standalone="no"?>
<!-- Generator: Adobe Illustrator 25.2.3, SVG Export Plug-In . SVG Version: 6.00 Build 0)  -->

<svg
   xmlns:dc="http://purl.org/dc/elements/1.1/"
   xmlns:cc="http://creativecommons.org/ns#"
   xmlns:rdf="http://www.w3.org/1999/02/22-rdf-syntax-ns#"
   xmlns:svg="http://www.w3.org/2000/svg"
   xmlns="http://www.w3.org/2000/svg"
   xmlns:sodipodi="http://sodipodi.sourceforge.net/DTD/sodipodi-0.dtd"
   xmlns:inkscape="http://www.inkscape.org/namespaces/inkscape"
   version="1.1"
   id="Lager_1"
   x="0px"
   y="0px"
   viewBox="0 0 938 347"
   xml:space="preserve"
   sodipodi:docname="gitflow.svg"
   width="938"
   height="347"
   inkscape:version="0.92.5 (2060ec1f9f, 2020-04-08)"><metadata
   id="metadata121"><rdf:RDF><cc:Work
       rdf:about=""><dc:format>image/svg+xml</dc:format><dc:type
         rdf:resource="http://purl.org/dc/dcmitype/StillImage" /><dc:title></dc:title></cc:Work></rdf:RDF></metadata><defs
   id="defs119" /><sodipodi:namedview
   pagecolor="#ffffff"
   bordercolor="#666666"
   borderopacity="1"
   objecttolerance="10"
   gridtolerance="10"
   guidetolerance="10"
   inkscape:pageopacity="0"
   inkscape:pageshadow="2"
   inkscape:window-width="1920"
   inkscape:window-height="966"
   id="namedview117"
   showgrid="false"
   inkscape:zoom="0.825"
   inkscape:cx="292.56198"
   inkscape:cy="329.12548"
   inkscape:window-x="0"
   inkscape:window-y="27"
   inkscape:window-maximized="1"
   inkscape:current-layer="Lager_1" />
<style
   type="text/css"
   id="style2">
	.st0{fill:#404040;}
	.st1{fill:#B18BE8;stroke:#404040;stroke-width:4;stroke-linecap:round;stroke-linejoin:round;stroke-miterlimit:10;}
	.st2{fill:#4ED1A1;stroke:#404040;stroke-width:4;stroke-linecap:round;stroke-linejoin:round;stroke-miterlimit:10;}
	.st3{fill:none;stroke:#404040;stroke-width:4;stroke-miterlimit:10;}
	.st4{fill:#4ED1A1;stroke:#404040;stroke-width:4;stroke-miterlimit:10;}
	.st5{fill:#B18BE8;stroke:#404040;stroke-width:4;stroke-miterlimit:10;}
	.st6{fill:none;stroke:#CCCCCC;stroke-width:4;stroke-linecap:round;stroke-linejoin:round;stroke-dasharray:0,14.1243;}
	.st7{fill:none;stroke:#CCCCCC;stroke-width:4;stroke-linecap:round;stroke-linejoin:round;}
	.st8{fill:none;stroke:#CCCCCC;stroke-width:4;stroke-linecap:round;stroke-linejoin:round;stroke-dasharray:0,14.9632;}
	.st9{fill:#B3E3FF;stroke:#404040;stroke-width:4;stroke-miterlimit:10;}
	.st10{fill:#B3E3FF;stroke:#404040;stroke-width:4;stroke-linecap:round;stroke-linejoin:round;stroke-miterlimit:10;}
	.st11{fill:none;stroke:#404040;stroke-width:4;stroke-linecap:round;stroke-linejoin:round;stroke-miterlimit:10;}
	.st12{fill:none;stroke:#CCCCCC;stroke-width:4;stroke-linecap:round;stroke-linejoin:round;stroke-dasharray:0,13.6844;}
	.st13{fill:none;stroke:#CCCCCC;stroke-width:4;stroke-linecap:round;stroke-linejoin:round;stroke-dasharray:0,13.7717;}
	.st14{fill:none;stroke:#CCCCCC;stroke-width:4;stroke-linecap:round;stroke-linejoin:round;stroke-dasharray:0,13.6492;}
	.st15{fill:none;stroke:#CCCCCC;stroke-width:4;stroke-linecap:round;stroke-linejoin:round;stroke-dasharray:0,13.907;}
	.st16{fill:#414141;}
</style>
<path
   class="st0"
   d="M 21.6,185.8 H 20 v 4.3 h -1.5 v -10.5 h 4 c 2,0 3.3,1.4 3.3,3.2 0,1.5 -1,2.7 -2.6,3 l 2.5,4.5 H 24 Z m 0.7,-1.3 c 1.20001,0 2,-0.7 2,-1.8 0,-1.1 -0.79999,-1.8 -2,-1.8 h -2.2 v 3.6 z m 12.10001,3.6 C 34,189.4 32.8,190.4 31.2,190.4 c -1.9,0 -3.6,-1.4 -3.6,-3.9 0,-2.3 1.6,-3.8 3.5,-3.8 2.2,0 3.5,1.5 3.5,3.8 v 0.5 h -5.4 c 0,1.3 1,2.2 2.20001,2.2 1.19999,0 1.79999,-0.6 2,-1.5 z M 33,185.8 c 0,-1 -0.7,-1.8 -2,-1.8 -1.2,0 -1.9,0.9 -2,1.8 z m 4,4.4 v -10.9 h 1.40001 v 10.9 z m 10.8,-2.1 c -0.4,1.3 -1.6,2.3 -3.2,2.3 -1.9,0 -3.6,-1.4 -3.6,-3.9 0,-2.3 1.6,-3.8 3.40001,-3.8 2.19999,0 3.5,1.5 3.5,3.8 V 187 H 42.5 c 0,1.3 1,2.2 2.2,2.2 1.20001,0 1.8,-0.6 2,-1.5 z m -1.4,-2.3 c 0,-1 -0.7,-1.8 -2,-1.8 -1.2,0 -1.9,0.9 -2,1.8 z m 5.8,0.3 1.9,-0.3 c 0.4,-0.1 0.6,-0.3 0.6,-0.5 0,-0.7 -0.5,-1.3 -1.6,-1.3 -1,0 -1.5,0.6 -1.6,1.5 l -1.4,-0.3 c 0.2,-1.4 1.4,-2.3 3,-2.3 2.2,0 3,1.2 3,2.6 v 3.6 c 0,0.6 0.1,1 0.1,1.2 h -1.4 c 0,-0.2 -0.1,-0.5 -0.1,-1 -0.3,0.5 -1,1.2 -2.3,1.2 -1.5,0 -2.4,-1 -2.4,-2.2 0,-1.3 0.9,-2.1 2.2,-2.2 z m 2.5,1 v -0.3 l -2.2,0.3 c -0.6,0.1 -1,0.4 -1,1.1 0,0.5 0.4,1 1.2,1 1,0 2,-0.5 2,-2.1 z m 4.9,0.8 c 0.1,0.8 0.7,1.3 1.7,1.3 0.8,0 1.2,-0.4 1.2,-1 0,-0.4 -0.29999,-0.8 -0.89999,-0.9 L 60.4,187 c -1.1,-0.2 -1.8,-1 -1.8,-2 0,-1.2 1.2,-2.3 2.60001,-2.3 2,0 2.59999,1.3 2.7,1.9 l -1.2,0.5 c -0.1,-0.4 -0.40001,-1.2 -1.5,-1.2 C 60.5,183.9 60,184.4 60,184.9 c 0,0.4 0.3,0.8 0.8,0.9 l 1.2,0.3 c 1.3,0.3 2,1.1 2,2.1 0,1 -0.89999,2.2 -2.6,2.2 -1.99999,0 -2.8,-1.3 -2.9,-2.1 z m 13.2,0.2 c -0.4,1.3 -1.59999,2.3 -3.2,2.3 -1.9,0 -3.6,-1.4 -3.6,-3.9 0,-2.3 1.6,-3.8 3.5,-3.8 2.20001,0 3.5,1.5 3.5,3.8 v 0.5 h -5.4 c 0,1.3 1,2.2 2.2,2.2 1.2,0 1.8,-0.6 2,-1.5 z m -1.5,-2.3 c 0,-1 -0.7,-1.8 -2,-1.8 -1.2,0 -1.9,0.9 -2,1.8 z"
   id="path4"
   inkscape:connector-curvature="0"
   style="fill:#404040" />
<path
   class="st1"
   d="m 16.3,159.2 h 96.2 v 50 H 16.3 Z"
   id="path6"
   inkscape:connector-curvature="0"
   style="fill:#b18be8;stroke:#404040;stroke-width:4;stroke-linecap:round;stroke-linejoin:round;stroke-miterlimit:10" />
<path
   class="st0"
   d="m 36.6,190.2 v -10.6 h 3.7 c 2.70001,0 5.10001,1.8 5.10001,5.3 0,3.5 -2.40001,5.3 -5.10001,5.3 z m 3.7,-1.3 c 2,0 3.60001,-1.3 3.60001,-4 0,-2.7 -1.60001,-4 -3.60001,-4 h -2.2 v 8 z m 14,-0.8 c -0.39999,1.3 -1.59999,2.3 -3.2,2.3 -1.9,0 -3.59999,-1.4 -3.59999,-3.9 0,-2.3 1.59999,-3.8 3.5,-3.8 2.2,0 3.5,1.5 3.5,3.8 V 187 H 49.1 c 0,1.3 1,2.2 2.2,2.2 1.20001,0 1.8,-0.6 2,-1.5 z m -1.39999,-2.3 c 0,-1 -0.70001,-1.8 -2,-1.8 -1.20001,0 -1.90001,0.9 -2,1.8 z M 60.4,190.2 H 59 L 56.1,183 h 1.6 l 2.1,5.6 2.1,-5.6 h 1.5 z m 10.7,-2.1 c -0.4,1.3 -1.6,2.3 -3.2,2.3 -1.9,0 -3.6,-1.4 -3.6,-3.9 0,-2.3 1.6,-3.8 3.5,-3.8 2.2,0 3.5,1.5 3.5,3.8 v 0.5 h -5.4 c 0,1.3 1,2.2 2.2,2.2 1.2,0 1.8,-0.6 2,-1.5 z m -1.4,-2.3 c 0,-1 -0.7,-1.8 -2,-1.8 -1.2,0 -1.9,0.9 -2,1.8 z m 4,4.4 v -10.9 h 1.4 v 10.9 z M 85,186.6 c 0,2.2 -1.5,3.8 -3.7,3.8 -2.2,0 -3.7,-1.6 -3.7,-3.8 0,-2.2 1.5,-3.8 3.7,-3.8 2.2,0 3.7,1.6 3.7,3.8 z m -1.4,0 c 0,-1.7 -1,-2.6 -2.2,-2.6 -1.2,0 -2.2,0.9 -2.2,2.6 0,1.7 1,2.6 2.2,2.6 1.2,0 2.2,-0.9 2.2,-2.6 z m 4,6.4 V 183 H 89 v 1.1 c 0.4,-0.7 1.2,-1.3 2.4,-1.3 2.2,0 3.3,1.7 3.3,3.8 0,2.1 -1.2,3.8 -3.4,3.8 -1.1,0 -2,-0.5 -2.3,-1.2 v 3.8 c 0,0 -1.4,0 -1.4,0 z m 3.5,-8.9 c -1.3,0 -2.1,1.1 -2.1,2.5 0,1.5 0.9,2.5 2.1,2.5 1.3,0 2.1,-1.1 2.1,-2.5 0,-1.5 -0.8,-2.5 -2.1,-2.5 z"
   id="path8"
   inkscape:connector-curvature="0"
   style="fill:#404040" />
<path
   class="st2"
   d="m 16.02017,220.42913 h 96.19999 v 50 H 16.02017 Z"
   id="path10"
   inkscape:connector-curvature="0"
   style="fill:#4ed1a1;stroke:#404040;stroke-width:4;stroke-linecap:round;stroke-linejoin:round;stroke-miterlimit:10" />
<path
   class="st0"
   d="m 38.62017,250.92913 v -10.6 h 6.5 v 1.4 h -5 v 3.4 h 4.5 v 1.4 h -4.5 v 4.5 h -1.5 z m 14.59999,-2.1 c -0.4,1.3 -1.6,2.3 -3.19999,2.3 -1.9,0 -3.6,-1.4 -3.6,-3.9 0,-2.3 1.6,-3.8 3.4,-3.8 2.19999,0 3.49999,1.5 3.49999,3.8 v 0.5 h -5.39999 c 0,1.3 1,2.2 2.2,2.2 1.19999,0 1.79999,-0.6 1.99999,-1.5 z m -1.4,-2.3 c 0,-1 -0.7,-1.8 -1.99999,-1.8 -1.2,0 -1.9,0.9 -2,1.8 z m 5.8,0.3 2,-0.3 c 0.4,-0.1 0.6,-0.3 0.6,-0.5 0,-0.7 -0.5,-1.3 -1.6,-1.3 -1,0 -1.5,0.6 -1.6,1.5 l -1.4,-0.3 c 0.2,-1.4 1.4,-2.3 3,-2.3 2.2,0 3,1.2 3,2.6 v 3.6 c 0,0.6 0.1,1 0.1,1.2 h -1.4 c 0,-0.2 -0.1,-0.5 -0.1,-1 -0.3,0.5 -1,1.2 -2.3,1.2 -1.5,0 -2.4,-1 -2.4,-2.2 -0.1,-1.3 0.8,-2.1 2.1,-2.2 z m 2.5,1 v -0.3 l -2.2,0.3 c -0.6,0.1 -1,0.4 -1,1.1 0,0.5 0.5,1 1.2,1 1,0 2,-0.5 2,-2.1 z m 6.2,-4.1 h 1.6 v 1.3 h -1.6 v 3.8 c 0,0.7 0.3,1 1,1 0.2,0 0.4,0 0.6,-0.1 v 1.2 c -0.1,0 -0.5,0.1 -1,0.1 -1.2,0 -2,-0.8 -2,-2.1 v -4 h -1.4 v -1.3 h 0.4 c 0.8,0 1.1,-0.5 1.1,-1.1 v -1.2 h 1.3 z m 6.8,7.4 c -1.7,0 -2.7,-1.3 -2.7,-2.9 v -4.5 h 1.4 v 4.3 c 0,1 0.5,1.9 1.6,1.9 1.1,0 1.7,-0.8 1.7,-1.8 v -4.3 h 1.4 v 5.9 c 0,0.6 0,1.1 0.1,1.3 h -1.3 c 0,-0.2 -0.1,-0.6 -0.1,-0.9 -0.3,0.7 -1.2,1 -2.1,1 z m 10.6,-6 h -0.6 c -1.2,0 -2,0.6 -2,2.2 v 3.6 h -1.4 v -7.2 h 1.4 v 1.3 c 0.5,-1.1 1.4,-1.4 2.2,-1.4 h 0.5 v 1.5 z m 8.5,3.7 c -0.4,1.3 -1.6,2.3 -3.2,2.3 -1.9,0 -3.6,-1.4 -3.6,-3.9 0,-2.3 1.6,-3.8 3.5,-3.8 2.2,0 3.5,1.5 3.5,3.8 v 0.5 h -5.4 c 0,1.3 1,2.2 2.2,2.2 1.2,0 1.8,-0.6 2,-1.5 z m -1.4,-2.3 c 0,-1 -0.7,-1.8 -2,-1.8 -1.2,0 -1.9,0.9 -2,1.8 z"
   id="path12"
   inkscape:connector-curvature="0"
   style="fill:#404040" />
<path
   class="st2"
   d="m 16.63318,281.28317 h 96.19999 v 50 H 16.63318 Z"
   id="path14"
   inkscape:connector-curvature="0"
   style="fill:#4ed1a1;stroke:#404040;stroke-width:4;stroke-linecap:round;stroke-linejoin:round;stroke-miterlimit:10" />
<path
   class="st0"
   d="m 39.13318,311.78317 v -10.6 h 6.5 v 1.4 h -5 v 3.4 h 4.5 v 1.4 h -4.5 v 4.5 h -1.5 z m 14.6,-2.1 c -0.4,1.3 -1.6,2.3 -3.2,2.3 -1.9,0 -3.6,-1.4 -3.6,-3.9 0,-2.3 1.6,-3.8 3.5,-3.8 2.2,0 3.5,1.5 3.5,3.8 v 0.5 h -5.4 c 0,1.3 1,2.2 2.2,2.2 1.2,0 1.8,-0.6 2,-1.5 z m -1.4,-2.3 c 0,-1 -0.7,-1.8 -2,-1.8 -1.2,0 -1.9,0.9 -2,1.8 z m 5.8,0.3 2,-0.3 c 0.4,-0.1 0.6,-0.3 0.6,-0.5 0,-0.7 -0.5,-1.3 -1.6,-1.3 -1,0 -1.5,0.6 -1.6,1.5 l -1.4,-0.3 c 0.2,-1.4 1.4,-2.3 3,-2.3 2.2,0 3,1.2 3,2.6 v 3.6 c 0,0.6 0.1,1 0.1,1.2 h -1.5 c 0,-0.2 -0.1,-0.5 -0.1,-1 -0.3,0.5 -1,1.2 -2.3,1.2 -1.5,0 -2.4,-1 -2.4,-2.2 0,-1.3 0.9,-2.1 2.2,-2.2 z m 2.5,1 v -0.3 l -2.2,0.3 c -0.6,0.1 -1.1,0.4 -1.1,1.1 0,0.5 0.5,1 1.2,1 1.1,0 2.1,-0.5 2.1,-2.1 z m 6.2,-4.1 h 1.6 v 1.3 h -1.6 v 3.8 c 0,0.7 0.3,1 1,1 0.2,0 0.4,0 0.6,-0.1 v 1.2 c -0.1,0 -0.5,0.1 -1,0.1 -1.2,0 -2,-0.8 -2,-2.1 v -4 h -1.4 v -1.3 h 0.4 c 0.8,0 1.1,-0.5 1.1,-1.1 v -1.2 h 1.3 z m 6.8,7.4 c -1.7,0 -2.7,-1.3 -2.7,-2.9 v -4.5 h 1.4 v 4.3 c 0,1 0.4,1.9 1.6,1.9 1.1,0 1.7,-0.8 1.7,-1.8 v -4.3 h 1.4 v 5.9 c 0,0.6 0,1.1 0.1,1.3 h -1.3 c 0,-0.2 -0.1,-0.6 -0.1,-0.9 -0.3,0.7 -1.2,1 -2.1,1 z m 10.6,-6 h -0.6 c -1.2,0 -2,0.6 -2,2.2 v 3.6 h -1.4 v -7.2 h 1.4 v 1.3 c 0.5,-1.1 1.4,-1.4 2.2,-1.4 h 0.5 v 1.5 z m 8.5,3.7 c -0.4,1.3 -1.6,2.3 -3.2,2.3 -1.9,0 -3.6,-1.4 -3.6,-3.9 0,-2.3 1.6,-3.8 3.4,-3.8 2.2,0 3.5,1.5 3.5,3.8 v 0.5 h -5.4 c 0,1.3 1,2.2 2.2,2.2 1.2,0 1.8,-0.6 2,-1.5 z m -1.4,-2.3 c 0,-1 -0.7,-1.8 -2,-1.8 -1.2,0 -1.9,0.9 -2,1.8 z"
   id="path16"
   inkscape:connector-curvature="0"
   style="fill:#404040" />
<path
   class="st3"
   d="m 554.2,216.2 c 0,-17 13.8,-30.8 30.8,-30.8"
   id="path18"
   inkscape:connector-curvature="0"
   style="fill:none;stroke:#404040;stroke-width:4;stroke-miterlimit:10" />
<path
   class="st3"
   d="m 383.9,216.2 c 0,-17 -13.8,-30.8 -30.8,-30.8 m -58.8,123.1 h 213.9"
   id="path20"
   inkscape:connector-curvature="0"
   style="fill:none;stroke:#404040;stroke-width:4;stroke-miterlimit:10" />
<circle
   class="st4"
   cx="445.60001"
   cy="308.5"
   r="15.8"
   id="circle22"
   style="fill:#4ed1a1;stroke:#404040;stroke-width:4;stroke-miterlimit:10" />
<circle
   class="st4"
   cx="492.5"
   cy="308.5"
   r="15.8"
   id="circle24"
   style="fill:#4ed1a1;stroke:#404040;stroke-width:4;stroke-miterlimit:10" />
<circle
   class="st4"
   cx="372.20001"
   cy="308.5"
   r="15.8"
   id="circle26"
   style="fill:#4ed1a1;stroke:#404040;stroke-width:4;stroke-miterlimit:10" />
<path
   class="st3"
   d="M 906,185.5 H 309.6"
   id="path28"
   inkscape:connector-curvature="0"
   style="fill:none;stroke:#404040;stroke-width:4;stroke-miterlimit:10" />
<circle
   class="st5"
   cx="615"
   cy="185.5"
   r="15.8"
   id="circle30"
   style="fill:#b18be8;stroke:#404040;stroke-width:4;stroke-miterlimit:10" />
<circle
   class="st5"
   cx="445.60001"
   cy="185.5"
   r="15.8"
   id="circle32"
   style="fill:#b18be8;stroke:#404040;stroke-width:4;stroke-miterlimit:10" />
<circle
   class="st5"
   cx="906"
   cy="185.5"
   r="15.8"
   id="circle34"
   style="fill:#b18be8;stroke:#404040;stroke-width:4;stroke-miterlimit:10" />
<path
   class="st3"
   d="m 383.9,216.2 c 0,17 13.8,30.8 30.8,30.8 h 107.9"
   id="path36"
   inkscape:connector-curvature="0"
   style="fill:none;stroke:#404040;stroke-width:4;stroke-miterlimit:10" />
<circle
   class="st4"
   cx="445.60001"
   cy="247"
   r="15.8"
   id="circle38"
   style="fill:#4ed1a1;stroke:#404040;stroke-width:4;stroke-miterlimit:10" />
<circle
   class="st4"
   cx="492.5"
   cy="247"
   r="15.8"
   id="circle40"
   style="fill:#4ed1a1;stroke:#404040;stroke-width:4;stroke-miterlimit:10" />
<path
   class="st3"
   d="m 522.6,247 h 0.9 c 17,0 30.7,-13.8 30.7,-30.8"
   id="path42"
   inkscape:connector-curvature="0"
   style="fill:none;stroke:#404040;stroke-width:4;stroke-miterlimit:10" />
<path
   class="st6"
   d="M 200.6,185.5 H 151.1"
   id="path44"
   inkscape:connector-curvature="0"
   style="fill:none;stroke:#cccccc;stroke-width:4;stroke-linecap:round;stroke-linejoin:round;stroke-dasharray:0, 14.1243" />
<path
   class="st7"
   d="M 906,124"
   id="path46"
   inkscape:connector-curvature="0"
   style="fill:none;stroke:#cccccc;stroke-width:4;stroke-linecap:round;stroke-linejoin:round" />
<path
   class="st8"
   d="M 891.1,124 H 808.8"
   id="path48"
   inkscape:connector-curvature="0"
   style="fill:none;stroke:#cccccc;stroke-width:4;stroke-linecap:round;stroke-linejoin:round;stroke-dasharray:0, 14.9632" />
<path
   class="st3"
   d="m 214.7,154.7 c 0,-17 -13.8,-30.8 -30.8,-30.8"
   id="path50"
   inkscape:connector-curvature="0"
   style="fill:none;stroke:#404040;stroke-width:4;stroke-miterlimit:10" />
<circle
   class="st4"
   cx="278.5"
   cy="308.5"
   r="15.8"
   id="circle52"
   style="fill:#4ed1a1;stroke:#404040;stroke-width:4;stroke-miterlimit:10" />
<path
   class="st3"
   d="M 774.8,124 H 169"
   id="path54"
   inkscape:connector-curvature="0"
   style="fill:none;stroke:#404040;stroke-width:4;stroke-miterlimit:10" />
<circle
   transform="rotate(-0.86783891)"
   class="st9"
   cx="151.30524"
   cy="126.31032"
   id="ellipse56"
   r="15.800233"
   style="fill:#b3e3ff;stroke:#404040;stroke-width:4.00005865;stroke-miterlimit:10" />
<circle
   class="st9"
   cx="445.60001"
   cy="124"
   r="15.8"
   id="circle58"
   style="fill:#b3e3ff;stroke:#404040;stroke-width:4;stroke-miterlimit:10" />
<circle
   class="st9"
   cx="774.79999"
   cy="124"
   r="15.8"
   id="circle60"
   style="fill:#b3e3ff;stroke:#404040;stroke-width:4;stroke-miterlimit:10" />
<path
   class="st10"
   d="m 130.8,18.5 h 42.5 V 56 h -42.5 z"
   id="path62"
   inkscape:connector-curvature="0"
   style="fill:#b3e3ff;stroke:#404040;stroke-width:4;stroke-linecap:round;stroke-linejoin:round;stroke-miterlimit:10" />
<path
   class="st0"
   d="m 144.4,41.7 h -1.2 l -2.5,-6.3 h 1.3 l 1.8,4.8 1.8,-4.8 h 1.3 z m 4.6,-7.2 c 0.5,-0.8 1.4,-1.4 2.6,-1.4 1.2,0 2,0.5 2.6,1.4 0.6,0.8 0.8,1.9 0.8,3.1 0,1.2 -0.2,2.2 -0.8,3.1 -0.5,0.8 -1.4,1.4 -2.6,1.4 -1.2,0 -2,-0.5 -2.6,-1.4 -0.6,-0.8 -0.8,-1.9 -0.8,-3.1 0,-1.2 0.3,-2.3 0.8,-3.1 z m 1.3,5.7 c 0.3,0.3 0.7,0.5 1.3,0.5 0.6,0 1,-0.2 1.3,-0.5 0.5,-0.5 0.7,-1.4 0.7,-2.7 0,-1.3 -0.2,-2.2 -0.7,-2.7 -0.3,-0.3 -0.7,-0.5 -1.3,-0.5 -0.6,0 -1,0.2 -1.3,0.5 -0.5,0.5 -0.7,1.4 -0.7,2.7 0,1.3 0.2,2.2 0.7,2.7 z m 7.3,-0.2 c 0.5,0 0.9,0.4 0.9,0.9 0,0.5 -0.4,0.9 -0.9,0.9 -0.5,0 -0.9,-0.4 -0.9,-0.9 0,-0.5 0.3,-0.9 0.9,-0.9 z m 3.9,1.7 v -5.9 h -2 v -0.9 c 1.2,0 2,-0.7 2.2,-1.6 h 1.1 v 8.4 c 0,0 -1.3,0 -1.3,0 z"
   id="path64"
   inkscape:connector-curvature="0"
   style="fill:#404040" />
<path
   class="st11"
   d="M 152.1,90.1 V 72.5 m 8.1,11.1 -8.1,8.1 -8.2,-8.1"
   id="path66"
   inkscape:connector-curvature="0"
   style="fill:none;stroke:#404040;stroke-width:4;stroke-linecap:round;stroke-linejoin:round;stroke-miterlimit:10" />
<path
   class="st10"
   d="m 424.3,18.5 h 42.5 V 56 h -42.5 z"
   id="path68"
   inkscape:connector-curvature="0"
   style="fill:#b3e3ff;stroke:#404040;stroke-width:4;stroke-linecap:round;stroke-linejoin:round;stroke-miterlimit:10" />
<path
   class="st0"
   d="M 436.3,41.7 H 435 l -2.5,-6.3 h 1.4 l 1.8,4.8 1.8,-4.8 h 1.3 z m 4.6,-7.2 c 0.5,-0.8 1.4,-1.4 2.6,-1.4 1.2,0 2,0.5 2.6,1.4 0.6,0.8 0.8,1.9 0.8,3.1 0,1.2 -0.2,2.2 -0.8,3.1 -0.5,0.8 -1.4,1.4 -2.6,1.4 -1.2,0 -2,-0.5 -2.6,-1.4 -0.6,-0.8 -0.8,-1.9 -0.8,-3.1 0,-1.2 0.3,-2.3 0.8,-3.1 z m 1.3,5.7 c 0.3,0.3 0.7,0.5 1.3,0.5 0.6,0 1,-0.2 1.3,-0.5 0.5,-0.5 0.7,-1.4 0.7,-2.7 0,-1.3 -0.2,-2.2 -0.7,-2.7 -0.3,-0.3 -0.7,-0.5 -1.3,-0.5 -0.6,0 -1,0.2 -1.3,0.5 -0.5,0.5 -0.7,1.4 -0.7,2.7 0,1.3 0.2,2.2 0.7,2.7 z m 7.3,-0.2 c 0.5,0 0.9,0.4 0.9,0.9 0,0.5 -0.4,0.9 -0.9,0.9 -0.5,0 -0.9,-0.4 -0.9,-0.9 0,-0.5 0.4,-0.9 0.9,-0.9 z m 3,-3.8 v -0.3 c 0,-1.4 1.1,-2.7 2.9,-2.7 1.8,0 2.8,1.2 2.8,2.6 0,1.1 -0.6,2 -1.6,2.6 l -1.7,1.1 c -0.5,0.3 -0.9,0.7 -1,1.2 h 4.3 v 1.2 h -5.9 c 0,-1.4 0.6,-2.4 2,-3.4 l 1.4,-0.9 c 0.8,-0.5 1.2,-1.1 1.2,-1.8 0,-0.8 -0.5,-1.5 -1.6,-1.5 -1.1,0 -1.6,0.8 -1.6,1.7 v 0.4 z"
   id="path70"
   inkscape:connector-curvature="0"
   style="fill:#404040" />
<path
   class="st11"
   d="M 445.6,90.1 V 72.5 m 8.1,11.1 -8.1,8.1 -8.2,-8.1"
   id="path72"
   inkscape:connector-curvature="0"
   style="fill:none;stroke:#404040;stroke-width:4;stroke-linecap:round;stroke-linejoin:round;stroke-miterlimit:10" />
<path
   class="st10"
   d="M 753.5,18.5 H 796 V 56 h -42.5 z"
   id="path74"
   inkscape:connector-curvature="0"
   style="fill:#b3e3ff;stroke:#404040;stroke-width:4;stroke-linecap:round;stroke-linejoin:round;stroke-miterlimit:10" />
<path
   class="st0"
   d="m 766.6,41.7 h -1.2 l -2.5,-6.3 h 1.4 l 1.8,4.8 1.8,-4.8 h 1.3 z m 5.6,0 v -5.9 h -2 v -0.9 c 1.2,0 2,-0.7 2.2,-1.6 h 1.1 v 8.4 z m 4.6,-1.7 c 0.5,0 0.9,0.4 0.9,0.9 0,0.5 -0.4,0.9 -0.9,0.9 -0.5,0 -0.9,-0.4 -0.9,-0.9 0,-0.5 0.4,-0.9 0.9,-0.9 z m 3.6,-5.5 c 0.5,-0.8 1.4,-1.4 2.6,-1.4 1.2,0 2,0.5 2.6,1.4 0.6,0.8 0.8,1.9 0.8,3.1 0,1.2 -0.2,2.2 -0.8,3.1 -0.5,0.8 -1.4,1.4 -2.6,1.4 -1.2,0 -2,-0.5 -2.6,-1.4 -0.6,-0.8 -0.8,-1.9 -0.8,-3.1 0,-1.2 0.2,-2.3 0.8,-3.1 z m 1.2,5.7 c 0.3,0.3 0.7,0.5 1.3,0.5 0.6,0 1,-0.2 1.3,-0.5 0.5,-0.5 0.7,-1.4 0.7,-2.7 0,-1.3 -0.2,-2.2 -0.7,-2.7 -0.3,-0.3 -0.7,-0.5 -1.3,-0.5 -0.6,0 -1,0.2 -1.3,0.5 -0.5,0.5 -0.7,1.4 -0.7,2.7 0,1.3 0.2,2.2 0.7,2.7 z"
   id="path76"
   inkscape:connector-curvature="0"
   style="fill:#404040" />
<path
   class="st11"
   d="M 774.8,90.1 V 72.5 m 8.2,11.1 -8.2,8.1 -8.1,-8.1"
   id="path78"
   inkscape:connector-curvature="0"
   style="fill:none;stroke:#404040;stroke-width:4;stroke-linecap:round;stroke-linejoin:round;stroke-miterlimit:10" />
<path
   class="st12"
   d="M 376.7,247 H 150.9"
   id="path80"
   inkscape:connector-curvature="0"
   style="fill:none;stroke:#cccccc;stroke-width:4;stroke-linecap:round;stroke-linejoin:round;stroke-dasharray:0, 13.6844" />
<path
   class="st7"
   d="M 906,247"
   id="path82"
   inkscape:connector-curvature="0"
   style="fill:none;stroke:#cccccc;stroke-width:4;stroke-linecap:round;stroke-linejoin:round" />
<path
   class="st13"
   d="M 892.2,247 H 554.8"
   id="path84"
   inkscape:connector-curvature="0"
   style="fill:none;stroke:#cccccc;stroke-width:4;stroke-linecap:round;stroke-linejoin:round;stroke-dasharray:0, 13.7717" />
<path
   class="st7"
   d="M 253.3,308.5"
   id="path86"
   inkscape:connector-curvature="0"
   style="fill:none;stroke:#cccccc;stroke-width:4;stroke-linecap:round;stroke-linejoin:round" />
<path
   class="st14"
   d="M 239.6,308.5 H 150.9"
   id="path88"
   inkscape:connector-curvature="0"
   style="fill:none;stroke:#cccccc;stroke-width:4;stroke-linecap:round;stroke-linejoin:round;stroke-dasharray:0, 13.6492" />
<path
   class="st7"
   d="M 906,308.5"
   id="path90"
   inkscape:connector-curvature="0"
   style="fill:none;stroke:#cccccc;stroke-width:4;stroke-linecap:round;stroke-linejoin:round" />
<path
   class="st15"
   d="M 892.1,308.5 H 523.6"
   id="path92"
   inkscape:connector-curvature="0"
   style="fill:none;stroke:#cccccc;stroke-width:4;stroke-linecap:round;stroke-linejoin:round;stroke-dasharray:0, 13.907" />
<path
   class="st3"
   d="m 214.7,154.7 c 0,17 13.8,30.8 30.8,30.8 h 95.7"
   id="path94"
   inkscape:connector-curvature="0"
   style="fill:none;stroke:#404040;stroke-width:4;stroke-miterlimit:10" />
<circle
   class="st5"
   cx="325.39999"
   cy="185.5"
   r="15.7"
   id="circle96"
   style="fill:#b18be8;stroke:#404040;stroke-width:4;stroke-miterlimit:10" />
<circle
   class="st5"
   cx="278.5"
   cy="185.5"
   r="15.8"
   id="circle98"
   style="fill:#b18be8;stroke:#404040;stroke-width:4;stroke-miterlimit:10" />
<path
   class="st3"
   d="m 278.5,201.2 v 91.5"
   id="path100"
   inkscape:connector-curvature="0"
   style="fill:none;stroke:#404040;stroke-width:4;stroke-miterlimit:10" />
<g
   id="g114"
   transform="translate(8.9,88.8)">
	<path
   class="st10"
   d="m 7,9.3 h 96.2 v 50 H 7 Z"
   id="path102"
   inkscape:connector-curvature="0"
   style="fill:#b3e3ff;stroke:#404040;stroke-width:4;stroke-linecap:round;stroke-linejoin:round;stroke-miterlimit:10" />
	<g
   id="g112">
		<path
   class="st16"
   d="m 39.9,40.4 v -10 h 2 l 2.4,7.1 c 0.2,0.7 0.4,1.2 0.5,1.5 0.1,-0.4 0.3,-0.9 0.5,-1.6 l 2.4,-7 h 1.8 v 10 H 48.2 V 32 l -2.9,8.4 h -1.2 l -2.9,-8.5 v 8.5 z"
   id="path104"
   inkscape:connector-curvature="0"
   style="fill:#414141" />
		<path
   class="st16"
   d="m 56.9,39.5 c -0.5,0.4 -0.9,0.7 -1.3,0.8 -0.4,0.2 -0.9,0.2 -1.4,0.2 -0.8,0 -1.4,-0.2 -1.8,-0.6 -0.4,-0.4 -0.6,-0.9 -0.6,-1.5 0,-0.4 0.1,-0.7 0.2,-1 0.2,-0.3 0.4,-0.5 0.6,-0.7 0.3,-0.2 0.6,-0.3 0.9,-0.4 0.2,-0.1 0.6,-0.1 1.1,-0.2 1,-0.1 1.7,-0.3 2.2,-0.4 0,-0.2 0,-0.3 0,-0.3 0,-0.5 -0.1,-0.9 -0.3,-1.1 -0.3,-0.3 -0.8,-0.4 -1.4,-0.4 -0.6,0 -1,0.1 -1.3,0.3 -0.3,0.2 -0.5,0.6 -0.6,1.1 L 52,35.1 c 0.1,-0.5 0.3,-0.9 0.5,-1.2 0.3,-0.3 0.6,-0.6 1.1,-0.7 0.5,-0.2 1,-0.3 1.6,-0.3 0.6,0 1.1,0.1 1.5,0.2 0.4,0.1 0.7,0.3 0.9,0.6 0.2,0.2 0.3,0.5 0.4,0.8 0,0.2 0.1,0.6 0.1,1.1 v 1.6 c 0,1.1 0,1.9 0.1,2.2 0.1,0.3 0.2,0.6 0.3,0.9 H 57.2 C 57,40.2 56.9,39.9 56.9,39.5 Z m -0.1,-2.7 c -0.4,0.2 -1.1,0.3 -2,0.5 -0.5,0.1 -0.9,0.2 -1.1,0.2 -0.2,0 -0.4,0.2 -0.5,0.4 -0.1,0.2 -0.2,0.4 -0.2,0.6 0,0.3 0.1,0.6 0.4,0.8 0.2,0.2 0.6,0.3 1.1,0.3 0.5,0 0.9,-0.1 1.3,-0.3 0.4,-0.2 0.6,-0.5 0.8,-0.9 0.1,-0.3 0.2,-0.7 0.2,-1.2 z"
   id="path106"
   inkscape:connector-curvature="0"
   style="fill:#414141" />
		<path
   class="st16"
   d="m 60.6,31.8 v -1.4 h 1.2 v 1.4 z m 0,8.6 v -7.3 h 1.2 v 7.3 z"
   id="path108"
   inkscape:connector-curvature="0"
   style="fill:#414141" />
		<path
   class="st16"
   d="m 64.4,40.4 v -7.3 h 1.1 v 1 c 0.5,-0.8 1.3,-1.2 2.3,-1.2 0.4,0 0.8,0.1 1.2,0.2 0.4,0.2 0.6,0.4 0.8,0.6 0.2,0.2 0.3,0.6 0.4,0.9 0,0.2 0.1,0.6 0.1,1.2 v 4.5 H 69.1 V 35.9 C 69.1,35.4 69.1,35 69,34.8 68.9,34.6 68.7,34.4 68.5,34.2 68.3,34.1 68,34 67.6,34 c -0.5,0 -1,0.2 -1.4,0.5 -0.4,0.3 -0.6,1 -0.6,1.9 v 4 z"
   id="path110"
   inkscape:connector-curvature="0"
   style="fill:#414141" />
	</g>
</g>
</svg>