<?xml version="1.0" encoding="UTF-8" standalone="no"?>
<!-- Generator: Adobe Illustrator 25.2.3, SVG Export Plug-In . SVG Version: 6.00 Build 0)  -->

<svg
   xmlns:dc="http://purl.org/dc/elements/1.1/"
   xmlns:cc="http://creativecommons.org/ns#"
   xmlns:rdf="http://www.w3.org/1999/02/22-rdf-syntax-ns#"
   xmlns:svg="http://www.w3.org/2000/svg"
   xmlns="http://www.w3.org/2000/svg"
   xmlns:sodipodi="http://sodipodi.sourceforge.net/DTD/sodipodi-0.dtd"
   xmlns:inkscape="http://www.inkscape.org/namespaces/inkscape"
   version="1.1"
   id="Lager_1"
   x="0px"
   y="0px"
   viewBox="0 0 930 458"
   xml:space="preserve"
   sodipodi:docname="gitflow-2.svg"
   width="930"
   height="458"
   inkscape:version="0.92.5 (2060ec1f9f, 2020-04-08)"><metadata
   id="metadata151"><rdf:RDF><cc:Work
       rdf:about=""><dc:format>image/svg+xml</dc:format><dc:type
         rdf:resource="http://purl.org/dc/dcmitype/StillImage" /><dc:title></dc:title></cc:Work></rdf:RDF></metadata><defs
   id="defs149" /><sodipodi:namedview
   pagecolor="#ffffff"
   bordercolor="#666666"
   borderopacity="1"
   objecttolerance="10"
   gridtolerance="10"
   guidetolerance="10"
   inkscape:pageopacity="0"
   inkscape:pageshadow="2"
   inkscape:window-width="1920"
   inkscape:window-height="966"
   id="namedview147"
   showgrid="false"
   inkscape:zoom="0.82229965"
   inkscape:cx="184.44449"
   inkscape:cy="178.44767"
   inkscape:window-x="0"
   inkscape:window-y="27"
   inkscape:window-maximized="1"
   inkscape:current-layer="Lager_1" />
<style
   type="text/css"
   id="style2">
	.st0{fill:none;stroke:#404040;stroke-width:4;stroke-miterlimit:10;}
	.st1{fill:#4ED1A1;stroke:#404040;stroke-width:4;stroke-miterlimit:10;}
	.st2{fill:#B18BE8;stroke:#404040;stroke-width:4;stroke-miterlimit:10;}
	.st3{fill:none;stroke:#CCCCCC;stroke-width:4;stroke-linecap:round;stroke-linejoin:round;stroke-dasharray:0,14.3051;}
	.st4{fill:none;stroke:#CCCCCC;stroke-width:4;stroke-linecap:round;stroke-linejoin:round;}
	.st5{fill:none;stroke:#CCCCCC;stroke-width:4;stroke-linecap:round;stroke-linejoin:round;stroke-dasharray:0,14.1689;}
	.st6{fill:none;stroke:#CCCCCC;stroke-width:4;stroke-linecap:round;stroke-linejoin:round;stroke-dasharray:0,13.9788;}
	.st7{fill:none;stroke:#CCCCCC;stroke-width:4;stroke-linecap:round;stroke-linejoin:round;stroke-dasharray:0,14.7877;}
	.st8{fill:none;stroke:#CCCCCC;stroke-width:4;stroke-linecap:round;stroke-linejoin:round;stroke-dasharray:0,14.9632;}
	.st9{fill:#B3E3FF;stroke:#404040;stroke-width:4;stroke-miterlimit:10;}
	.st10{fill:#B3E3FF;stroke:#404040;stroke-width:4;stroke-linecap:round;stroke-linejoin:round;stroke-miterlimit:10;}
	.st11{fill:#404040;}
	.st12{fill:none;stroke:#404040;stroke-width:4;stroke-linecap:round;stroke-linejoin:round;stroke-miterlimit:10;}
	.st13{fill:none;stroke:#CCCCCC;stroke-width:4;stroke-linecap:round;stroke-linejoin:round;stroke-dasharray:0,12.543;}
	.st14{fill:none;stroke:#CCCCCC;stroke-width:4;stroke-linecap:round;stroke-linejoin:round;stroke-dasharray:0,13.6844;}
	.st15{fill:none;stroke:#CCCCCC;stroke-width:4;stroke-linecap:round;stroke-linejoin:round;stroke-dasharray:0,13.7717;}
	.st16{fill:none;stroke:#CCCCCC;stroke-width:4;stroke-linecap:round;stroke-linejoin:round;stroke-dasharray:0,13.6492;}
	.st17{fill:none;stroke:#CCCCCC;stroke-width:4;stroke-linecap:round;stroke-linejoin:round;stroke-dasharray:0,13.907;}
	.st18{fill:#4CD3D6;stroke:#404040;stroke-width:4;stroke-linecap:round;stroke-linejoin:round;stroke-miterlimit:10;}
	.st19{fill:#B18BE8;stroke:#404040;stroke-width:4;stroke-linecap:round;stroke-linejoin:round;stroke-miterlimit:10;}
	.st20{fill:#FC8363;stroke:#404040;stroke-width:4;stroke-linecap:round;stroke-linejoin:round;stroke-miterlimit:10;}
	.st21{fill:#4ED1A1;stroke:#404040;stroke-width:4;stroke-linecap:round;stroke-linejoin:round;stroke-miterlimit:10;}
	.st22{fill:#4CD3D6;stroke:#404040;stroke-width:4;stroke-linejoin:round;stroke-miterlimit:10;}
	.st23{fill:#414141;}
</style>
<path
   class="st0"
   d="m 552.4,329.9 c 0,-17 13.8,-30.8 30.8,-30.8"
   id="path4"
   inkscape:connector-curvature="0"
   style="fill:none;stroke:#404040;stroke-width:4;stroke-miterlimit:10" />
<path
   class="st0"
   d="m 382.1,329.9 c 0,-17 -13.8,-30.8 -30.8,-30.8 m -58.8,123 h 213.9"
   id="path6"
   inkscape:connector-curvature="0"
   style="fill:none;stroke:#404040;stroke-width:4;stroke-miterlimit:10" />
<circle
   class="st1"
   cx="443.79999"
   cy="422.09998"
   r="15.8"
   id="circle8"
   style="fill:#4ed1a1;stroke:#404040;stroke-width:4;stroke-miterlimit:10" />
<circle
   class="st1"
   cx="490.70001"
   cy="422.09998"
   r="15.8"
   id="circle10"
   style="fill:#4ed1a1;stroke:#404040;stroke-width:4;stroke-miterlimit:10" />
<circle
   class="st1"
   cx="370.5"
   cy="422.09998"
   r="15.8"
   id="circle12"
   style="fill:#4ed1a1;stroke:#404040;stroke-width:4;stroke-miterlimit:10" />
<path
   class="st0"
   d="M 904.2,299.1 H 307.9"
   id="path14"
   inkscape:connector-curvature="0"
   style="fill:none;stroke:#404040;stroke-width:4;stroke-miterlimit:10" />
<circle
   class="st2"
   cx="613.20001"
   cy="299.10001"
   r="15.8"
   id="circle16"
   style="fill:#b18be8;stroke:#404040;stroke-width:4;stroke-miterlimit:10" />
<circle
   class="st2"
   cx="443.79999"
   cy="299.10001"
   r="15.8"
   id="circle18"
   style="fill:#b18be8;stroke:#404040;stroke-width:4;stroke-miterlimit:10" />
<circle
   class="st2"
   cx="904.20001"
   cy="299.10001"
   r="15.8"
   id="circle20"
   style="fill:#b18be8;stroke:#404040;stroke-width:4;stroke-miterlimit:10" />
<path
   class="st0"
   d="m 382.1,329.9 c 0,17 13.8,30.8 30.8,30.8 H 520.8 M 212.9,145 c 0,17 13.8,30.8 30.8,30.8 H 261"
   id="path22"
   inkscape:connector-curvature="0"
   style="fill:none;stroke:#404040;stroke-width:4;stroke-miterlimit:10" />
<circle
   class="st1"
   cx="443.79999"
   cy="360.60001"
   r="15.8"
   id="circle24"
   style="fill:#4ed1a1;stroke:#404040;stroke-width:4;stroke-miterlimit:10" />
<circle
   class="st1"
   cx="490.70001"
   cy="360.60001"
   r="15.8"
   id="circle26"
   style="fill:#4ed1a1;stroke:#404040;stroke-width:4;stroke-miterlimit:10" />
<path
   class="st0"
   d="m 520.8,360.6 h 0.9 c 17,0 30.8,-13.8 30.8,-30.8"
   id="path28"
   inkscape:connector-curvature="0"
   style="fill:none;stroke:#404040;stroke-width:4;stroke-miterlimit:10" />
<path
   class="st3"
   d="M 185.2,176.1 H 149.5"
   id="path30"
   inkscape:connector-curvature="0"
   style="fill:none;stroke:#cccccc;stroke-width:4;stroke-linecap:round;stroke-linejoin:round;stroke-dasharray:0, 14.3051" />
<path
   class="st4"
   d="M 904.3,176.1"
   id="path32"
   inkscape:connector-curvature="0"
   style="fill:none;stroke:#cccccc;stroke-width:4;stroke-linecap:round;stroke-linejoin:round" />
<path
   class="st5"
   d="M 890.1,176.1 H 372.9"
   id="path34"
   inkscape:connector-curvature="0"
   style="fill:none;stroke:#cccccc;stroke-width:4;stroke-linecap:round;stroke-linejoin:round;stroke-dasharray:0, 14.1689" />
<path
   class="st4"
   d="M 673.5,237.6"
   id="path36"
   inkscape:connector-curvature="0"
   style="fill:none;stroke:#cccccc;stroke-width:4;stroke-linecap:round;stroke-linejoin:round" />
<path
   class="st6"
   d="M 659.5,237.6 H 149.3"
   id="path38"
   inkscape:connector-curvature="0"
   style="fill:none;stroke:#cccccc;stroke-width:4;stroke-linecap:round;stroke-linejoin:round;stroke-dasharray:0, 13.9788" />
<path
   class="st4"
   d="M 904.3,237.6"
   id="path40"
   inkscape:connector-curvature="0"
   style="fill:none;stroke:#cccccc;stroke-width:4;stroke-linecap:round;stroke-linejoin:round" />
<path
   class="st7"
   d="M 889.5,237.6 H 837.7"
   id="path42"
   inkscape:connector-curvature="0"
   style="fill:none;stroke:#cccccc;stroke-width:4;stroke-linecap:round;stroke-linejoin:round;stroke-dasharray:0, 14.7877" />
<path
   class="st4"
   d="M 904.2,114.6"
   id="path44"
   inkscape:connector-curvature="0"
   style="fill:none;stroke:#cccccc;stroke-width:4;stroke-linecap:round;stroke-linejoin:round" />
<path
   class="st8"
   d="M 889.3,114.6 H 807"
   id="path46"
   inkscape:connector-curvature="0"
   style="fill:none;stroke:#cccccc;stroke-width:4;stroke-linecap:round;stroke-linejoin:round;stroke-dasharray:0, 14.9632" />
<path
   class="st0"
   d="m 212.9,145.4 c 0,-17 -13.8,-30.8 -30.8,-30.8 M 339.7,145 c 0,17 -13.8,30.8 -30.8,30.8 h -48 m 78.8,-30.4 c 0,-17 13.8,-30.8 30.8,-30.8 m 30.7,184.5 c -17,0 -30.8,-13.8 -30.8,-30.8 v -61.8 m 0,0 c 0,-17 -13.8,-30.8 -30.8,-30.8"
   id="path48"
   inkscape:connector-curvature="0"
   style="fill:none;stroke:#404040;stroke-width:4;stroke-miterlimit:10" />
<circle
   class="st1"
   cx="276.70001"
   cy="422.09998"
   r="15.8"
   id="circle50"
   style="fill:#4ed1a1;stroke:#404040;stroke-width:4;stroke-miterlimit:10" />
<path
   class="st0"
   d="M 773,114.6 H 167.2"
   id="path52"
   inkscape:connector-curvature="0"
   style="fill:none;stroke:#404040;stroke-width:4;stroke-miterlimit:10" />
<circle
   transform="rotate(-0.86783891)"
   class="st9"
   cx="149.74785"
   cy="116.88571"
   id="ellipse54"
   r="15.800233"
   style="fill:#b3e3ff;stroke:#404040;stroke-width:4.00005865;stroke-miterlimit:10" />
<circle
   class="st9"
   cx="443.79999"
   cy="114.60001"
   r="15.8"
   id="circle56"
   style="fill:#b3e3ff;stroke:#404040;stroke-width:4;stroke-miterlimit:10" />
<circle
   class="st9"
   cx="773"
   cy="114.60001"
   r="15.8"
   id="circle58"
   style="fill:#b3e3ff;stroke:#404040;stroke-width:4;stroke-miterlimit:10" />
<path
   class="st10"
   d="m 131,9.1 h 42.5 V 46.6 H 131 Z"
   id="path60"
   inkscape:connector-curvature="0"
   style="fill:#b3e3ff;stroke:#404040;stroke-width:4;stroke-linecap:round;stroke-linejoin:round;stroke-miterlimit:10" />
<path
   class="st11"
   d="m 144.6,32.4 h -1.2 l -2.5,-6.3 h 1.4 l 1.8,4.8 1.8,-4.8 h 1.3 z m 4.7,-7.3 c 0.5,-0.8 1.4,-1.4 2.6,-1.4 1.2,0 2,0.5 2.6,1.4 0.6,0.8 0.8,1.9 0.8,3.1 0,1.2 -0.2,2.2 -0.8,3.1 -0.5,0.8 -1.4,1.4 -2.6,1.4 -1.2,0 -2,-0.5 -2.6,-1.4 -0.6,-0.8 -0.8,-1.9 -0.8,-3.1 0,-1.2 0.2,-2.3 0.8,-3.1 z m 1.2,5.8 c 0.3,0.3 0.7,0.5 1.3,0.5 0.6,0 1,-0.2 1.3,-0.5 0.5,-0.5 0.7,-1.4 0.7,-2.7 0,-1.3 -0.2,-2.2 -0.7,-2.7 -0.3,-0.3 -0.7,-0.5 -1.3,-0.5 -0.6,0 -1,0.2 -1.3,0.5 -0.5,0.5 -0.7,1.4 -0.7,2.7 0,1.3 0.2,2.1 0.7,2.7 z m 7.3,-0.3 c 0.5,0 0.9,0.4 0.9,0.9 0,0.5 -0.4,0.9 -0.9,0.9 -0.5,0 -0.9,-0.4 -0.9,-0.9 0,-0.5 0.4,-0.9 0.9,-0.9 z m 3.9,1.8 v -5.9 h -2 v -0.9 c 1.2,0 2,-0.7 2.2,-1.6 h 1.1 v 8.4 c 0,0 -1.3,0 -1.3,0 z"
   id="path62"
   inkscape:connector-curvature="0"
   style="fill:#404040" />
<path
   class="st12"
   d="M 152.3,80.7 V 63.1 m 8.2,11.1 -8.2,8.2 -8.1,-8.2"
   id="path64"
   inkscape:connector-curvature="0"
   style="fill:none;stroke:#404040;stroke-width:4;stroke-linecap:round;stroke-linejoin:round;stroke-miterlimit:10" />
<path
   class="st10"
   d="m 422.6,9.1 h 42.5 v 37.5 h -42.5 z"
   id="path66"
   inkscape:connector-curvature="0"
   style="fill:#b3e3ff;stroke:#404040;stroke-width:4;stroke-linecap:round;stroke-linejoin:round;stroke-miterlimit:10" />
<path
   class="st11"
   d="m 434.5,32.4 h -1.2 l -2.5,-6.3 h 1.4 l 1.8,4.8 1.8,-4.8 h 1.3 z m 4.7,-7.3 c 0.5,-0.8 1.4,-1.4 2.6,-1.4 1.2,0 2,0.5 2.6,1.4 0.6,0.8 0.8,1.9 0.8,3.1 0,1.2 -0.2,2.2 -0.8,3.1 -0.5,0.8 -1.4,1.4 -2.6,1.4 -1.2,0 -2,-0.5 -2.6,-1.4 -0.6,-0.8 -0.8,-1.9 -0.8,-3.1 0,-1.2 0.2,-2.3 0.8,-3.1 z m 1.2,5.8 c 0.3,0.3 0.7,0.5 1.3,0.5 0.6,0 1,-0.2 1.3,-0.5 0.5,-0.5 0.7,-1.4 0.7,-2.7 0,-1.3 -0.2,-2.2 -0.7,-2.7 -0.3,-0.3 -0.7,-0.5 -1.3,-0.5 -0.6,0 -1,0.2 -1.3,0.5 -0.5,0.5 -0.7,1.4 -0.7,2.7 0,1.3 0.2,2.1 0.7,2.7 z m 7.3,-0.3 c 0.5,0 0.9,0.4 0.9,0.9 0,0.5 -0.4,0.9 -0.9,0.9 -0.5,0 -0.9,-0.4 -0.9,-0.9 0,-0.5 0.4,-0.9 0.9,-0.9 z m 3,-3.8 v -0.3 c 0,-1.4 1.1,-2.7 2.9,-2.7 1.8,0 2.8,1.2 2.8,2.6 0,1.1 -0.6,2 -1.6,2.6 l -1.7,1.1 c -0.5,0.3 -0.9,0.7 -1,1.2 h 4.3 v 1.2 h -5.9 c 0,-1.4 0.6,-2.4 2,-3.4 l 1.4,-0.9 c 0.8,-0.5 1.2,-1.1 1.2,-1.8 0,-0.8 -0.5,-1.5 -1.6,-1.5 -1.1,0 -1.6,0.8 -1.6,1.7 V 27 Z"
   id="path68"
   inkscape:connector-curvature="0"
   style="fill:#404040" />
<path
   class="st12"
   d="M 443.8,80.7 V 63.1 m 8.2,11.1 -8.2,8.2 -8.1,-8.2"
   id="path70"
   inkscape:connector-curvature="0"
   style="fill:none;stroke:#404040;stroke-width:4;stroke-linecap:round;stroke-linejoin:round;stroke-miterlimit:10" />
<path
   class="st10"
   d="m 751.8,9.1 h 42.5 v 37.5 h -42.5 z"
   id="path72"
   inkscape:connector-curvature="0"
   style="fill:#b3e3ff;stroke:#404040;stroke-width:4;stroke-linecap:round;stroke-linejoin:round;stroke-miterlimit:10" />
<path
   class="st11"
   d="m 764.8,32.4 h -1.2 l -2.5,-6.3 h 1.4 l 1.8,4.8 1.8,-4.8 h 1.3 z m 5.6,0 v -5.9 h -2 v -0.9 c 1.2,0 2,-0.7 2.2,-1.6 h 1.1 v 8.4 z m 4.6,-1.8 c 0.5,0 0.9,0.4 0.9,0.9 0,0.5 -0.4,0.9 -0.9,0.9 -0.5,0 -0.9,-0.4 -0.9,-0.9 0,-0.5 0.4,-0.9 0.9,-0.9 z m 3.6,-5.5 c 0.5,-0.8 1.4,-1.4 2.6,-1.4 1.2,0 2,0.5 2.6,1.4 0.6,0.8 0.8,1.9 0.8,3.1 0,1.2 -0.2,2.2 -0.8,3.1 -0.5,0.8 -1.4,1.4 -2.6,1.4 -1.2,0 -2,-0.5 -2.6,-1.4 -0.6,-0.8 -0.8,-1.9 -0.8,-3.1 0,-1.2 0.3,-2.3 0.8,-3.1 z m 1.3,5.8 c 0.3,0.3 0.7,0.5 1.3,0.5 0.6,0 1,-0.2 1.3,-0.5 0.5,-0.5 0.7,-1.4 0.7,-2.7 0,-1.3 -0.2,-2.2 -0.7,-2.7 -0.3,-0.3 -0.7,-0.5 -1.3,-0.5 -0.6,0 -1,0.2 -1.3,0.5 -0.5,0.5 -0.7,1.4 -0.7,2.7 0,1.3 0.2,2.1 0.7,2.7 z"
   id="path74"
   inkscape:connector-curvature="0"
   style="fill:#404040" />
<path
   class="st12"
   d="M 773,80.7 V 63.1 m 8.2,11.1 -8.2,8.2 -8.1,-8.2"
   id="path76"
   inkscape:connector-curvature="0"
   style="fill:none;stroke:#404040;stroke-width:4;stroke-linecap:round;stroke-linejoin:round;stroke-miterlimit:10" />
<path
   class="st13"
   d="M 192.5,299.1 H 148.6"
   id="path78"
   inkscape:connector-curvature="0"
   style="fill:none;stroke:#cccccc;stroke-width:4;stroke-linecap:round;stroke-linejoin:round;stroke-dasharray:0, 12.543" />
<path
   class="st4"
   d="M 388.6,360.6"
   id="path80"
   inkscape:connector-curvature="0"
   style="fill:none;stroke:#cccccc;stroke-width:4;stroke-linecap:round;stroke-linejoin:round" />
<path
   class="st14"
   d="M 374.9,360.6 H 149.2"
   id="path82"
   inkscape:connector-curvature="0"
   style="fill:none;stroke:#cccccc;stroke-width:4;stroke-linecap:round;stroke-linejoin:round;stroke-dasharray:0, 13.6844" />
<path
   class="st4"
   d="M 904.3,360.6"
   id="path84"
   inkscape:connector-curvature="0"
   style="fill:none;stroke:#cccccc;stroke-width:4;stroke-linecap:round;stroke-linejoin:round" />
<path
   class="st15"
   d="M 890.5,360.6 H 553.1"
   id="path86"
   inkscape:connector-curvature="0"
   style="fill:none;stroke:#cccccc;stroke-width:4;stroke-linecap:round;stroke-linejoin:round;stroke-dasharray:0, 13.7717" />
<path
   class="st4"
   d="M 251.5,422.1"
   id="path88"
   inkscape:connector-curvature="0"
   style="fill:none;stroke:#cccccc;stroke-width:4;stroke-linecap:round;stroke-linejoin:round" />
<path
   class="st16"
   d="M 237.9,422.1 H 149.1"
   id="path90"
   inkscape:connector-curvature="0"
   style="fill:none;stroke:#cccccc;stroke-width:4;stroke-linecap:round;stroke-linejoin:round;stroke-dasharray:0, 13.6492" />
<path
   class="st4"
   d="M 904.3,422.1"
   id="path92"
   inkscape:connector-curvature="0"
   style="fill:none;stroke:#cccccc;stroke-width:4;stroke-linecap:round;stroke-linejoin:round" />
<path
   class="st17"
   d="M 890.3,422.1 H 521.8"
   id="path94"
   inkscape:connector-curvature="0"
   style="fill:none;stroke:#cccccc;stroke-width:4;stroke-linecap:round;stroke-linejoin:round;stroke-dasharray:0, 13.907" />
<path
   class="st18"
   d="M 9.2803556,212.25339 H 105.48035 v 50 H 9.2803556 Z"
   id="path96"
   inkscape:connector-curvature="0"
   style="fill:#4cd3d6;stroke:#404040;stroke-width:4;stroke-linecap:round;stroke-linejoin:round;stroke-miterlimit:10" />
<path
   class="st11"
   d="m 34.580357,238.85339 h -1.6 v 4.3 h -1.5 v -10.5 h 4 c 2,0 3.3,1.4 3.3,3.2 0,1.5 -1,2.7 -2.6,3 l 2.5,4.5 h -1.7 z m 0.7,-1.3 c 1.2,0 2,-0.7 2,-1.8 0,-1.1 -0.8,-1.8 -2,-1.8 h -2.2 v 3.6 c 0,0 2.2,0 2.2,0 z m 12.099998,3.6 c -0.4,1.3 -1.6,2.3 -3.2,2.3 -1.9,0 -3.599998,-1.4 -3.599998,-3.9 0,-2.3 1.599998,-3.8 3.499998,-3.8 2.2,0 3.5,1.5 3.5,3.8 v 0.5 h -5.4 c 0,1.3 1,2.2 2.2,2.2 1.2,0 1.8,-0.6 2,-1.5 z m -1.4,-2.3 c 0,-1 -0.7,-1.8 -2,-1.8 -1.2,0 -1.9,0.9 -2,1.8 z m 4,4.4 v -10.9 h 1.4 v 10.9 z m 10.9,-2.1 c -0.4,1.3 -1.6,2.3 -3.2,2.3 -1.9,0 -3.6,-1.4 -3.6,-3.9 0,-2.3 1.6,-3.8 3.5,-3.8 2.2,0 3.5,1.5 3.5,3.8 v 0.5 h -5.4 c 0,1.3 1,2.2 2.2,2.2 1.2,0 1.8,-0.6 2,-1.5 z m -1.4,-2.3 c 0,-1 -0.7,-1.8 -2,-1.8 -1.2,0 -1.9,0.9 -2,1.8 z m 5.7,0.3 2,-0.3 c 0.4,-0.1 0.6,-0.3 0.6,-0.5 0,-0.7 -0.5,-1.3 -1.6,-1.3 -1,0 -1.5,0.6 -1.6,1.5 l -1.4,-0.3 c 0.2,-1.4 1.4,-2.3 3,-2.3 2.2,0 3,1.2 3,2.6 v 3.5 c 0,0.6 0.1,1 0.1,1.2 h -1.5 c 0,-0.2 -0.1,-0.5 -0.1,-1 -0.3,0.5 -1,1.2 -2.3,1.2 -1.5,0 -2.4,-1 -2.4,-2.2 0,-1.2 1,-2 2.2,-2.1 z m 2.5,1 v -0.3 l -2.2,0.3 c -0.6,0.1 -1,0.4 -1,1.1 0,0.5 0.5,1 1.2,1 1.1,0 2,-0.5 2,-2.1 z m 5,0.8 c 0.1,0.8 0.7,1.3 1.7,1.3 0.8,0 1.2,-0.5 1.2,-1 0,-0.4 -0.3,-0.8 -0.9,-0.9 l -1.2,-0.3 c -1.1,-0.2 -1.8,-1 -1.8,-2 0,-1.2 1.2,-2.3 2.6,-2.3 2,0 2.6,1.3 2.7,1.9 l -1.2,0.5 c -0.1,-0.4 -0.4,-1.2 -1.5,-1.2 -0.7,0 -1.2,0.5 -1.2,1 0,0.4 0.3,0.8 0.8,0.9 l 1.2,0.3 c 1.3,0.3 2,1.1 2,2.1 0,1 -0.9,2.2 -2.6,2.2 -2,0 -2.8,-1.3 -2.9,-2.1 z m 13.1,0.2 c -0.4,1.3 -1.6,2.3 -3.2,2.3 -1.9,0 -3.6,-1.4 -3.6,-3.9 0,-2.3 1.6,-3.8 3.5,-3.8 2.2,0 3.5,1.5 3.5,3.8 v 0.5 h -5.4 c 0,1.3 1,2.2 2.2,2.2 1.2,0 1.8,-0.6 2,-1.5 z m -1.4,-2.3 c 0,-1 -0.7,-1.8 -2,-1.8 -1.2,0 -1.9,0.9 -2,1.8 z"
   id="path98"
   inkscape:connector-curvature="0"
   style="fill:#404040" />
<path
   class="st19"
   d="m 9.22866,273.61886 h 96.2 v 50 h -96.2 z"
   id="path100"
   inkscape:connector-curvature="0"
   style="fill:#b18be8;stroke:#404040;stroke-width:4;stroke-linecap:round;stroke-linejoin:round;stroke-miterlimit:10" />
<path
   class="st11"
   d="m 29.62866,304.61886 v -10.6 h 3.7 c 2.7,0 5.1,1.8 5.1,5.3 0,3.5 -2.4,5.3 -5.1,5.3 z m 3.6,-1.3 c 2,0 3.6,-1.3 3.6,-4 0,-2.7 -1.6,-4 -3.6,-4 h -2.2 v 8 z m 14,-0.8 c -0.4,1.3 -1.6,2.3 -3.2,2.3 -1.9,0 -3.6,-1.4 -3.6,-3.9 0,-2.3 1.6,-3.8 3.4,-3.8 2.2,0 3.5,1.5 3.5,3.8 v 0.5 h -5.4 c 0,1.3 1,2.2 2.2,2.2 1.2,0 1.8,-0.6 2,-1.5 z m -1.4,-2.3 c 0,-1 -0.7,-1.8 -2,-1.8 -1.2,0 -1.9,0.9 -2,1.8 z m 7.5,4.4 h -1.4 l -3,-7.2 h 1.6 l 2.1,5.6 2.1,-5.6 h 1.5 z m 10.7,-2.1 c -0.4,1.3 -1.6,2.3 -3.2,2.3 -1.9,0 -3.6,-1.4 -3.6,-3.9 0,-2.3 1.6,-3.8 3.5,-3.8 2.2,0 3.5,1.5 3.5,3.8 v 0.5 h -5.4 c 0,1.3 1,2.2 2.2,2.2 1.2,0 1.8,-0.6 2,-1.5 z m -1.4,-2.3 c 0,-1 -0.7,-1.8 -2,-1.8 -1.2,0 -1.9,0.9 -2,1.8 z m 4,4.4 v -10.9 h 1.4 v 10.9 z m 11.4,-3.6 c 0,2.2 -1.5,3.8 -3.7,3.8 -2.2,0 -3.7,-1.6 -3.7,-3.8 0,-2.2 1.5,-3.8 3.7,-3.8 2.1,-0.1 3.7,1.6 3.7,3.8 z m -1.5,0 c 0,-1.7 -1,-2.6 -2.2,-2.6 -1.2,0 -2.2,0.9 -2.2,2.6 0,1.7 1,2.6 2.2,2.6 1.2,0 2.2,-1 2.2,-2.6 z m 4,6.4 v -10 h 1.4 v 1.1 c 0.4,-0.7 1.2,-1.3 2.4,-1.3 2.2,0 3.3,1.7 3.3,3.8 0,2.1 -1.2,3.8 -3.4,3.8 -1.1,0 -2,-0.5 -2.3,-1.2 v 3.8 z m 3.5,-8.9 c -1.3,0 -2.1,1.1 -2.1,2.5 0,1.5 0.9,2.6 2.1,2.6 1.3,0 2.1,-1.1 2.1,-2.6 0.1,-1.5 -0.7,-2.5 -2.1,-2.5 z"
   id="path102"
   inkscape:connector-curvature="0"
   style="fill:#404040" />
<path
   class="st20"
   d="m 8.46419,150.74237 h 96.20001 v 50 H 8.46419 Z"
   id="path104"
   inkscape:connector-curvature="0"
   style="fill:#fc8363;stroke:#404040;stroke-width:4;stroke-linecap:round;stroke-linejoin:round;stroke-miterlimit:10" />
<path
   class="st11"
   d="m 43.56419,181.13432 v -4.7 h -5.4 v 4.7 h -1.5 v -10.6 h 1.5 v 4.5 h 5.4 v -4.5 h 1.5 v 10.6 z m 11.50001,-3.6 c 0,2.2 -1.50001,3.8 -3.70001,3.8 -2.2,0 -3.7,-1.6 -3.7,-3.8 0,-2.2 1.5,-3.8 3.7,-3.8 2.2,-0.1 3.70001,1.6 3.70001,3.8 z m -1.40001,0 c 0,-1.7 -1,-2.6 -2.2,-2.6 -1.2,0 -2.2,0.9 -2.2,2.6 0,1.7 1,2.6 2.2,2.6 1.2,0 2.2,-1 2.2,-2.6 z m 5.80001,-3.6 h 1.6 v 1.3 h -1.6 v 3.7 c 0,0.7 0.3,1 1,1 0.2,0 0.4,0 0.6,-0.1 v 1.2 c -0.1,0 -0.5,0.1 -1,0.1 -1.2,0 -2,-0.8 -2,-2.1 v -4 h -1.4 v -1.1 h 0.4 c 0.8,0 1.1,-0.5 1.1,-1.1 v -1.2 h 1.3 z m 7.8,-3.6 v 1.3 c -0.1,0 -0.3,-0.1 -0.6,-0.1 -0.5,0 -1.1,0.2 -1.1,1.2 v 1.2 h 4.8 v 7.2 h -1.4 v -5.9 h -3.4 v 5.9 h -1.5 v -5.9 h -1.3 v -1.3 h 1.3 v -1.2 c 0,-1.6 1.1,-2.5 2.4,-2.5 0.4,0 0.7,0.1 0.8,0.1 z m 2.3,-0.2 c 0.6,0 1,0.4 1,1 0,0.6 -0.5,1 -1,1 -0.6,0 -1,-0.5 -1,-1 0,-0.6 0.5,-1 1,-1 z m 5.5,7.3 -2.6,-3.5 h 1.7 l 1.8,2.5 1.7,-2.5 h 1.7 l -2.6,3.5 c 0.4,0.6 2.2,3.1 2.7,3.7 h -1.7 l -1.9,-2.7 -1.8,2.7 h -1.7 z"
   id="path106"
   inkscape:connector-curvature="0"
   style="fill:#404040" />
<path
   class="st21"
   d="m 9.323153,397.13368 h 96.199997 v 50 H 9.323153 Z"
   id="path108"
   inkscape:connector-curvature="0"
   style="fill:#4ed1a1;stroke:#404040;stroke-width:4;stroke-linecap:round;stroke-linejoin:round;stroke-miterlimit:10" />
<path
   class="st11"
   d="m 31.823153,427.63368 v -10.6 h 6.499998 v 1.4 h -5 v 3.4 h 4.5 v 1.4 h -4.5 v 4.5 z m 14.699998,-2.1 c -0.4,1.3 -1.6,2.3 -3.2,2.3 -1.9,0 -3.6,-1.4 -3.6,-3.9 0,-2.3 1.6,-3.8 3.5,-3.8 2.2,0 3.5,1.5 3.5,3.8 v 0.5 h -5.4 c 0,1.3 1,2.2 2.2,2.2 1.2,0 1.8,-0.6 2,-1.5 z m -1.5,-2.3 c 0,-1 -0.7,-1.8 -2,-1.8 -1.2,0 -1.9,0.9 -2,1.8 z m 5.8,0.3 2,-0.3 c 0.4,-0.1 0.6,-0.3 0.6,-0.5 0,-0.7 -0.5,-1.3 -1.6,-1.3 -1,0 -1.5,0.6 -1.6,1.5 l -1.3,-0.3 c 0.2,-1.4 1.4,-2.3 3,-2.3 2.2,0 3,1.2 3,2.6 v 3.6 c 0,0.6 0.1,1 0.1,1.2 h -1.4 c 0,-0.2 -0.1,-0.5 -0.1,-1 -0.3,0.5 -1,1.2 -2.3,1.2 -1.5,0 -2.4,-1 -2.4,-2.2 -0.2,-1.3 0.7,-2.1 2,-2.2 z m 2.5,1 v -0.3 l -2.2,0.3 c -0.6,0.1 -1,0.4 -1,1.1 0,0.5 0.5,1 1.2,1 1.1,0 2,-0.5 2,-2.1 z m 6.2,-4.1 h 1.599999 v 1.3 h -1.599999 v 3.8 c 0,0.7 0.3,1 0.999999,1 0.2,0 0.4,0 0.6,-0.1 v 1.2 c -0.1,0 -0.5,0.1 -1,0.1 -1.199999,0 -1.999999,-0.8 -1.999999,-2.1 v -4 h -1.4 v -1.3 h 0.4 c 0.8,0 1.1,-0.5 1.1,-1.1 v -1.2 h 1.3 z m 6.799999,7.4 c -1.7,0 -2.7,-1.3 -2.7,-2.9 v -4.5 h 1.4 v 4.3 c 0,1 0.5,1.9 1.6,1.9 1.1,0 1.7,-0.8 1.7,-1.8 v -4.3 h 1.4 v 5.9 c 0,0.6 0,1.1 0.1,1.3 h -1.3 c 0,-0.2 -0.1,-0.6 -0.1,-0.9 -0.3,0.7 -1.2,1 -2.1,1 z m 10.7,-6 h -0.6 c -1.2,0 -2,0.6 -2,2.2 v 3.6 h -1.4 v -7.2 h 1.4 v 1.3 c 0.5,-1.1 1.4,-1.4 2.2,-1.4 h 0.5 v 1.5 z m 8.4,3.7 c -0.4,1.3 -1.6,2.3 -3.2,2.3 -1.9,0 -3.6,-1.4 -3.6,-3.9 0,-2.3 1.6,-3.8 3.5,-3.8 2.2,0 3.5,1.5 3.5,3.8 v 0.5 h -5.4 c 0,1.3 1,2.2 2.2,2.2 1.2,0 1.8,-0.6 2,-1.5 z m -1.4,-2.3 c 0,-1 -0.7,-1.8 -2,-1.8 -1.2,0 -1.9,0.9 -2,1.8 z"
   id="path110"
   inkscape:connector-curvature="0"
   style="fill:#404040" />
<path
   class="st21"
   d="m 8.939407,335.55508 h 96.200003 v 50 H 8.939407 Z"
   id="path112"
   inkscape:connector-curvature="0"
   style="fill:#4ed1a1;stroke:#404040;stroke-width:4;stroke-linecap:round;stroke-linejoin:round;stroke-miterlimit:10" />
<path
   class="st11"
   d="m 31.539407,366.05508 v -10.6 h 6.5 v 1.4 h -5 v 3.4 h 4.5 v 1.4 h -4.5 v 4.5 z m 14.6,-2.1 c -0.4,1.3 -1.6,2.3 -3.2,2.3 -1.9,0 -3.6,-1.4 -3.6,-3.9 0,-2.3 1.6,-3.8 3.4,-3.8 2.2,0 3.5,1.5 3.5,3.8 v 0.5 h -5.4 c 0,1.3 1,2.2 2.2,2.2 1.2,0 1.8,-0.6 2,-1.5 z m -1.4,-2.3 c 0,-1 -0.7,-1.8 -2,-1.8 -1.2,0 -1.9,0.9 -2,1.8 z m 5.8,0.3 1.9,-0.3 c 0.4,-0.1 0.6,-0.3 0.6,-0.5 0,-0.7 -0.5,-1.3 -1.6,-1.3 -1,0 -1.5,0.6 -1.6,1.5 l -1.4,-0.3 c 0.2,-1.4 1.4,-2.3 3,-2.3 2.2,0 3,1.2 3,2.6 v 3.6 c 0,0.6 0.1,1 0.1,1.2 h -1.4 c 0,-0.2 -0.1,-0.5 -0.1,-1 -0.3,0.5 -1,1.2 -2.3,1.2 -1.5,0 -2.4,-1 -2.4,-2.2 0,-1.3 0.9,-2.1 2.2,-2.2 z m 2.5,1 v -0.3 l -2.2,0.3 c -0.6,0.1 -1,0.4 -1,1.1 0,0.5 0.4,1 1.2,1 1,0 2,-0.5 2,-2.1 z m 6.2,-4.1 h 1.600003 v 1.3 h -1.600003 v 3.8 c 0,0.7 0.3,1 1.000003,1 0.2,0 0.4,0 0.6,-0.1 v 1.2 c -0.1,0 -0.5,0.1 -1.000003,0.1 -1.2,0 -2,-0.8 -2,-2.1 v -4 h -1.4 v -1.3 h 0.4 c 0.8,0 1.1,-0.5 1.1,-1.1 v -1.2 h 1.3 z m 6.800003,7.4 c -1.7,0 -2.7,-1.3 -2.7,-2.9 v -4.5 h 1.4 v 4.3 c 0,1 0.5,1.9 1.6,1.9 1.1,0 1.7,-0.8 1.7,-1.8 v -4.3 h 1.4 v 5.9 c 0,0.6 0,1.1 0.1,1.3 h -1.3 c 0,-0.2 -0.1,-0.6 -0.1,-0.9 -0.3,0.7 -1.2,1 -2.1,1 z m 10.6,-6 h -0.6 c -1.2,0 -2,0.6 -2,2.2 v 3.6 h -1.4 v -7.2 h 1.4 v 1.3 c 0.5,-1.1 1.4,-1.4 2.2,-1.4 h 0.5 v 1.5 z m 8.5,3.7 c -0.4,1.3 -1.6,2.3 -3.2,2.3 -1.9,0 -3.6,-1.4 -3.6,-3.9 0,-2.3 1.6,-3.8 3.5,-3.8 2.2,0 3.5,1.5 3.5,3.8 v 0.5 h -5.4 c 0,1.3 1,2.2 2.2,2.2 1.2,0 1.8,-0.6 2,-1.5 z m -1.4,-2.3 c 0,-1 -0.7,-1.8 -2,-1.8 -1.2,0 -1.9,0.9 -2,1.8 z"
   id="path114"
   inkscape:connector-curvature="0"
   style="fill:#404040" />
<path
   class="st0"
   d="m 212.9,145 v 123.4 c 0,17 13.8,30.8 30.8,30.8 h 95.7"
   id="path116"
   inkscape:connector-curvature="0"
   style="fill:none;stroke:#404040;stroke-width:4;stroke-miterlimit:10" />
<circle
   class="st2"
   cx="323.60001"
   cy="299.10001"
   r="15.7"
   id="circle118"
   style="fill:#b18be8;stroke:#404040;stroke-width:4;stroke-miterlimit:10" />
<circle
   class="st2"
   cx="276.70001"
   cy="299.10001"
   r="15.8"
   id="circle120"
   style="fill:#b18be8;stroke:#404040;stroke-width:4;stroke-miterlimit:10" />
<circle
   class="st20"
   cx="276.70001"
   cy="176.10001"
   r="15.8"
   id="circle122"
   style="fill:#fc8363;stroke:#404040;stroke-width:4;stroke-linecap:round;stroke-linejoin:round;stroke-miterlimit:10" />
<path
   class="st0"
   d="m 664.5,268.4 c 0,17 -13.8,30.8 -30.8,30.8 m 201,-30.8 c 0,17 13.8,30.8 30.8,30.8 h 23 M 696.1,237.6 h -0.9 c -17,0 -30.8,13.8 -30.8,30.8 m 170.3,0 c 0,-17 -13.8,-30.8 -30.8,-30.8 H 696.1"
   id="path124"
   inkscape:connector-curvature="0"
   style="fill:none;stroke:#404040;stroke-width:4;stroke-miterlimit:10" />
<circle
   class="st22"
   cx="773"
   cy="237.60001"
   r="15.8"
   id="circle126"
   style="fill:#4cd3d6;stroke:#404040;stroke-width:4;stroke-linejoin:round;stroke-miterlimit:10" />
<circle
   class="st22"
   cx="726.20001"
   cy="237.60001"
   r="15.8"
   id="circle128"
   style="fill:#4cd3d6;stroke:#404040;stroke-width:4;stroke-linejoin:round;stroke-miterlimit:10" />
<path
   class="st0"
   d="m 276.7,314.9 v 91.5 m 15.8,-230.7 h 47.2 M 773,221.9 v -91.5"
   id="path130"
   inkscape:connector-curvature="0"
   style="fill:none;stroke:#404040;stroke-width:4;stroke-miterlimit:10" />
<g
   id="g144"
   transform="translate(0.95339,84.65678)">
	<path
   class="st10"
   d="m 8,5.2 h 96.2 v 50 H 8 Z"
   id="path132"
   inkscape:connector-curvature="0"
   style="fill:#b3e3ff;stroke:#404040;stroke-width:4;stroke-linecap:round;stroke-linejoin:round;stroke-miterlimit:10" />
	<g
   id="g142">
		<path
   class="st23"
   d="m 40.9,36.3 v -10 h 2 l 2.4,7.1 c 0.2,0.7 0.4,1.2 0.5,1.5 0.1,-0.4 0.3,-0.9 0.5,-1.6 l 2.4,-7 h 1.8 v 10 h -1.3 v -8.4 l -2.9,8.4 h -1.2 l -2.9,-8.5 v 8.5 z"
   id="path134"
   inkscape:connector-curvature="0"
   style="fill:#414141" />
		<path
   class="st23"
   d="m 57.9,35.4 c -0.5,0.4 -0.9,0.7 -1.3,0.8 -0.4,0.2 -0.9,0.2 -1.4,0.2 -0.8,0 -1.4,-0.2 -1.8,-0.6 -0.4,-0.4 -0.6,-0.9 -0.6,-1.5 0,-0.4 0.1,-0.7 0.2,-1 0.2,-0.3 0.4,-0.5 0.6,-0.7 0.3,-0.2 0.6,-0.3 0.9,-0.4 0.2,-0.1 0.6,-0.1 1.1,-0.2 1,-0.1 1.7,-0.3 2.2,-0.4 0,-0.2 0,-0.3 0,-0.3 0,-0.5 -0.1,-0.9 -0.3,-1.1 -0.3,-0.3 -0.8,-0.4 -1.4,-0.4 -0.6,0 -1,0.1 -1.3,0.3 -0.3,0.2 -0.5,0.6 -0.6,1.1 L 53,31 c 0.1,-0.5 0.3,-0.9 0.5,-1.2 0.3,-0.3 0.6,-0.6 1.1,-0.7 0.5,-0.2 1,-0.3 1.6,-0.3 0.6,0 1.1,0.1 1.5,0.2 0.4,0.1 0.7,0.3 0.9,0.6 0.2,0.2 0.3,0.5 0.4,0.8 0,0.2 0.1,0.6 0.1,1.1 v 1.6 c 0,1.1 0,1.9 0.1,2.2 0.1,0.3 0.2,0.6 0.3,0.9 H 58.2 C 58,36.1 57.9,35.8 57.9,35.4 Z m -0.1,-2.7 c -0.4,0.2 -1.1,0.3 -2,0.5 -0.5,0.1 -0.9,0.2 -1.1,0.2 -0.2,0 -0.4,0.2 -0.5,0.4 -0.1,0.2 -0.2,0.4 -0.2,0.6 0,0.3 0.1,0.6 0.4,0.8 0.2,0.2 0.6,0.3 1.1,0.3 0.5,0 0.9,-0.1 1.3,-0.3 0.4,-0.2 0.6,-0.5 0.8,-0.9 0.1,-0.3 0.2,-0.7 0.2,-1.2 z"
   id="path136"
   inkscape:connector-curvature="0"
   style="fill:#414141" />
		<path
   class="st23"
   d="m 61.6,27.7 v -1.4 h 1.2 v 1.4 z m 0,8.6 V 29 h 1.2 v 7.3 z"
   id="path138"
   inkscape:connector-curvature="0"
   style="fill:#414141" />
		<path
   class="st23"
   d="M 65.4,36.3 V 29 h 1.1 v 1 c 0.5,-0.8 1.3,-1.2 2.3,-1.2 0.4,0 0.8,0.1 1.2,0.2 0.4,0.2 0.6,0.4 0.8,0.6 0.2,0.2 0.3,0.6 0.4,0.9 0,0.2 0.1,0.6 0.1,1.2 v 4.5 h -1.2 v -4.4 c 0,-0.5 0,-0.9 -0.1,-1.1 -0.1,-0.2 -0.3,-0.4 -0.5,-0.6 -0.2,-0.1 -0.5,-0.2 -0.9,-0.2 -0.5,0 -1,0.2 -1.4,0.5 -0.4,0.3 -0.6,1 -0.6,1.9 v 4 z"
   id="path140"
   inkscape:connector-curvature="0"
   style="fill:#414141" />
	</g>
</g>
</svg>