<?xml version="1.0" encoding="UTF-8" standalone="no"?>
<!-- Generator: Adobe Illustrator 25.2.3, SVG Export Plug-In . SVG Version: 6.00 Build 0)  -->

<svg
   xmlns:dc="http://purl.org/dc/elements/1.1/"
   xmlns:cc="http://creativecommons.org/ns#"
   xmlns:rdf="http://www.w3.org/1999/02/22-rdf-syntax-ns#"
   xmlns:svg="http://www.w3.org/2000/svg"
   xmlns="http://www.w3.org/2000/svg"
   xmlns:sodipodi="http://sodipodi.sourceforge.net/DTD/sodipodi-0.dtd"
   xmlns:inkscape="http://www.inkscape.org/namespaces/inkscape"
   inkscape:version="0.92.5 (2060ec1f9f, 2020-04-08)"
   height="769"
   width="724"
   sodipodi:docname="three-way-merge-2.svg"
   xml:space="preserve"
   viewBox="0 0 724 769"
   y="0px"
   x="0px"
   id="Lager_1"
   version="1.1"><metadata
   id="metadata444"><rdf:RDF><cc:Work
       rdf:about=""><dc:format>image/svg+xml</dc:format><dc:type
         rdf:resource="http://purl.org/dc/dcmitype/StillImage" /><dc:title /></cc:Work></rdf:RDF></metadata><defs
   id="defs442" /><sodipodi:namedview
   pagecolor="#ffffff"
   bordercolor="#666666"
   borderopacity="1"
   objecttolerance="10"
   gridtolerance="10"
   guidetolerance="10"
   inkscape:pageopacity="0"
   inkscape:pageshadow="2"
   inkscape:window-width="1920"
   inkscape:window-height="966"
   id="namedview440"
   showgrid="false"
   inkscape:zoom="4.8414056"
   inkscape:cx="219.86125"
   inkscape:cy="210.18724"
   inkscape:window-x="0"
   inkscape:window-y="27"
   inkscape:window-maximized="1"
   inkscape:current-layer="Lager_1" />
<style
   type="text/css"
   id="style361">
	.st0{fill:#999999;}
	.st1{fill:none;stroke:#404040;stroke-width:4;stroke-linecap:round;stroke-linejoin:round;stroke-miterlimit:10;}
	.st2{fill:#FFFFFF;stroke:#404040;stroke-width:4;stroke-linecap:round;stroke-linejoin:round;stroke-miterlimit:10;}
	.st3{fill:#59AFE1;stroke:#404040;stroke-width:4;stroke-linejoin:round;stroke-miterlimit:10;}
	.st4{fill:#B18BE8;stroke:#404040;stroke-width:4;stroke-linecap:round;stroke-linejoin:round;stroke-miterlimit:10;}
	.st5{fill:#404040;}
	.st6{fill:#FFFFFF;stroke:#404040;stroke-width:4.0001;stroke-linecap:round;stroke-linejoin:round;stroke-miterlimit:10.0002;}
	.st7{fill:#59AFE1;stroke:#404040;stroke-width:4.0001;stroke-linejoin:round;stroke-miterlimit:10.0002;}
	.st8{fill:none;stroke:#CCCCCC;stroke-linecap:round;stroke-linejoin:round;stroke-miterlimit:10;}
	.st9{fill:#B3E3FF;stroke:#404040;stroke-width:4;stroke-linecap:round;stroke-linejoin:round;stroke-miterlimit:10;}
	.st10{fill:#414141;}
</style>

<path
   class="st1"
   d="m 664.9,666.7 v 23.5 m -10.8,-14.8 10.8,-10.8 10.9,10.8 m -183,-135.3 h -83 41.2 m -196.2,82 h 369.1 m -327.8,-41 c 0,22.6 -18.4,41 -41,41 H 53 m 243.1,-41 c 0,-22.6 18.4,-41 41,-41 h 30.7 m 196.9,41 c 0,22.6 18.4,41 41,41 h 60.2 m -101.2,-41 c 0,-22.6 -18.4,-41 -41,-41 H 493"
   id="path365"
   inkscape:connector-curvature="0"
   style="fill:none;stroke:#404040;stroke-width:4;stroke-linecap:round;stroke-linejoin:round;stroke-miterlimit:10" />
<circle
   class="st2"
   cx="198.5"
   cy="622.09998"
   r="21"
   id="circle367"
   style="fill:#ffffff;stroke:#404040;stroke-width:4;stroke-linecap:round;stroke-linejoin:round;stroke-miterlimit:10" />
<circle
   class="st2"
   cx="115.2"
   cy="622.09998"
   r="21"
   id="circle369"
   style="fill:#ffffff;stroke:#404040;stroke-width:4;stroke-linecap:round;stroke-linejoin:round;stroke-miterlimit:10" />
<circle
   class="st2"
   cx="472"
   cy="540.09998"
   r="21"
   id="circle371"
   style="fill:#ffffff;stroke:#404040;stroke-width:4;stroke-linecap:round;stroke-linejoin:round;stroke-miterlimit:10" />
<circle
   class="st2"
   cx="388.79999"
   cy="540.09998"
   r="21"
   id="circle373"
   style="fill:#ffffff;stroke:#404040;stroke-width:4;stroke-linecap:round;stroke-linejoin:round;stroke-miterlimit:10" />
<circle
   class="st2"
   cx="388.79999"
   cy="622.09998"
   r="21"
   id="circle375"
   style="fill:#ffffff;stroke:#404040;stroke-width:4;stroke-linecap:round;stroke-linejoin:round;stroke-miterlimit:10" />
<circle
   class="st3"
   cx="664.90002"
   cy="622.09998"
   r="21"
   id="circle377"
   style="fill:#59afe1;stroke:#404040;stroke-width:4;stroke-linejoin:round;stroke-miterlimit:10" />
<circle
   class="st2"
   cx="32"
   cy="622.09998"
   r="21"
   id="circle379"
   style="fill:#ffffff;stroke:#404040;stroke-width:4;stroke-linecap:round;stroke-linejoin:round;stroke-miterlimit:10" />
<path
   class="st1"
   d="m 472,497.4 v -23.5 m 10.9,14.8 -10.9,10.9 -10.8,-10.9"
   id="path381"
   inkscape:connector-curvature="0"
   style="fill:none;stroke:#404040;stroke-width:4;stroke-linecap:round;stroke-linejoin:round;stroke-miterlimit:10" />
<path
   class="st4"
   d="m 402.1,401.9 h 141.6 v 50 H 402.1 Z"
   id="path383"
   inkscape:connector-curvature="0"
   style="fill:#b18be8;stroke:#404040;stroke-width:4;stroke-linecap:round;stroke-linejoin:round;stroke-miterlimit:10" />
<path
   class="st5"
   d="m 430,425.2 c -0.1,-0.8 -0.8,-1.8 -2.2,-1.8 -1.2,0 -2.1,0.8 -2.1,1.8 0,0.8 0.5,1.4 1.4,1.5 l 1.6,0.3 c 1.8,0.4 2.8,1.5 2.8,3 0,1.6 -1.4,3.1 -3.7,3.1 -2.6,0 -3.8,-1.6 -4,-3.2 l 1.4,-0.4 c 0.1,1.2 0.9,2.3 2.5,2.3 1.5,0 2.2,-0.8 2.2,-1.7 0,-0.8 -0.5,-1.4 -1.6,-1.6 l -1.5,-0.3 c -1.5,-0.3 -2.6,-1.3 -2.6,-2.9 0,-1.7 1.5,-3.2 3.5,-3.2 2.4,0 3.4,1.5 3.6,2.6 z m 10.6,4.1 c 0,2.2 -1.5,3.8 -3.7,3.8 -2.2,0 -3.7,-1.6 -3.7,-3.8 0,-2.2 1.5,-3.8 3.7,-3.8 2.2,0 3.7,1.6 3.7,3.8 z m -1.4,0 c 0,-1.7 -1.1,-2.6 -2.2,-2.6 -1.1,0 -2.2,0.9 -2.2,2.6 0,1.7 1.1,2.6 2.2,2.6 1.1,0 2.2,-0.9 2.2,-2.6 z m 4,3.6 v -7.2 h 1.3 v 1 c 0.5,-0.8 1.4,-1.2 2.2,-1.2 0.9,0 1.8,0.4 2.2,1.4 0.6,-1 1.5,-1.4 2.4,-1.4 1.3,0 2.5,0.9 2.5,2.7 v 4.7 h -1.4 v -4.5 c 0,-0.9 -0.5,-1.6 -1.5,-1.6 -1,0 -1.7,0.8 -1.7,1.8 v 4.4 h -1.4 v -4.5 c 0,-0.9 -0.4,-1.6 -1.5,-1.6 -1,0 -1.7,0.8 -1.7,1.8 v 4.3 h -1.4 z m 19.9,-2 c -0.4,1.3 -1.6,2.3 -3.2,2.3 -1.9,0 -3.6,-1.4 -3.6,-3.9 0,-2.3 1.6,-3.8 3.4,-3.8 2.2,0 3.5,1.5 3.5,3.8 v 0.4 h -5.4 c 0,1.3 1,2.2 2.2,2.2 1.2,0 1.8,-0.6 2,-1.5 z m -1.5,-2.3 c 0,-1 -0.7,-1.8 -2,-1.8 -1.2,0 -1.9,0.9 -2,1.8 z m 8.7,4.3 v -10.6 h 6.5 v 1.4 h -5 v 3.4 h 4.5 v 1.4 h -4.5 v 4.5 h -1.5 z m 14.6,-2 c -0.4,1.3 -1.6,2.3 -3.2,2.3 -1.9,0 -3.6,-1.4 -3.6,-3.9 0,-2.3 1.6,-3.8 3.4,-3.8 2.2,0 3.5,1.5 3.5,3.8 v 0.4 h -5.4 c 0,1.3 1,2.2 2.2,2.2 1.2,0 1.8,-0.6 2,-1.5 z m -1.4,-2.3 c 0,-1 -0.7,-1.8 -2,-1.8 -1.2,0 -1.9,0.9 -2,1.8 z m 5.8,0.2 1.9,-0.3 c 0.4,-0.1 0.6,-0.3 0.6,-0.5 0,-0.7 -0.5,-1.3 -1.6,-1.3 -1,0 -1.5,0.6 -1.6,1.5 l -1.4,-0.3 c 0.2,-1.4 1.4,-2.3 3,-2.3 2.2,0 3,1.2 3,2.6 v 3.6 c 0,0.6 0.1,1 0.1,1.2 h -1.4 c 0,-0.2 -0.1,-0.5 -0.1,-1 -0.3,0.5 -1,1.2 -2.3,1.2 -1.5,0 -2.4,-1 -2.4,-2.2 0,-1.3 0.9,-2 2.2,-2.2 z m 2.5,1 v -0.3 l -2.2,0.3 c -0.6,0.1 -1.1,0.4 -1.1,1.1 0,0.5 0.4,1 1.2,1 1.2,0.1 2.1,-0.5 2.1,-2.1 z m 6.2,-4.1 h 1.6 V 427 H 498 v 3.8 c 0,0.7 0.3,1 1,1 0.2,0 0.4,0 0.6,-0.1 v 1.2 c -0.1,0 -0.5,0.1 -1,0.1 -1.2,0 -2,-0.8 -2,-2.1 v -4 h -1.4 v -1.3 h 0.4 c 0.8,0 1.1,-0.5 1.1,-1.1 v -1.2 h 1.3 z m 6.8,7.4 c -1.7,0 -2.7,-1.3 -2.7,-2.9 v -4.5 h 1.4 v 4.3 c 0,1 0.4,1.9 1.6,1.9 1.1,0 1.7,-0.8 1.7,-1.8 v -4.4 h 1.4 v 5.9 c 0,0.6 0,1.1 0.1,1.3 H 507 c 0,-0.2 -0.1,-0.6 -0.1,-0.9 -0.3,0.8 -1.2,1.1 -2.1,1.1 z m 10.7,-6 h -0.6 c -1.2,0 -2,0.6 -2,2.2 v 3.6 h -1.4 v -7.2 h 1.4 v 1.3 c 0.5,-1.1 1.4,-1.4 2.2,-1.4 h 0.5 v 1.5 z m 8.4,3.8 c -0.4,1.3 -1.6,2.3 -3.2,2.3 -1.9,0 -3.6,-1.4 -3.6,-3.9 0,-2.3 1.6,-3.8 3.4,-3.8 2.2,0 3.5,1.5 3.5,3.8 v 0.4 h -5.4 c 0,1.3 1,2.2 2.2,2.2 1.2,0 1.8,-0.6 2,-1.5 z m -1.4,-2.3 c 0,-1 -0.7,-1.8 -2,-1.8 -1.2,0 -1.9,0.9 -2,1.8 z"
   id="path385"
   inkscape:connector-curvature="0"
   style="fill:#404040" />

<path
   class="st1"
   d="m 388.79999,277.3 v 23.5 m -10.9,-14.8 10.9,-10.9 10.9,10.9 m 93.1,-135.4 h -83 41.2 m -196.1,82 h 112.9 m -71.7,-41 c 0,22.6 -18.4,41 -41,41 H 52.999986 m 243.100004,-41 c 0,-22.6 18.4,-41 41,-41 h 30.7"
   id="path389"
   inkscape:connector-curvature="0"
   style="fill:none;stroke:#404040;stroke-width:4;stroke-linecap:round;stroke-linejoin:round;stroke-miterlimit:10" />
<circle
   class="st2"
   cx="198.5"
   cy="232.60001"
   r="21"
   id="circle391"
   style="fill:#71c837;stroke:#404040;stroke-width:4;stroke-linecap:round;stroke-linejoin:round;stroke-miterlimit:10" />
<circle
   class="st2"
   cx="115.29998"
   cy="232.60001"
   r="21"
   id="circle393"
   style="fill:#ffffff;stroke:#404040;stroke-width:4;stroke-linecap:round;stroke-linejoin:round;stroke-miterlimit:10" />
<circle
   class="st2"
   cx="471.99997"
   cy="150.60001"
   r="21"
   id="circle395"
   style="fill:#ffffff;stroke:#404040;stroke-width:4;stroke-linecap:round;stroke-linejoin:round;stroke-miterlimit:10" />
<circle
   transform="rotate(-71.566863)"
   class="st6"
   cx="-19.927851"
   cy="416.46011"
   id="ellipse397"
   r="21.000149"
   style="fill:#ffffff;stroke:#404040;stroke-width:4.00012827;stroke-linecap:round;stroke-linejoin:round;stroke-miterlimit:10.00020027" />
<circle
   transform="rotate(-71.566863)"
   class="st7"
   cx="-97.718147"
   cy="442.38974"
   id="ellipse399"
   r="21.000149"
   style="fill:#59afe1;stroke:#404040;stroke-width:4.00012827;stroke-linejoin:round;stroke-miterlimit:10.00020027" />
<circle
   class="st2"
   cx="32"
   cy="232.60001"
   r="21"
   id="circle401"
   style="fill:#ffffff;stroke:#404040;stroke-width:4;stroke-linecap:round;stroke-linejoin:round;stroke-miterlimit:10" />
<path
   class="st1"
   d="M 471.99999,107.9 V 84.4 m 10.9,14.8 -10.9,10.9 -10.8,-10.9"
   id="path403"
   inkscape:connector-curvature="0"
   style="fill:none;stroke:#404040;stroke-width:4;stroke-linecap:round;stroke-linejoin:round;stroke-miterlimit:10" />
<path
   class="st4"
   d="m 402.19999,12.4 h 141.6 v 50 h -141.6 z"
   id="path405"
   inkscape:connector-curvature="0"
   style="fill:#b18be8;stroke:#404040;stroke-width:4;stroke-linecap:round;stroke-linejoin:round;stroke-miterlimit:10" />
<path
   class="st5"
   d="m 429.99999,35.7 c -0.1,-0.8 -0.8,-1.8 -2.2,-1.8 -1.2,0 -2.1,0.8 -2.1,1.8 0,0.8 0.5,1.4 1.4,1.5 l 1.6,0.3 c 1.8,0.4 2.8,1.5 2.8,3 0,1.6 -1.4,3.1 -3.7,3.1 -2.6,0 -3.8,-1.6 -4,-3.2 l 1.4,-0.4 c 0.1,1.2 0.9,2.3 2.5,2.3 1.5,0 2.2,-0.8 2.2,-1.7 0,-0.8 -0.5,-1.4 -1.6,-1.6 l -1.5,-0.3 c -1.5,-0.3 -2.6,-1.3 -2.6,-2.9 0,-1.7 1.5,-3.2 3.5,-3.2 2.4,0 3.4,1.5 3.6,2.6 z m 10.7,4.1 c 0,2.2 -1.5,3.8 -3.7,3.8 -2.2,0 -3.7,-1.6 -3.7,-3.8 0,-2.2 1.5,-3.8 3.7,-3.8 2.2,0 3.7,1.6 3.7,3.8 z m -1.5,0 c 0,-1.7 -1.1,-2.6 -2.2,-2.6 -1.1,0 -2.2,0.9 -2.2,2.6 0,1.7 1.1,2.6 2.2,2.6 1.1,0 2.2,-0.9 2.2,-2.6 z m 4,3.7 v -7.2 h 1.3 v 1 c 0.5,-0.8 1.4,-1.2 2.2,-1.2 0.9,0 1.8,0.4 2.2,1.4 0.6,-1 1.5,-1.4 2.4,-1.4 1.3,0 2.5,0.9 2.5,2.7 v 4.7 h -1.4 V 39 c 0,-0.9 -0.5,-1.6 -1.5,-1.6 -1,0 -1.7,0.8 -1.7,1.8 v 4.4 h -1.4 v -4.5 c 0,-0.9 -0.4,-1.6 -1.5,-1.6 -1,0 -1.7,0.8 -1.7,1.8 v 4.3 h -1.4 z m 19.9,-2.1 c -0.4,1.3 -1.6,2.3 -3.2,2.3 -1.9,0 -3.6,-1.4 -3.6,-3.9 0,-2.3 1.6,-3.8 3.4,-3.8 2.2,0 3.5,1.5 3.5,3.8 v 0.4 h -5.4 c 0,1.3 1,2.2 2.2,2.2 1.2,0 1.8,-0.6 2,-1.5 z m -1.4,-2.3 c 0,-1 -0.7,-1.8 -2,-1.8 -1.2,0 -1.9,0.9 -2,1.8 z m 8.6,4.4 V 32.9 h 6.5 v 1.4 h -5 v 3.4 h 4.5 v 1.4 h -4.5 v 4.5 h -1.5 z m 14.7,-2.1 c -0.4,1.3 -1.6,2.3 -3.2,2.3 -1.9,0 -3.6,-1.4 -3.6,-3.9 0,-2.3 1.6,-3.8 3.4,-3.8 2.2,0 3.5,1.5 3.5,3.8 v 0.4 h -5.4 c 0,1.3 1,2.2 2.2,2.2 1.2,0 1.8,-0.6 2,-1.5 z m -1.5,-2.3 c 0,-1 -0.7,-1.8 -2,-1.8 -1.2,0 -1.9,0.9 -2,1.8 z m 5.8,0.2 1.9,-0.3 c 0.4,-0.1 0.6,-0.3 0.6,-0.5 0,-0.7 -0.5,-1.3 -1.6,-1.3 -1,0 -1.5,0.6 -1.6,1.5 l -1.4,-0.3 c 0.2,-1.4 1.4,-2.3 3,-2.3 2.2,0 3,1.2 3,2.6 v 3.6 c 0,0.6 0.1,1 0.1,1.2 h -1.4 c 0,-0.2 -0.1,-0.5 -0.1,-1 -0.3,0.5 -1,1.2 -2.3,1.2 -1.5,0 -2.4,-1 -2.4,-2.2 0,-1.3 1,-2 2.2,-2.2 z m 2.5,1.1 V 40 l -2.2,0.3 c -0.6,0.1 -1.1,0.4 -1.1,1.1 0,0.5 0.4,1 1.2,1 1.2,0.1 2.1,-0.5 2.1,-2 z m 6.2,-4.2 h 1.6 v 1.3 h -1.6 v 3.8 c 0,0.7 0.3,1 1,1 0.2,0 0.4,0 0.6,-0.1 v 1.2 c -0.1,0 -0.5,0.1 -1,0.1 -1.2,0 -2,-0.8 -2,-2.1 v -4 h -1.4 v -1.3 h 0.4 c 0.8,0 1.1,-0.5 1.1,-1.1 v -1 h 1.3 z m 6.9,7.5 c -1.7,0 -2.7,-1.3 -2.7,-2.9 v -4.5 h 1.4 v 4.3 c 0,1 0.4,1.9 1.6,1.9 1.1,0 1.7,-0.8 1.7,-1.8 v -4.4 h 1.4 v 5.9 c 0,0.6 0,1.1 0.1,1.3 h -1.4 c 0,-0.2 -0.1,-0.6 -0.1,-0.9 -0.3,0.7 -1.2,1.1 -2,1.1 z m 10.6,-6 h -0.6 c -1.2,0 -2,0.6 -2,2.2 v 3.6 h -1.4 v -7.2 h 1.4 v 1.3 c 0.5,-1.1 1.4,-1.4 2.2,-1.4 h 0.5 v 1.5 z m 8.4,3.7 c -0.4,1.3 -1.6,2.3 -3.2,2.3 -1.9,0 -3.6,-1.4 -3.6,-3.9 0,-2.3 1.6,-3.8 3.4,-3.8 2.2,0 3.5,1.5 3.5,3.8 v 0.4 h -5.4 c 0,1.3 1,2.2 2.2,2.2 1.2,0 1.8,-0.6 2,-1.5 z m -1.4,-2.3 c 0,-1 -0.7,-1.8 -2,-1.8 -1.2,0 -1.9,0.9 -2,1.8 z"
   id="path407"
   inkscape:connector-curvature="0"
   style="fill:#404040" />

<g
   id="g423"
   transform="translate(-122.60001,-78)">
	<path
   class="st9"
   d="m 463.3,398.8 h 96.2 v 50 h -96.2 z"
   id="path411"
   inkscape:connector-curvature="0"
   style="fill:#b3e3ff;stroke:#404040;stroke-width:4;stroke-linecap:round;stroke-linejoin:round;stroke-miterlimit:10" />
	<g
   id="g421">
		<path
   class="st10"
   d="m 496.2,429.9 v -10 h 2 l 2.4,7.1 c 0.2,0.7 0.4,1.2 0.5,1.5 0.1,-0.4 0.3,-0.9 0.5,-1.6 l 2.4,-7 h 1.8 v 10 h -1.3 v -8.4 l -2.9,8.4 h -1.2 l -2.9,-8.5 v 8.5 z"
   id="path413"
   inkscape:connector-curvature="0"
   style="fill:#414141" />
		<path
   class="st10"
   d="m 513.2,429 c -0.5,0.4 -0.9,0.7 -1.3,0.8 -0.4,0.2 -0.9,0.2 -1.4,0.2 -0.8,0 -1.4,-0.2 -1.8,-0.6 -0.4,-0.4 -0.6,-0.9 -0.6,-1.5 0,-0.4 0.1,-0.7 0.2,-1 0.2,-0.3 0.4,-0.5 0.6,-0.7 0.3,-0.2 0.6,-0.3 0.9,-0.4 0.2,-0.1 0.6,-0.1 1.1,-0.2 1,-0.1 1.7,-0.3 2.2,-0.4 0,-0.2 0,-0.3 0,-0.3 0,-0.5 -0.1,-0.9 -0.3,-1.1 -0.3,-0.3 -0.8,-0.4 -1.4,-0.4 -0.6,0 -1,0.1 -1.3,0.3 -0.3,0.2 -0.5,0.6 -0.6,1.1 l -1.2,-0.2 c 0.1,-0.5 0.3,-0.9 0.5,-1.2 0.3,-0.3 0.6,-0.6 1.1,-0.7 0.5,-0.2 1,-0.3 1.6,-0.3 0.6,0 1.1,0.1 1.5,0.2 0.4,0.1 0.7,0.3 0.9,0.6 0.2,0.2 0.3,0.5 0.4,0.8 0,0.2 0.1,0.6 0.1,1.1 v 1.6 c 0,1.1 0,1.9 0.1,2.2 0.1,0.3 0.2,0.6 0.3,0.9 h -1.3 c -0.2,-0.1 -0.3,-0.4 -0.3,-0.8 z m -0.1,-2.7 c -0.4,0.2 -1.1,0.3 -2,0.5 -0.5,0.1 -0.9,0.2 -1.1,0.2 -0.2,0 -0.4,0.2 -0.5,0.4 -0.1,0.2 -0.2,0.4 -0.2,0.6 0,0.3 0.1,0.6 0.4,0.8 0.2,0.2 0.6,0.3 1.1,0.3 0.5,0 0.9,-0.1 1.3,-0.3 0.4,-0.2 0.6,-0.5 0.8,-0.9 0.1,-0.3 0.2,-0.7 0.2,-1.2 z"
   id="path415"
   inkscape:connector-curvature="0"
   style="fill:#414141" />
		<path
   class="st10"
   d="m 516.9,421.3 v -1.4 h 1.2 v 1.4 z m 0,8.6 v -7.3 h 1.2 v 7.3 z"
   id="path417"
   inkscape:connector-curvature="0"
   style="fill:#414141" />
		<path
   class="st10"
   d="m 520.7,429.9 v -7.3 h 1.1 v 1 c 0.5,-0.8 1.3,-1.2 2.3,-1.2 0.4,0 0.8,0.1 1.2,0.2 0.4,0.2 0.6,0.4 0.8,0.6 0.2,0.2 0.3,0.6 0.4,0.9 0,0.2 0.1,0.6 0.1,1.2 v 4.5 h -1.2 v -4.4 c 0,-0.5 0,-0.9 -0.1,-1.1 -0.1,-0.2 -0.3,-0.4 -0.5,-0.6 -0.2,-0.1 -0.5,-0.2 -0.9,-0.2 -0.5,0 -1,0.2 -1.4,0.5 -0.4,0.3 -0.6,1 -0.6,1.9 v 4 z"
   id="path419"
   inkscape:connector-curvature="0"
   style="fill:#414141" />
	</g>
</g>
<g
   id="g437"
   transform="translate(-38,-334)">
	<path
   class="st9"
   d="M 654.8,1044.2 H 751 v 50 h -96.2 z"
   id="path425"
   inkscape:connector-curvature="0"
   style="fill:#b3e3ff;stroke:#404040;stroke-width:4;stroke-linecap:round;stroke-linejoin:round;stroke-miterlimit:10" />
	<g
   id="g435">
		<path
   class="st10"
   d="m 687.7,1075.3 v -10 h 2 l 2.4,7.1 c 0.2,0.7 0.4,1.2 0.5,1.5 0.1,-0.4 0.3,-0.9 0.5,-1.6 l 2.4,-7 h 1.8 v 10 H 696 v -8.4 l -2.9,8.4 h -1.2 l -2.9,-8.5 v 8.5 z"
   id="path427"
   inkscape:connector-curvature="0"
   style="fill:#414141" />
		<path
   class="st10"
   d="m 704.7,1074.4 c -0.5,0.4 -0.9,0.7 -1.3,0.8 -0.4,0.2 -0.9,0.2 -1.4,0.2 -0.8,0 -1.4,-0.2 -1.8,-0.6 -0.4,-0.4 -0.6,-0.9 -0.6,-1.5 0,-0.4 0.1,-0.7 0.2,-1 0.2,-0.3 0.4,-0.5 0.6,-0.7 0.3,-0.2 0.6,-0.3 0.9,-0.4 0.2,-0.1 0.6,-0.1 1.1,-0.2 1,-0.1 1.7,-0.3 2.2,-0.4 0,-0.2 0,-0.3 0,-0.3 0,-0.5 -0.1,-0.9 -0.3,-1.1 -0.3,-0.3 -0.8,-0.4 -1.4,-0.4 -0.6,0 -1,0.1 -1.3,0.3 -0.3,0.2 -0.5,0.6 -0.6,1.1 l -1.2,-0.2 c 0.1,-0.5 0.3,-0.9 0.5,-1.2 0.3,-0.3 0.6,-0.6 1.1,-0.7 0.5,-0.2 1,-0.3 1.6,-0.3 0.6,0 1.1,0.1 1.5,0.2 0.4,0.1 0.7,0.3 0.9,0.6 0.2,0.2 0.3,0.5 0.4,0.8 0,0.2 0.1,0.6 0.1,1.1 v 1.6 c 0,1.1 0,1.9 0.1,2.2 0.1,0.3 0.2,0.6 0.3,0.9 H 705 c -0.2,-0.1 -0.3,-0.4 -0.3,-0.8 z m -0.1,-2.7 c -0.4,0.2 -1.1,0.3 -2,0.5 -0.5,0.1 -0.9,0.2 -1.1,0.2 -0.2,0 -0.4,0.2 -0.5,0.4 -0.1,0.2 -0.2,0.4 -0.2,0.6 0,0.3 0.1,0.6 0.4,0.8 0.2,0.2 0.6,0.3 1.1,0.3 0.5,0 0.9,-0.1 1.3,-0.3 0.4,-0.2 0.6,-0.5 0.8,-0.9 0.1,-0.3 0.2,-0.7 0.2,-1.2 z"
   id="path429"
   inkscape:connector-curvature="0"
   style="fill:#414141" />
		<path
   class="st10"
   d="m 708.4,1066.7 v -1.4 h 1.2 v 1.4 z m 0,8.6 v -7.3 h 1.2 v 7.3 z"
   id="path431"
   inkscape:connector-curvature="0"
   style="fill:#414141" />
		<path
   class="st10"
   d="m 712.2,1075.3 v -7.3 h 1.1 v 1 c 0.5,-0.8 1.3,-1.2 2.3,-1.2 0.4,0 0.8,0.1 1.2,0.2 0.4,0.2 0.6,0.4 0.8,0.6 0.2,0.2 0.3,0.6 0.4,0.9 0,0.2 0.1,0.6 0.1,1.2 v 4.5 h -1.2 v -4.4 c 0,-0.5 0,-0.9 -0.1,-1.1 -0.1,-0.2 -0.3,-0.4 -0.5,-0.6 -0.2,-0.1 -0.5,-0.2 -0.9,-0.2 -0.5,0 -1,0.2 -1.4,0.5 -0.4,0.3 -0.6,1 -0.6,1.9 v 4 z"
   id="path433"
   inkscape:connector-curvature="0"
   style="fill:#414141" />
	</g>
</g>
<path
   class="st8"
   d="M 12.693353,385.8 H 715.24845"
   id="path409"
   inkscape:connector-curvature="0"
   style="fill:none;stroke:#cccccc;stroke-width:1.13915038;stroke-linecap:round;stroke-linejoin:round;stroke-miterlimit:10" /><path
   class="st1"
   d="m 199.26058,188.69665 v -23.5 m 10.9,14.8 -10.9,10.9 -10.8,-10.9"
   id="path381-3"
   inkscape:connector-curvature="0"
   style="fill:none;stroke:#404040;stroke-width:4;stroke-linecap:round;stroke-linejoin:round;stroke-miterlimit:10" /><path
   class="st4"
   d="m 129.36058,93.19665 h 141.6 v 50 h -141.6 z"
   id="path383-6"
   inkscape:connector-curvature="0"
   style="fill:#71c837;stroke:#404040;stroke-width:4;stroke-linecap:round;stroke-linejoin:round;stroke-miterlimit:10" /><g
   aria-label="Lowest common"
   style="font-style:normal;font-weight:normal;font-size:12.43494129px;line-height:1.25;font-family:sans-serif;letter-spacing:0px;word-spacing:0px;fill:#404040;fill-opacity:1;stroke:none;stroke-width:0.31087351"
   id="text871"><path
     sodipodi:type="inkscape:offset"
     inkscape:radius="0"
     inkscape:original="M 151.07617 105.72656 L 151.07617 114.79102 L 156.7168 114.79102 L 156.7168 113.75977 L 152.30273 113.75977 L 152.30273 105.72656 L 151.07617 105.72656 z M 189.62695 106.06055 L 189.62695 107.99219 L 188.80664 107.99219 L 188.80664 108.85938 L 189.62695 108.85938 L 189.62695 112.55078 C 189.62695 113.40083 189.78931 113.98868 190.11719 114.3125 C 190.44506 114.63228 191.04016 114.79102 191.90234 114.79102 L 193.05078 114.79102 L 193.05078 113.85742 L 191.90234 113.85742 C 191.43684 113.85742 191.12843 113.777 190.97461 113.61914 C 190.82484 113.46127 190.75 113.10533 190.75 112.55078 L 190.75 108.85938 L 193.05078 108.85938 L 193.05078 107.99219 L 190.75 107.99219 L 190.75 106.06055 L 189.62695 106.06055 z M 160.37305 107.82812 C 159.39752 107.82812 158.63268 108.14393 158.07812 108.77539 C 157.52762 109.40685 157.25195 110.28123 157.25195 111.39844 C 157.25195 112.51159 157.52762 113.38402 158.07812 114.01953 C 158.63268 114.65099 159.39752 114.9668 160.37305 114.9668 C 161.34453 114.9668 162.10756 114.65099 162.66211 114.01953 C 163.21666 113.38402 163.49414 112.51159 163.49414 111.39844 C 163.49414 110.28123 163.21666 109.40685 162.66211 108.77539 C 162.10756 108.14393 161.34453 107.82812 160.37305 107.82812 z M 178.36328 107.82812 C 177.34323 107.82812 176.53086 108.1548 175.92773 108.81055 C 175.32865 109.46225 175.0293 110.34583 175.0293 111.45898 C 175.0293 112.53571 175.3451 113.38807 175.97656 114.01953 C 176.61208 114.65099 177.47182 114.9668 178.55664 114.9668 C 178.98975 114.9668 179.41691 114.92303 179.83789 114.83398 C 180.25886 114.74493 180.66958 114.61533 181.07031 114.44531 L 181.07031 113.38867 C 180.67363 113.59916 180.27393 113.75803 179.86914 113.86328 C 179.46841 113.96852 179.05407 114.01953 178.625 114.01953 C 177.88425 114.01953 177.30365 113.82066 176.88672 113.41992 C 176.47387 113.01514 176.24391 112.42729 176.19531 111.6582 L 181.33203 111.6582 L 181.33203 111.11133 C 181.33203 110.09937 181.06557 109.29983 180.53125 108.71289 C 180.00099 108.12191 179.27809 107.82812 178.36328 107.82812 z M 185.32812 107.82812 C 184.49427 107.82813 183.84984 108.0015 183.39648 108.34961 C 182.94313 108.69772 182.7168 109.19052 182.7168 109.83008 C 182.7168 110.3563 182.8701 110.77259 183.17773 111.07617 C 183.48537 111.37571 183.98555 111.59841 184.67773 111.74414 L 185.06641 111.83398 C 185.75859 111.98376 186.20581 112.14082 186.4082 112.30273 C 186.61464 112.46465 186.71875 112.69641 186.71875 113 C 186.71875 113.32787 186.57632 113.58347 186.29297 113.76562 C 186.00962 113.94373 185.60434 114.0332 185.07812 114.0332 C 184.68549 114.0332 184.28941 113.98024 183.88867 113.875 C 183.48794 113.76571 183.08085 113.60321 182.66797 113.38867 L 182.66797 114.54297 C 183.10514 114.68464 183.51947 114.78861 183.91211 114.85742 C 184.3088 114.93028 184.69038 114.9668 185.05469 114.9668 C 185.92902 114.9668 186.6154 114.78437 187.11328 114.41602 C 187.61521 114.04767 187.86523 113.54748 187.86523 112.91602 C 187.86523 112.36146 187.6973 111.93068 187.36133 111.62305 C 187.02941 111.31137 186.4672 111.0704 185.67383 110.90039 L 185.29102 110.81445 C 184.69194 110.68087 184.29405 110.5422 184.0957 110.39648 C 183.89736 110.24671 183.79688 110.04226 183.79688 109.7832 C 183.79688 109.44318 183.93568 109.18758 184.21094 109.01758 C 184.49024 108.84757 184.90638 108.76172 185.46094 108.76172 C 185.82524 108.76172 186.17756 108.80381 186.51758 108.88477 C 186.8576 108.96573 187.18622 109.08613 187.50195 109.24805 L 187.50195 108.19141 C 187.19431 108.06999 186.85649 107.9787 186.49219 107.91797 C 186.12789 107.85724 185.74101 107.82813 185.32812 107.82812 z M 201.40625 107.82812 C 200.34572 107.82812 199.50966 108.14574 198.89844 108.78125 C 198.29126 109.41676 197.98633 110.28933 197.98633 111.39844 C 197.98633 112.49135 198.28945 113.35835 198.89258 114.00195 C 199.4957 114.64555 200.30792 114.9668 201.33203 114.9668 C 201.70848 114.9668 202.06261 114.93028 202.39453 114.85742 C 202.7305 114.78456 203.05551 114.67697 203.36719 114.53125 L 203.36719 113.49805 C 203.05146 113.67211 202.73384 113.80353 202.41406 113.89258 C 202.09833 113.97758 201.77695 114.01953 201.45312 114.01953 C 200.72856 114.01953 200.16636 113.79139 199.76562 113.33398 C 199.36488 112.87253 199.16406 112.22824 199.16406 111.39844 C 199.16406 110.56863 199.36488 109.9242 199.76562 109.4668 C 200.16636 109.00534 200.72856 108.77539 201.45312 108.77539 C 201.77695 108.77539 202.09833 108.81915 202.41406 108.9082 C 202.73384 108.99321 203.05146 109.12282 203.36719 109.29688 L 203.36719 108.25195 C 203.05955 108.11028 202.74194 108.00631 202.41406 107.9375 C 202.08619 107.86464 201.75032 107.82813 201.40625 107.82812 z M 207.94531 107.82812 C 206.96979 107.82812 206.20494 108.14393 205.65039 108.77539 C 205.09988 109.40685 204.82422 110.28123 204.82422 111.39844 C 204.82422 112.51159 205.09988 113.38402 205.65039 114.01953 C 206.20494 114.65099 206.96979 114.9668 207.94531 114.9668 C 208.91679 114.9668 209.67982 114.65099 210.23438 114.01953 C 210.78893 113.38402 211.06641 112.51159 211.06641 111.39844 C 211.06641 110.28123 210.78893 109.40685 210.23438 108.77539 C 209.67982 108.14393 208.91679 107.82812 207.94531 107.82812 z M 216.18359 107.82812 C 215.6938 107.82813 215.27027 107.92666 214.91406 108.125 C 214.55786 108.32335 214.25306 108.62995 213.99805 109.04688 L 213.99805 107.99219 L 212.875 107.99219 L 212.875 114.79102 L 213.99805 114.79102 L 213.99805 110.94727 C 213.99805 110.28747 214.16599 109.7654 214.50195 109.38086 C 214.83793 108.99227 215.29059 108.79883 215.86133 108.79883 C 216.34302 108.79883 216.70091 108.95576 216.93164 109.27148 C 217.16237 109.58317 217.27734 110.06691 217.27734 110.72266 L 217.27734 114.79102 L 218.40039 114.79102 L 218.40039 110.94727 C 218.40039 110.28342 218.56832 109.75955 218.9043 109.375 C 219.24026 108.99046 219.69655 108.79883 220.27539 108.79883 C 220.74899 108.79883 221.1013 108.95576 221.33203 109.27148 C 221.56276 109.58722 221.67969 110.07096 221.67969 110.72266 L 221.67969 114.79102 L 222.80273 114.79102 L 222.80273 110.6875 C 222.80273 109.77269 222.60915 109.06806 222.22461 108.57422 C 221.84006 108.07634 221.29431 107.82812 220.58594 107.82812 C 220.05972 107.82813 219.60148 107.94673 219.21289 108.18555 C 218.8243 108.42437 218.49219 108.79494 218.21289 109.29688 C 218.04693 108.81923 217.78952 108.45409 217.44141 108.20312 C 217.09734 107.95216 216.67743 107.82812 216.18359 107.82812 z M 228.29688 107.82812 C 227.80709 107.82813 227.38355 107.92666 227.02734 108.125 C 226.67113 108.32335 226.36634 108.62995 226.11133 109.04688 L 226.11133 107.99219 L 224.98828 107.99219 L 224.98828 114.79102 L 226.11133 114.79102 L 226.11133 110.94727 C 226.11133 110.28747 226.27926 109.7654 226.61523 109.38086 C 226.9512 108.99227 227.40386 108.79883 227.97461 108.79883 C 228.4563 108.79883 228.8142 108.95576 229.04492 109.27148 C 229.27565 109.58317 229.39062 110.06691 229.39062 110.72266 L 229.39062 114.79102 L 230.51367 114.79102 L 230.51367 110.94727 C 230.51367 110.28342 230.68161 109.75955 231.01758 109.375 C 231.35355 108.99046 231.80983 108.79883 232.38867 108.79883 C 232.86227 108.79883 233.21459 108.95576 233.44531 109.27148 C 233.67604 109.58722 233.79297 110.07096 233.79297 110.72266 L 233.79297 114.79102 L 234.91602 114.79102 L 234.91602 110.6875 C 234.91602 109.77269 234.72244 109.06806 234.33789 108.57422 C 233.95335 108.07634 233.40759 107.82812 232.69922 107.82812 C 232.173 107.82813 231.71477 107.94673 231.32617 108.18555 C 230.93759 108.42437 230.60352 108.79494 230.32422 109.29688 C 230.15825 108.81923 229.9028 108.45409 229.55469 108.20312 C 229.21062 107.95216 228.79071 107.82812 228.29688 107.82812 z M 239.7793 107.82812 C 238.80376 107.82813 238.03893 108.14393 237.48438 108.77539 C 236.93388 109.40685 236.6582 110.28123 236.6582 111.39844 C 236.6582 112.51159 236.93388 113.38402 237.48438 114.01953 C 238.03893 114.65099 238.80376 114.9668 239.7793 114.9668 C 240.75078 114.9668 241.51381 114.65099 242.06836 114.01953 C 242.62291 113.38402 242.90039 112.51159 242.90039 111.39844 C 242.90039 110.28123 242.62291 109.40685 242.06836 108.77539 C 241.51381 108.14393 240.75078 107.82813 239.7793 107.82812 z M 248.03125 107.82812 C 247.55766 107.82812 247.13774 107.92847 246.77344 108.13086 C 246.41318 108.33325 246.09919 108.63804 245.83203 109.04688 L 245.83203 107.99219 L 244.70898 107.99219 L 244.70898 114.79102 L 245.83203 114.79102 L 245.83203 110.94727 C 245.83203 110.28342 246.00736 109.75955 246.35547 109.375 C 246.70358 108.99046 247.17812 108.79883 247.78125 108.79883 C 248.28318 108.79883 248.65919 108.95952 248.91016 109.2793 C 249.16112 109.59907 249.28711 110.07905 249.28711 110.72266 L 249.28711 114.79102 L 250.4043 114.79102 L 250.4043 110.6875 C 250.4043 109.74841 250.20347 109.03833 249.80273 108.55664 C 249.402 108.0709 248.81248 107.82812 248.03125 107.82812 z M 164.69531 107.99219 L 166.47461 114.79102 L 167.79297 114.79102 L 169.26172 109.2168 L 170.72461 114.79102 L 172.04297 114.79102 L 173.82227 107.99219 L 172.70508 107.99219 L 171.31445 113.29883 L 169.91797 107.99219 L 168.59961 107.99219 L 167.20898 113.29883 L 165.8125 107.99219 L 164.69531 107.99219 z M 160.37305 108.77539 C 160.96808 108.77539 161.439 109.01078 161.78711 109.48438 C 162.13522 109.95393 162.30859 110.59292 162.30859 111.39844 C 162.30859 112.208 162.13522 112.84686 161.78711 113.31641 C 161.439 113.78595 160.96808 114.01953 160.37305 114.01953 C 159.76992 114.01953 159.29343 113.78777 158.94531 113.32227 C 158.60125 112.85272 158.42969 112.21205 158.42969 111.39844 C 158.42969 110.58482 158.60306 109.94402 158.95117 109.47852 C 159.29929 109.00897 159.77397 108.77539 160.37305 108.77539 z M 178.375 108.77539 C 178.92551 108.77539 179.36729 108.95601 179.69922 109.32031 C 180.03521 109.68461 180.20678 110.17393 180.21484 110.78516 L 176.23242 110.79102 C 176.28909 110.15146 176.5026 109.65489 176.875 109.30273 C 177.25145 108.95057 177.75163 108.77539 178.375 108.77539 z M 207.94531 108.77539 C 208.54035 108.77539 209.01126 109.01078 209.35938 109.48438 C 209.70749 109.95393 209.88086 110.59292 209.88086 111.39844 C 209.88086 112.208 209.70749 112.84686 209.35938 113.31641 C 209.01126 113.78595 208.54035 114.01953 207.94531 114.01953 C 207.34219 114.01953 206.86569 113.78777 206.51758 113.32227 C 206.17351 112.85272 206.00195 112.21205 206.00195 111.39844 C 206.00195 110.58482 206.17532 109.94402 206.52344 109.47852 C 206.87155 109.00897 207.34623 108.77539 207.94531 108.77539 z M 239.7793 108.77539 C 240.37432 108.77539 240.84525 109.01078 241.19336 109.48438 C 241.54147 109.95393 241.71484 110.59292 241.71484 111.39844 C 241.71484 112.208 241.54147 112.84686 241.19336 113.31641 C 240.84525 113.78595 240.37432 114.01953 239.7793 114.01953 C 239.17617 114.01953 238.69968 113.78777 238.35156 113.32227 C 238.0075 112.85272 237.83594 112.21205 237.83594 111.39844 C 237.83594 110.58482 238.00931 109.94402 238.35742 109.47852 C 238.70554 109.00897 239.18022 108.77539 239.7793 108.77539 z "
     style="fill:#404040;stroke-width:0.31087351"
     id="path1234"
     d="m 151.07617,105.72656 v 9.06446 h 5.64063 v -1.03125 h -4.41407 v -8.03321 z m 38.55078,0.33399 v 1.93164 h -0.82031 v 0.86719 h 0.82031 v 3.6914 c 0,0.85005 0.16236,1.4379 0.49024,1.76172 0.32787,0.31978 0.92297,0.47852 1.78515,0.47852 h 1.14844 v -0.9336 h -1.14844 c -0.4655,0 -0.77391,-0.0804 -0.92773,-0.23828 -0.14977,-0.15787 -0.22461,-0.51381 -0.22461,-1.06836 v -3.6914 h 2.30078 v -0.86719 H 190.75 v -1.93164 z m -29.2539,1.76757 c -0.97553,0 -1.74037,0.31581 -2.29493,0.94727 -0.5505,0.63146 -0.82617,1.50584 -0.82617,2.62305 0,1.11315 0.27567,1.98558 0.82617,2.62109 0.55456,0.63146 1.3194,0.94727 2.29493,0.94727 0.97148,0 1.73451,-0.31581 2.28906,-0.94727 0.55455,-0.63551 0.83203,-1.50794 0.83203,-2.62109 0,-1.11721 -0.27748,-1.99159 -0.83203,-2.62305 -0.55455,-0.63146 -1.31758,-0.94727 -2.28906,-0.94727 z m 17.99023,0 c -1.02005,0 -1.83242,0.32668 -2.43555,0.98243 -0.59908,0.6517 -0.89843,1.53528 -0.89843,2.64843 0,1.07673 0.3158,1.92909 0.94726,2.56055 0.63552,0.63146 1.49526,0.94727 2.58008,0.94727 0.43311,0 0.86027,-0.0438 1.28125,-0.13282 0.42097,-0.0891 0.83169,-0.21865 1.23242,-0.38867 v -1.05664 c -0.39668,0.21049 -0.79638,0.36936 -1.20117,0.47461 -0.40073,0.10524 -0.81507,0.15625 -1.24414,0.15625 -0.74075,0 -1.32135,-0.19887 -1.73828,-0.59961 -0.41285,-0.40478 -0.64281,-0.99263 -0.69141,-1.76172 h 5.13672 v -0.54687 c 0,-1.01196 -0.26646,-1.8115 -0.80078,-2.39844 -0.53026,-0.59098 -1.25316,-0.88477 -2.16797,-0.88477 z m 6.96484,0 c -0.83385,1e-5 -1.47828,0.17338 -1.93164,0.52149 -0.45335,0.34811 -0.67968,0.84091 -0.67968,1.48047 0,0.52622 0.1533,0.94251 0.46093,1.24609 0.30764,0.29954 0.80782,0.52224 1.5,0.66797 l 0.38868,0.0898 c 0.69218,0.14978 1.1394,0.30684 1.34179,0.46875 0.20644,0.16192 0.31055,0.39368 0.31055,0.69727 0,0.32787 -0.14243,0.58347 -0.42578,0.76562 -0.28335,0.17811 -0.68863,0.26758 -1.21485,0.26758 -0.39263,0 -0.78871,-0.053 -1.18945,-0.1582 -0.40073,-0.10929 -0.80782,-0.27179 -1.2207,-0.48633 v 1.1543 c 0.43717,0.14167 0.8515,0.24564 1.24414,0.31445 0.39669,0.0729 0.77827,0.10938 1.14258,0.10938 0.87433,0 1.56071,-0.18243 2.05859,-0.55078 0.50193,-0.36835 0.75195,-0.86854 0.75195,-1.5 0,-0.55456 -0.16793,-0.98534 -0.5039,-1.29297 -0.33192,-0.31168 -0.89413,-0.55265 -1.6875,-0.72266 l -0.38281,-0.0859 c -0.59908,-0.13358 -0.99697,-0.27225 -1.19532,-0.41797 -0.19834,-0.14977 -0.29882,-0.35422 -0.29882,-0.61328 0,-0.34002 0.1388,-0.59562 0.41406,-0.76562 0.2793,-0.17001 0.69544,-0.25586 1.25,-0.25586 0.3643,0 0.71662,0.0421 1.05664,0.12305 0.34002,0.081 0.66864,0.20136 0.98437,0.36328 v -1.05664 c -0.30764,-0.12142 -0.64546,-0.21271 -1.00976,-0.27344 -0.3643,-0.0607 -0.75118,-0.0898 -1.16407,-0.0898 z m 16.07813,0 c -1.06053,0 -1.89659,0.31762 -2.50781,0.95313 -0.60718,0.63551 -0.91211,1.50808 -0.91211,2.61719 0,1.09291 0.30312,1.95991 0.90625,2.60351 0.60312,0.6436 1.41534,0.96485 2.43945,0.96485 0.37645,0 0.73058,-0.0365 1.0625,-0.10938 0.33597,-0.0729 0.66098,-0.18045 0.97266,-0.32617 v -1.0332 c -0.31573,0.17406 -0.63335,0.30548 -0.95313,0.39453 -0.31573,0.085 -0.63711,0.12695 -0.96094,0.12695 -0.72456,0 -1.28676,-0.22814 -1.6875,-0.68555 -0.40074,-0.46145 -0.60156,-1.10574 -0.60156,-1.93554 0,-0.82981 0.20082,-1.47424 0.60156,-1.93164 0.40074,-0.46146 0.96294,-0.69141 1.6875,-0.69141 0.32383,0 0.64521,0.0438 0.96094,0.13281 0.31978,0.085 0.6374,0.21462 0.95313,0.38868 v -1.04493 c -0.30764,-0.14167 -0.62525,-0.24564 -0.95313,-0.31445 -0.32787,-0.0729 -0.66374,-0.10937 -1.00781,-0.10938 z m 6.53906,0 c -0.97552,0 -1.74037,0.31581 -2.29492,0.94727 -0.55051,0.63146 -0.82617,1.50584 -0.82617,2.62305 0,1.11315 0.27566,1.98558 0.82617,2.62109 0.55455,0.63146 1.3194,0.94727 2.29492,0.94727 0.97148,0 1.73451,-0.31581 2.28907,-0.94727 0.55455,-0.63551 0.83203,-1.50794 0.83203,-2.62109 0,-1.11721 -0.27748,-1.99159 -0.83203,-2.62305 -0.55456,-0.63146 -1.31759,-0.94727 -2.28907,-0.94727 z m 8.23828,0 c -0.48979,1e-5 -0.91332,0.0985 -1.26953,0.29688 -0.3562,0.19835 -0.661,0.50495 -0.91601,0.92188 v -1.05469 H 212.875 v 6.79883 h 1.12305 v -3.84375 c 0,-0.6598 0.16794,-1.18187 0.5039,-1.56641 0.33598,-0.38859 0.78864,-0.58203 1.35938,-0.58203 0.48169,0 0.83958,0.15693 1.07031,0.47265 0.23073,0.31169 0.3457,0.79543 0.3457,1.45118 v 4.06836 h 1.12305 v -3.84375 c 0,-0.66385 0.16793,-1.18772 0.50391,-1.57227 0.33596,-0.38454 0.79225,-0.57617 1.37109,-0.57617 0.4736,0 0.82591,0.15693 1.05664,0.47265 0.23073,0.31574 0.34766,0.79948 0.34766,1.45118 v 4.06836 h 1.12304 v -4.10352 c 0,-0.91481 -0.19358,-1.61944 -0.57812,-2.11328 -0.38455,-0.49788 -0.9303,-0.7461 -1.63867,-0.7461 -0.52622,1e-5 -0.98446,0.11861 -1.37305,0.35743 -0.38859,0.23882 -0.7207,0.60939 -1,1.11133 -0.16596,-0.47765 -0.42337,-0.84279 -0.77148,-1.09376 -0.34407,-0.25096 -0.76398,-0.375 -1.25782,-0.375 z m 12.11329,0 c -0.48979,1e-5 -0.91333,0.0985 -1.26954,0.29688 -0.35621,0.19835 -0.661,0.50495 -0.91601,0.92188 v -1.05469 h -1.12305 v 6.79883 h 1.12305 v -3.84375 c 0,-0.6598 0.16793,-1.18187 0.5039,-1.56641 0.33597,-0.38859 0.78863,-0.58203 1.35938,-0.58203 0.48169,0 0.83959,0.15693 1.07031,0.47265 0.23073,0.31169 0.3457,0.79543 0.3457,1.45118 v 4.06836 h 1.12305 v -3.84375 c 0,-0.66385 0.16794,-1.18772 0.50391,-1.57227 0.33597,-0.38454 0.79225,-0.57617 1.37109,-0.57617 0.4736,0 0.82592,0.15693 1.05664,0.47265 0.23073,0.31574 0.34766,0.79948 0.34766,1.45118 v 4.06836 h 1.12305 v -4.10352 c 0,-0.91481 -0.19358,-1.61944 -0.57813,-2.11328 -0.38454,-0.49788 -0.9303,-0.7461 -1.63867,-0.7461 -0.52622,1e-5 -0.98445,0.11861 -1.37305,0.35743 -0.38858,0.23882 -0.72265,0.60939 -1.00195,1.11133 -0.16597,-0.47765 -0.42142,-0.84279 -0.76953,-1.09376 -0.34407,-0.25096 -0.76398,-0.375 -1.25781,-0.375 z m 11.48242,0 c -0.97554,1e-5 -1.74037,0.31581 -2.29492,0.94727 -0.5505,0.63146 -0.82618,1.50584 -0.82618,2.62305 0,1.11315 0.27568,1.98558 0.82618,2.62109 0.55455,0.63146 1.31938,0.94727 2.29492,0.94727 0.97148,0 1.73451,-0.31581 2.28906,-0.94727 0.55455,-0.63551 0.83203,-1.50794 0.83203,-2.62109 0,-1.11721 -0.27748,-1.99159 -0.83203,-2.62305 -0.55455,-0.63146 -1.31758,-0.94726 -2.28906,-0.94727 z m 8.25195,0 c -0.47359,0 -0.89351,0.10035 -1.25781,0.30274 -0.36026,0.20239 -0.67425,0.50718 -0.94141,0.91602 v -1.05469 h -1.12305 v 6.79883 h 1.12305 v -3.84375 c 0,-0.66385 0.17533,-1.18772 0.52344,-1.57227 0.34811,-0.38454 0.82265,-0.57617 1.42578,-0.57617 0.50193,0 0.87794,0.16069 1.12891,0.48047 0.25096,0.31977 0.37695,0.79975 0.37695,1.44336 v 4.06836 h 1.11719 v -4.10352 c 0,-0.93909 -0.20083,-1.64917 -0.60157,-2.13086 -0.40073,-0.48574 -0.99025,-0.72852 -1.77148,-0.72852 z m -83.33594,0.16407 1.7793,6.79883 h 1.31836 l 1.46875,-5.57422 1.46289,5.57422 h 1.31836 l 1.7793,-6.79883 h -1.11719 l -1.39063,5.30664 -1.39648,-5.30664 h -1.31836 l -1.39063,5.30664 -1.39648,-5.30664 z m -4.32226,0.7832 c 0.59503,0 1.06595,0.23539 1.41406,0.70899 0.34811,0.46955 0.52148,1.10854 0.52148,1.91406 0,0.80956 -0.17337,1.44842 -0.52148,1.91797 -0.34811,0.46954 -0.81903,0.70312 -1.41406,0.70312 -0.60313,0 -1.07962,-0.23176 -1.42774,-0.69726 -0.34406,-0.46955 -0.51562,-1.11022 -0.51562,-1.92383 0,-0.81362 0.17337,-1.45442 0.52148,-1.91992 0.34812,-0.46955 0.8228,-0.70313 1.42188,-0.70313 z m 18.00195,0 c 0.55051,0 0.99229,0.18062 1.32422,0.54492 0.33599,0.3643 0.50756,0.85362 0.51562,1.46485 l -3.98242,0.006 c 0.0567,-0.63956 0.27018,-1.13613 0.64258,-1.48829 0.37645,-0.35216 0.87663,-0.52734 1.5,-0.52734 z m 29.57031,0 c 0.59504,0 1.06595,0.23539 1.41407,0.70899 0.34811,0.46955 0.52148,1.10854 0.52148,1.91406 0,0.80956 -0.17337,1.44842 -0.52148,1.91797 -0.34812,0.46954 -0.81903,0.70312 -1.41407,0.70312 -0.60312,0 -1.07962,-0.23176 -1.42773,-0.69726 -0.34407,-0.46955 -0.51563,-1.11022 -0.51563,-1.92383 0,-0.81362 0.17337,-1.45442 0.52149,-1.91992 0.34811,-0.46955 0.82279,-0.70313 1.42187,-0.70313 z m 31.83399,0 c 0.59502,0 1.06595,0.23539 1.41406,0.70899 0.34811,0.46955 0.52148,1.10854 0.52148,1.91406 0,0.80956 -0.17337,1.44842 -0.52148,1.91797 -0.34811,0.46954 -0.81904,0.70312 -1.41406,0.70312 -0.60313,0 -1.07962,-0.23176 -1.42774,-0.69726 -0.34406,-0.46955 -0.51562,-1.11022 -0.51562,-1.92383 0,-0.81362 0.17337,-1.45442 0.52148,-1.91992 0.34812,-0.46955 0.8228,-0.70313 1.42188,-0.70313 z" /></g><g
   aria-label="ancestor"
   style="font-style:normal;font-weight:normal;font-size:12.52213573px;line-height:1.25;font-family:sans-serif;letter-spacing:0px;word-spacing:0px;fill:#404040;fill-opacity:1;stroke:none;stroke-width:0.3130534"
   id="text875"><path
     sodipodi:type="inkscape:offset"
     inkscape:radius="0"
     inkscape:original="M 210.95508 119.91602 L 210.95508 121.86133 L 210.12891 121.86133 L 210.12891 122.73633 L 210.95508 122.73633 L 210.95508 126.45312 C 210.95508 127.30913 211.121 127.90046 211.45117 128.22656 C 211.78135 128.54858 212.37981 128.70898 213.24805 128.70898 L 214.4043 128.70898 L 214.4043 127.76758 L 213.24805 127.76758 C 212.77928 127.76758 212.4674 127.68827 212.3125 127.5293 C 212.16168 127.37032 212.08594 127.01156 212.08594 126.45312 L 212.08594 122.73633 L 214.4043 122.73633 L 214.4043 121.86133 L 212.08594 121.86133 L 212.08594 119.91602 L 210.95508 119.91602 z M 176.6543 121.69531 C 176.28744 121.69531 175.91068 121.73684 175.52344 121.81836 C 175.1362 121.89581 174.73592 122.01486 174.32422 122.17383 L 174.32422 123.21289 C 174.66662 123.02538 175.02359 122.88477 175.39453 122.79102 C 175.76546 122.69726 176.14579 122.65039 176.53711 122.65039 C 177.15262 122.65039 177.63042 122.79279 177.96875 123.07812 C 178.31115 123.35938 178.48242 123.75771 178.48242 124.27539 L 178.48242 124.38672 L 176.9043 124.38672 C 175.88117 124.38672 175.11143 124.58134 174.59375 124.97266 C 174.08015 125.36398 173.82227 125.94639 173.82227 126.7168 C 173.82227 127.37714 174.02971 127.90343 174.44141 128.29883 C 174.85718 128.69014 175.41412 128.88672 176.11523 128.88672 C 176.66959 128.88672 177.13832 128.78941 177.52148 128.59375 C 177.90465 128.39402 178.22562 128.0857 178.48242 127.66992 L 178.48242 128.70898 L 179.60742 128.70898 L 179.60742 124.80273 C 179.60742 123.75923 179.36219 122.9804 178.87305 122.4668 C 178.3839 121.9532 177.64482 121.69531 176.6543 121.69531 z M 185.22656 121.69531 C 184.74964 121.69531 184.3278 121.79815 183.96094 122.00195 C 183.59816 122.20577 183.28271 122.51408 183.01367 122.92578 L 183.01367 121.86133 L 181.88086 121.86133 L 181.88086 128.70898 L 183.01367 128.70898 L 183.01367 124.83789 C 183.01367 124.16939 183.1885 123.6431 183.53906 123.25586 C 183.88962 122.86862 184.36726 122.67383 184.97461 122.67383 C 185.48006 122.67383 185.86055 122.83618 186.11328 123.1582 C 186.366 123.48022 186.49219 123.96516 186.49219 124.61328 L 186.49219 128.70898 L 187.61719 128.70898 L 187.61719 124.57617 C 187.61719 123.63049 187.41527 122.91475 187.01172 122.42969 C 186.60817 121.94054 186.01327 121.69531 185.22656 121.69531 z M 192.81445 121.69531 C 191.74648 121.69531 190.90457 122.01628 190.28906 122.65625 C 189.67763 123.29621 189.37109 124.17413 189.37109 125.29102 C 189.37109 126.3916 189.67584 127.26595 190.2832 127.91406 C 190.89056 128.56218 191.70895 128.88672 192.74023 128.88672 C 193.11933 128.88672 193.4763 128.85072 193.81055 128.77734 C 194.14887 128.70398 194.4752 128.59206 194.78906 128.44531 L 194.78906 127.40625 C 194.47112 127.58152 194.15015 127.71501 193.82812 127.80469 C 193.51018 127.89029 193.18938 127.93359 192.86328 127.93359 C 192.13364 127.93359 191.56761 127.7028 191.16406 127.24219 C 190.76052 126.7775 190.55859 126.12664 190.55859 125.29102 C 190.55859 124.45539 190.76052 123.80827 191.16406 123.34766 C 191.56761 122.88297 192.13364 122.65039 192.86328 122.65039 C 193.18938 122.65039 193.51018 122.69548 193.82812 122.78516 C 194.15014 122.87076 194.47112 123.00051 194.78906 123.17578 L 194.78906 122.12305 C 194.47927 121.98038 194.1583 121.87593 193.82812 121.80664 C 193.49795 121.73327 193.16093 121.69531 192.81445 121.69531 z M 199.61328 121.69531 C 198.58607 121.69531 197.76946 122.02715 197.16211 122.6875 C 196.55883 123.34377 196.25586 124.2306 196.25586 125.35156 C 196.25586 126.43584 196.57505 127.2977 197.21094 127.93359 C 197.8509 128.56948 198.71617 128.88672 199.80859 128.88672 C 200.24475 128.88672 200.67568 128.84163 201.09961 128.75195 C 201.52353 128.66227 201.9363 128.53253 202.33984 128.36133 L 202.33984 127.29688 C 201.94038 127.50884 201.53653 127.66745 201.12891 127.77344 C 200.72536 127.87942 200.30903 127.93359 199.87695 127.93359 C 199.13101 127.93359 198.54681 127.73167 198.12695 127.32812 C 197.7112 126.9205 197.47862 126.32917 197.42969 125.55469 L 202.60352 125.55469 L 202.60352 125.00391 C 202.60352 123.98485 202.33493 123.17894 201.79688 122.58789 C 201.26289 121.99276 200.53451 121.69531 199.61328 121.69531 z M 206.62695 121.69531 C 205.78725 121.69531 205.13817 121.8721 204.68164 122.22266 C 204.2251 122.57321 203.99805 123.06885 203.99805 123.71289 C 203.99805 124.2428 204.15114 124.66108 204.46094 124.9668 C 204.77073 125.26844 205.27562 125.49388 205.97266 125.64062 L 206.36328 125.73242 C 207.06031 125.88324 207.51104 126.04008 207.71484 126.20312 C 207.92273 126.36618 208.02734 126.60054 208.02734 126.90625 C 208.02734 127.23642 207.88299 127.49235 207.59766 127.67578 C 207.31232 127.85513 206.90491 127.94531 206.375 127.94531 C 205.97961 127.94531 205.58128 127.89114 205.17773 127.78516 C 204.77419 127.6751 204.36499 127.51292 203.94922 127.29688 L 203.94922 128.45898 C 204.38945 128.60165 204.80578 128.70805 205.20117 128.77734 C 205.60064 128.85072 205.9847 128.88672 206.35156 128.88672 C 207.23202 128.88672 207.92245 128.70101 208.42383 128.33008 C 208.92927 127.95914 209.18164 127.45621 209.18164 126.82031 C 209.18164 126.26187 209.01215 125.82737 208.67383 125.51758 C 208.33958 125.20371 207.77355 124.96026 206.97461 124.78906 L 206.58984 124.70508 C 205.98656 124.57056 205.5845 124.42994 205.38477 124.2832 C 205.18503 124.13238 205.08594 123.92494 205.08594 123.66406 C 205.08594 123.32166 205.22477 123.06574 205.50195 122.89453 C 205.78321 122.72333 206.20328 122.63672 206.76172 122.63672 C 207.12858 122.63672 207.48182 122.67824 207.82422 122.75977 C 208.16662 122.84129 208.49651 122.96391 208.81445 123.12695 L 208.81445 122.0625 C 208.50466 121.9402 208.16764 121.84824 207.80078 121.78711 C 207.43392 121.72598 207.04273 121.69531 206.62695 121.69531 z M 218.53711 121.69531 C 217.55474 121.69531 216.785 122.0145 216.22656 122.65039 C 215.6722 123.28628 215.39453 124.16598 215.39453 125.29102 C 215.39453 126.41198 215.6722 127.29363 216.22656 127.93359 C 216.785 128.56948 217.55474 128.88672 218.53711 128.88672 C 219.5154 128.88672 220.28335 128.56948 220.8418 127.93359 C 221.40024 127.29363 221.67969 126.41198 221.67969 125.29102 C 221.67969 124.16598 221.40024 123.28628 220.8418 122.65039 C 220.28335 122.0145 219.5154 121.69531 218.53711 121.69531 z M 226.9375 121.69531 C 226.39536 121.69531 225.93573 121.79815 225.55664 122.00195 C 225.17755 122.20169 224.86923 122.51001 224.63281 122.92578 L 224.63281 121.86133 L 223.50195 121.86133 L 223.50195 128.70898 L 224.63281 128.70898 L 224.63281 125.10156 C 224.63281 124.32708 224.8023 123.73396 225.14062 123.32227 C 225.48302 122.90649 225.97153 122.69922 226.60742 122.69922 C 226.78678 122.69922 226.95092 122.71724 227.09766 122.75391 C 227.24848 122.78651 227.38731 122.83874 227.51367 122.91211 L 227.50586 121.75781 C 227.39173 121.73741 227.28907 121.72298 227.19531 121.71484 C 227.10156 121.70264 227.01495 121.69531 226.9375 121.69531 z M 199.625 122.65039 C 200.17937 122.65039 200.62473 122.83236 200.95898 123.19922 C 201.29732 123.56608 201.47038 124.05832 201.47852 124.67383 L 197.4668 124.67969 C 197.52386 124.03564 197.74023 123.53627 198.11523 123.18164 C 198.49433 122.82701 198.99727 122.65039 199.625 122.65039 z M 218.53711 122.65039 C 219.13631 122.65039 219.61038 122.88831 219.96094 123.36523 C 220.31149 123.83807 220.48828 124.47985 220.48828 125.29102 C 220.48828 126.10626 220.31149 126.74981 219.96094 127.22266 C 219.61038 127.6955 219.13631 127.93359 218.53711 127.93359 C 217.92975 127.93359 217.45016 127.69728 217.09961 127.22852 C 216.75313 126.75568 216.58008 126.11034 216.58008 125.29102 C 216.58008 124.4717 216.75492 123.82814 217.10547 123.35938 C 217.45603 122.88653 217.93383 122.65039 218.53711 122.65039 z M 177.36328 125.26758 L 178.48242 125.26758 L 178.48242 125.51758 C 178.48242 126.2513 178.29315 126.84085 177.91406 127.28516 C 177.53905 127.72539 177.03968 127.94531 176.41602 127.94531 C 175.96356 127.94531 175.6048 127.82805 175.33984 127.5957 C 175.07896 127.35928 174.94727 127.04204 174.94727 126.64258 C 174.94727 126.1412 175.12406 125.78601 175.47461 125.57812 C 175.82516 125.37024 176.45428 125.26758 177.36328 125.26758 z "
     style="fill:#404040;stroke-width:0.3130534"
     id="path1254"
     d="m 210.95508,119.91602 v 1.94531 h -0.82617 v 0.875 h 0.82617 v 3.71679 c 0,0.85601 0.16592,1.44734 0.49609,1.77344 0.33018,0.32202 0.92864,0.48242 1.79688,0.48242 h 1.15625 v -0.9414 h -1.15625 c -0.46877,0 -0.78065,-0.0793 -0.93555,-0.23828 -0.15082,-0.15898 -0.22656,-0.51774 -0.22656,-1.07618 v -3.71679 h 2.31836 v -0.875 h -2.31836 v -1.94531 z m -34.30078,1.77929 c -0.36686,0 -0.74362,0.0415 -1.13086,0.12305 -0.38724,0.0774 -0.78752,0.1965 -1.19922,0.35547 v 1.03906 c 0.3424,-0.18751 0.69937,-0.32812 1.07031,-0.42187 0.37093,-0.0938 0.75126,-0.14063 1.14258,-0.14063 0.61551,0 1.09331,0.1424 1.43164,0.42773 0.3424,0.28126 0.51367,0.67959 0.51367,1.19727 v 0.11133 h -1.57812 c -1.02313,0 -1.79287,0.19462 -2.31055,0.58594 -0.5136,0.39132 -0.77148,0.97373 -0.77148,1.74414 0,0.66034 0.20744,1.18663 0.61914,1.58203 0.41577,0.39131 0.97271,0.58789 1.67382,0.58789 0.55436,0 1.02309,-0.0973 1.40625,-0.29297 0.38317,-0.19973 0.70414,-0.50805 0.96094,-0.92383 v 1.03906 h 1.125 v -3.90625 c 0,-1.0435 -0.24523,-1.82233 -0.73437,-2.33593 -0.48915,-0.5136 -1.22823,-0.77149 -2.21875,-0.77149 z m 8.57226,0 c -0.47692,0 -0.89876,0.10284 -1.26562,0.30664 -0.36278,0.20382 -0.67823,0.51213 -0.94727,0.92383 v -1.06445 h -1.13281 v 6.84765 h 1.13281 v -3.87109 c 0,-0.6685 0.17483,-1.19479 0.52539,-1.58203 0.35056,-0.38724 0.8282,-0.58203 1.43555,-0.58203 0.50545,0 0.88594,0.16235 1.13867,0.48437 0.25272,0.32202 0.37891,0.80696 0.37891,1.45508 v 4.0957 h 1.125 v -4.13281 c 0,-0.94568 -0.20192,-1.66142 -0.60547,-2.14648 -0.40355,-0.48915 -0.99845,-0.73438 -1.78516,-0.73438 z m 7.58789,0 c -1.06797,0 -1.90988,0.32097 -2.52539,0.96094 -0.61143,0.63996 -0.91797,1.51788 -0.91797,2.63477 0,1.10058 0.30475,1.97493 0.91211,2.62304 0.60736,0.64812 1.42575,0.97266 2.45703,0.97266 0.3791,0 0.73607,-0.036 1.07032,-0.10938 0.33832,-0.0734 0.66465,-0.18528 0.97851,-0.33203 v -1.03906 c -0.31794,0.17527 -0.63891,0.30876 -0.96094,0.39844 -0.31794,0.0856 -0.63874,0.1289 -0.96484,0.1289 -0.72964,0 -1.29567,-0.23079 -1.69922,-0.6914 -0.40354,-0.46469 -0.60547,-1.11555 -0.60547,-1.95117 0,-0.83563 0.20193,-1.48275 0.60547,-1.94336 0.40355,-0.46469 0.96958,-0.69727 1.69922,-0.69727 0.3261,0 0.6469,0.0451 0.96484,0.13477 0.32202,0.0856 0.643,0.21535 0.96094,0.39062 v -1.05273 c -0.30979,-0.14267 -0.63076,-0.24712 -0.96094,-0.31641 -0.33017,-0.0734 -0.66719,-0.11133 -1.01367,-0.11133 z m 6.79883,0 c -1.02721,0 -1.84382,0.33184 -2.45117,0.99219 -0.60328,0.65627 -0.90625,1.5431 -0.90625,2.66406 0,1.08428 0.31919,1.94614 0.95508,2.58203 0.63996,0.63589 1.50523,0.95313 2.59765,0.95313 0.43616,0 0.86709,-0.0451 1.29102,-0.13477 0.42392,-0.0897 0.83669,-0.21942 1.24023,-0.39062 v -1.06445 c -0.39946,0.21196 -0.80331,0.37057 -1.21093,0.47656 -0.40355,0.10598 -0.81988,0.16015 -1.25196,0.16015 -0.74594,0 -1.33014,-0.20192 -1.75,-0.60547 -0.41575,-0.40762 -0.64833,-0.99895 -0.69726,-1.77343 h 5.17383 v -0.55078 c 0,-1.01906 -0.26859,-1.82497 -0.80664,-2.41602 -0.53399,-0.59513 -1.26237,-0.89258 -2.1836,-0.89258 z m 7.01367,0 c -0.8397,0 -1.48878,0.17679 -1.94531,0.52735 -0.45654,0.35055 -0.68359,0.84619 -0.68359,1.49023 0,0.52991 0.15309,0.94819 0.46289,1.25391 0.30979,0.30164 0.81468,0.52708 1.51172,0.67382 l 0.39062,0.0918 c 0.69703,0.15082 1.14776,0.30766 1.35156,0.4707 0.20789,0.16306 0.3125,0.39742 0.3125,0.70313 0,0.33017 -0.14435,0.5861 -0.42968,0.76953 -0.28534,0.17935 -0.69275,0.26953 -1.22266,0.26953 -0.39539,0 -0.79372,-0.0542 -1.19727,-0.16015 -0.40354,-0.11006 -0.81274,-0.27224 -1.22851,-0.48828 v 1.1621 c 0.44023,0.14267 0.85656,0.24907 1.25195,0.31836 0.39947,0.0734 0.78353,0.10938 1.15039,0.10938 0.88046,0 1.57089,-0.18571 2.07227,-0.55664 0.50544,-0.37094 0.75781,-0.87387 0.75781,-1.50977 0,-0.55844 -0.16949,-0.99294 -0.50781,-1.30273 -0.33425,-0.31387 -0.90028,-0.55732 -1.69922,-0.72852 l -0.38477,-0.084 c -0.60328,-0.13452 -1.00534,-0.27514 -1.20507,-0.42188 -0.19974,-0.15082 -0.29883,-0.35826 -0.29883,-0.61914 0,-0.3424 0.13883,-0.59832 0.41601,-0.76953 0.28126,-0.1712 0.70133,-0.25781 1.25977,-0.25781 0.36686,0 0.7201,0.0415 1.0625,0.12305 0.3424,0.0815 0.67229,0.20414 0.99023,0.36718 v -1.06445 c -0.30979,-0.1223 -0.64681,-0.21426 -1.01367,-0.27539 -0.36686,-0.0611 -0.75805,-0.0918 -1.17383,-0.0918 z m 11.91016,0 c -0.98237,0 -1.75211,0.31919 -2.31055,0.95508 -0.55436,0.63589 -0.83203,1.51559 -0.83203,2.64063 0,1.12096 0.27767,2.00261 0.83203,2.64257 0.55844,0.63589 1.32818,0.95313 2.31055,0.95313 0.97829,0 1.74624,-0.31724 2.30469,-0.95313 0.55844,-0.63996 0.83789,-1.52161 0.83789,-2.64257 0,-1.12504 -0.27945,-2.00474 -0.83789,-2.64063 -0.55845,-0.63589 -1.3264,-0.95508 -2.30469,-0.95508 z m 8.40039,0 c -0.54214,0 -1.00177,0.10284 -1.38086,0.30664 -0.37909,0.19974 -0.68741,0.50806 -0.92383,0.92383 v -1.06445 h -1.13086 v 6.84765 h 1.13086 v -3.60742 c 0,-0.77448 0.16949,-1.3676 0.50781,-1.77929 0.3424,-0.41578 0.83091,-0.62305 1.4668,-0.62305 0.17936,0 0.3435,0.018 0.49024,0.0547 0.15082,0.0326 0.28965,0.0848 0.41601,0.1582 l -0.008,-1.1543 c -0.11413,-0.0204 -0.21679,-0.0348 -0.31055,-0.043 -0.0937,-0.0122 -0.18036,-0.0195 -0.25781,-0.0195 z m -27.3125,0.95508 c 0.55437,0 0.99973,0.18197 1.33398,0.54883 0.33834,0.36686 0.5114,0.8591 0.51954,1.47461 l -4.01172,0.006 c 0.0571,-0.64405 0.27343,-1.14342 0.64843,-1.49805 0.3791,-0.35463 0.88204,-0.53125 1.50977,-0.53125 z m 18.91211,0 c 0.5992,0 1.07327,0.23792 1.42383,0.71484 0.35055,0.47284 0.52734,1.11462 0.52734,1.92579 0,0.81524 -0.17679,1.45879 -0.52734,1.93164 -0.35056,0.47284 -0.82463,0.71093 -1.42383,0.71093 -0.60736,0 -1.08695,-0.23631 -1.4375,-0.70507 -0.34648,-0.47284 -0.51953,-1.11818 -0.51953,-1.9375 0,-0.81932 0.17484,-1.46288 0.52539,-1.93164 0.35056,-0.47285 0.82836,-0.70899 1.43164,-0.70899 z m -41.17383,2.61719 h 1.11914 v 0.25 c 0,0.73372 -0.18927,1.32327 -0.56836,1.76758 -0.37501,0.44023 -0.87438,0.66015 -1.49804,0.66015 -0.45246,0 -0.81122,-0.11726 -1.07618,-0.34961 -0.26088,-0.23642 -0.39257,-0.55366 -0.39257,-0.95312 0,-0.50138 0.17679,-0.85657 0.52734,-1.06446 0.35055,-0.20788 0.97967,-0.31054 1.88867,-0.31054 z" /></g><path
   class="st1"
   d="m 199.04193,578.05569 v -23.5 m 10.9,14.8 -10.9,10.9 -10.8,-10.9"
   id="path381-3-5"
   inkscape:connector-curvature="0"
   style="fill:none;stroke:#404040;stroke-width:4;stroke-linecap:round;stroke-linejoin:round;stroke-miterlimit:10" /><path
   class="st4"
   d="m 129.14193,482.55569 h 141.6 v 50 h -141.6 z"
   id="path383-6-3"
   inkscape:connector-curvature="0"
   style="fill:#71c837;stroke:#404040;stroke-width:4;stroke-linecap:round;stroke-linejoin:round;stroke-miterlimit:10" /><g
   aria-label="Lowest common"
   style="font-style:normal;font-weight:normal;font-size:12.43494129px;line-height:1.25;font-family:sans-serif;letter-spacing:0px;word-spacing:0px;fill:#404040;fill-opacity:1;stroke:none;stroke-width:0.31087351"
   id="text871-5"><path
     sodipodi:type="inkscape:offset"
     inkscape:radius="0"
     inkscape:original="M 150.85742 495.08594 L 150.85742 504.15039 L 156.49805 504.15039 L 156.49805 503.11914 L 152.08398 503.11914 L 152.08398 495.08594 L 150.85742 495.08594 z M 189.4082 495.41992 L 189.4082 497.34961 L 188.58789 497.34961 L 188.58789 498.21875 L 189.4082 498.21875 L 189.4082 501.91016 C 189.4082 502.7602 189.57056 503.34805 189.89844 503.67188 C 190.22631 503.99165 190.82141 504.15039 191.68359 504.15039 L 192.83203 504.15039 L 192.83203 503.21484 L 191.68359 503.21484 C 191.21809 503.21484 190.90967 503.13638 190.75586 502.97852 C 190.60609 502.82065 190.53125 502.46471 190.53125 501.91016 L 190.53125 498.21875 L 192.83203 498.21875 L 192.83203 497.34961 L 190.53125 497.34961 L 190.53125 495.41992 L 189.4082 495.41992 z M 160.1543 497.18555 C 159.17877 497.18555 158.41393 497.50135 157.85938 498.13281 C 157.30887 498.76427 157.0332 499.63865 157.0332 500.75586 C 157.0332 501.86901 157.30887 502.7434 157.85938 503.37891 C 158.41393 504.01037 159.17877 504.32617 160.1543 504.32617 C 161.12578 504.32617 161.88881 504.01037 162.44336 503.37891 C 162.99791 502.7434 163.27539 501.86901 163.27539 500.75586 C 163.27539 499.63865 162.99791 498.76427 162.44336 498.13281 C 161.88881 497.50135 161.12578 497.18555 160.1543 497.18555 z M 178.14453 497.18555 C 177.12448 497.18555 176.31211 497.51418 175.70898 498.16992 C 175.1099 498.82162 174.81055 499.70325 174.81055 500.81641 C 174.81055 501.89313 175.12635 502.74745 175.75781 503.37891 C 176.39332 504.01037 177.25307 504.32617 178.33789 504.32617 C 178.77101 504.32617 179.19817 504.28241 179.61914 504.19336 C 180.04011 504.10431 180.45083 503.97469 180.85156 503.80469 L 180.85156 502.74805 C 180.45488 502.95853 180.05517 503.11546 179.65039 503.2207 C 179.24965 503.32594 178.83532 503.37891 178.40625 503.37891 C 177.6655 503.37891 177.08685 503.18003 176.66992 502.7793 C 176.25707 502.37451 176.02516 501.78666 175.97656 501.01758 L 181.11328 501.01758 L 181.11328 500.4707 C 181.11328 499.45874 180.84681 498.65921 180.3125 498.07227 C 179.78223 497.48129 179.05934 497.18555 178.14453 497.18555 z M 185.10938 497.18555 C 184.27552 497.18555 183.63109 497.36087 183.17773 497.70898 C 182.72438 498.0571 182.49805 498.54989 182.49805 499.18945 C 182.49805 499.71567 182.65135 500.13196 182.95898 500.43555 C 183.26662 500.73509 183.7668 500.95779 184.45898 501.10352 L 184.84766 501.19336 C 185.53983 501.34313 185.98706 501.5002 186.18945 501.66211 C 186.39589 501.82402 186.5 502.05579 186.5 502.35938 C 186.5 502.68725 186.35757 502.94285 186.07422 503.125 C 185.79087 503.30311 185.3856 503.39258 184.85938 503.39258 C 184.46674 503.39258 184.07066 503.33962 183.66992 503.23438 C 183.26918 503.12508 182.86209 502.96258 182.44922 502.74805 L 182.44922 503.90234 C 182.88638 504.04402 183.30072 504.14798 183.69336 504.2168 C 184.09005 504.28966 184.47163 504.32617 184.83594 504.32617 C 185.71027 504.32617 186.39664 504.14179 186.89453 503.77344 C 187.39646 503.40508 187.64648 502.90686 187.64648 502.27539 C 187.64648 501.72084 187.47854 501.2881 187.14258 500.98047 C 186.81065 500.66879 186.24845 500.42783 185.45508 500.25781 L 185.07227 500.17383 C 184.47319 500.04025 184.07529 499.89963 183.87695 499.75391 C 183.67861 499.60413 183.57812 499.39969 183.57812 499.14062 C 183.57813 498.80061 183.71693 498.54697 183.99219 498.37695 C 184.27149 498.20695 184.68763 498.12109 185.24219 498.12109 C 185.60649 498.12109 185.95881 498.16123 186.29883 498.24219 C 186.63885 498.32315 186.96747 498.44551 187.2832 498.60742 L 187.2832 497.55078 C 186.97556 497.42937 186.63969 497.33808 186.27539 497.27734 C 185.91108 497.21661 185.52225 497.18555 185.10938 497.18555 z M 201.1875 497.18555 C 200.12697 497.18555 199.29091 497.50317 198.67969 498.13867 C 198.07251 498.77419 197.76758 499.64675 197.76758 500.75586 C 197.76758 501.84877 198.0707 502.71772 198.67383 503.36133 C 199.27695 504.00493 200.08918 504.32617 201.11328 504.32617 C 201.48973 504.32617 201.84385 504.28966 202.17578 504.2168 C 202.51175 504.14394 202.83675 504.03439 203.14844 503.88867 L 203.14844 502.85742 C 202.8327 503.03148 202.51509 503.1629 202.19531 503.25195 C 201.87958 503.33695 201.5582 503.37891 201.23438 503.37891 C 200.50982 503.37891 199.94761 503.15076 199.54688 502.69336 C 199.14614 502.23191 198.94531 501.58567 198.94531 500.75586 C 198.94531 499.92605 199.14614 499.28358 199.54688 498.82617 C 199.94761 498.36472 200.50982 498.13281 201.23438 498.13281 C 201.5582 498.13281 201.87958 498.17852 202.19531 498.26758 C 202.51509 498.35258 202.8327 498.4822 203.14844 498.65625 L 203.14844 497.61133 C 202.8408 497.46965 202.52319 497.36374 202.19531 497.29492 C 201.86744 497.22206 201.53157 497.18555 201.1875 497.18555 z M 207.72656 497.18555 C 206.75104 497.18555 205.98619 497.50135 205.43164 498.13281 C 204.88113 498.76427 204.60547 499.63865 204.60547 500.75586 C 204.60547 501.86901 204.88113 502.7434 205.43164 503.37891 C 205.98619 504.01037 206.75104 504.32617 207.72656 504.32617 C 208.69804 504.32617 209.46107 504.01037 210.01562 503.37891 C 210.57018 502.7434 210.84766 501.86901 210.84766 500.75586 C 210.84766 499.63865 210.57018 498.76427 210.01562 498.13281 C 209.46107 497.50135 208.69804 497.18555 207.72656 497.18555 z M 215.96484 497.18555 C 215.47506 497.18555 215.05348 497.28603 214.69727 497.48438 C 214.34106 497.68272 214.03431 497.98932 213.7793 498.40625 L 213.7793 497.34961 L 212.65625 497.34961 L 212.65625 504.15039 L 213.7793 504.15039 L 213.7793 500.30664 C 213.7793 499.64684 213.94724 499.12477 214.2832 498.74023 C 214.61918 498.35164 215.07184 498.1582 215.64258 498.1582 C 216.12427 498.1582 216.48216 498.31513 216.71289 498.63086 C 216.94362 498.94254 217.05859 499.42628 217.05859 500.08203 L 217.05859 504.15039 L 218.18164 504.15039 L 218.18164 500.30664 C 218.18164 499.64279 218.34958 499.11892 218.68555 498.73438 C 219.02152 498.34983 219.47975 498.1582 220.05859 498.1582 C 220.53219 498.1582 220.88255 498.31513 221.11328 498.63086 C 221.34401 498.94659 221.46094 499.43033 221.46094 500.08203 L 221.46094 504.15039 L 222.58398 504.15039 L 222.58398 500.04688 C 222.58398 499.13207 222.3904 498.42743 222.00586 497.93359 C 221.62131 497.43571 221.07556 497.18555 220.36719 497.18555 C 219.84097 497.18555 219.38469 497.3061 218.99609 497.54492 C 218.6075 497.78375 218.27344 498.15432 217.99414 498.65625 C 217.82818 498.17861 217.57077 497.81347 217.22266 497.5625 C 216.87859 497.31153 216.45868 497.18555 215.96484 497.18555 z M 228.07812 497.18555 C 227.58834 497.18555 227.1648 497.28603 226.80859 497.48438 C 226.45238 497.68272 226.14759 497.98932 225.89258 498.40625 L 225.89258 497.34961 L 224.76953 497.34961 L 224.76953 504.15039 L 225.89258 504.15039 L 225.89258 500.30664 C 225.89258 499.64684 226.06051 499.12477 226.39648 498.74023 C 226.73245 498.35164 227.18511 498.1582 227.75586 498.1582 C 228.23755 498.1582 228.59545 498.31513 228.82617 498.63086 C 229.0569 498.94254 229.17188 499.42628 229.17188 500.08203 L 229.17188 504.15039 L 230.29492 504.15039 L 230.29492 500.30664 C 230.29492 499.64279 230.46285 499.11892 230.79883 498.73438 C 231.13479 498.34983 231.59108 498.1582 232.16992 498.1582 C 232.64352 498.1582 232.99584 498.31513 233.22656 498.63086 C 233.45729 498.94659 233.57422 499.43033 233.57422 500.08203 L 233.57422 504.15039 L 234.69727 504.15039 L 234.69727 500.04688 C 234.69727 499.13207 234.50369 498.42743 234.11914 497.93359 C 233.7346 497.43571 233.18884 497.18555 232.48047 497.18555 C 231.95425 497.18555 231.49601 497.3061 231.10742 497.54492 C 230.71883 497.78375 230.38672 498.15432 230.10742 498.65625 C 229.94146 498.17861 229.68405 497.81347 229.33594 497.5625 C 228.99187 497.31153 228.57196 497.18555 228.07812 497.18555 z M 239.56055 497.18555 C 238.58502 497.18555 237.82018 497.50135 237.26562 498.13281 C 236.71512 498.76427 236.43945 499.63865 236.43945 500.75586 C 236.43945 501.86901 236.71512 502.7434 237.26562 503.37891 C 237.82018 504.01037 238.58502 504.32617 239.56055 504.32617 C 240.53203 504.32617 241.29506 504.01037 241.84961 503.37891 C 242.40416 502.7434 242.68164 501.86901 242.68164 500.75586 C 242.68164 499.63865 242.40416 498.76427 241.84961 498.13281 C 241.29506 497.50135 240.53203 497.18555 239.56055 497.18555 z M 247.8125 497.18555 C 247.3389 497.18555 246.91899 497.28784 246.55469 497.49023 C 246.19443 497.69262 245.88044 497.99742 245.61328 498.40625 L 245.61328 497.34961 L 244.49023 497.34961 L 244.49023 504.15039 L 245.61328 504.15039 L 245.61328 500.30664 C 245.61328 499.64279 245.78861 499.11892 246.13672 498.73438 C 246.48483 498.34983 246.95937 498.1582 247.5625 498.1582 C 248.06443 498.1582 248.44044 498.31694 248.69141 498.63672 C 248.94237 498.9565 249.06836 499.43843 249.06836 500.08203 L 249.06836 504.15039 L 250.18555 504.15039 L 250.18555 500.04688 C 250.18555 499.10778 249.98472 498.39576 249.58398 497.91406 C 249.18324 497.42832 248.59373 497.18555 247.8125 497.18555 z M 164.47656 497.34961 L 166.25586 504.15039 L 167.57422 504.15039 L 169.04297 498.57617 L 170.50586 504.15039 L 171.82422 504.15039 L 173.60352 497.34961 L 172.48633 497.34961 L 171.0957 502.65625 L 169.69922 497.34961 L 168.38086 497.34961 L 166.99023 502.65625 L 165.59375 497.34961 L 164.47656 497.34961 z M 160.1543 498.13281 C 160.74933 498.13281 161.22025 498.37015 161.56836 498.84375 C 161.91647 499.3133 162.08984 499.95034 162.08984 500.75586 C 162.08984 501.56543 161.91647 502.20623 161.56836 502.67578 C 161.22025 503.14533 160.74933 503.37891 160.1543 503.37891 C 159.55117 503.37891 159.07468 503.14714 158.72656 502.68164 C 158.3825 502.21209 158.21094 501.56947 158.21094 500.75586 C 158.21094 499.94225 158.38431 499.3034 158.73242 498.83789 C 159.08054 498.36834 159.55522 498.13281 160.1543 498.13281 z M 178.15625 498.13281 C 178.70675 498.13281 179.14854 498.31538 179.48047 498.67969 C 179.81647 499.04399 179.98803 499.53136 179.99609 500.14258 L 176.01367 500.14844 C 176.07034 499.50888 176.28385 499.01428 176.65625 498.66211 C 177.0327 498.30995 177.53288 498.13281 178.15625 498.13281 z M 207.72656 498.13281 C 208.3216 498.13281 208.79251 498.37015 209.14062 498.84375 C 209.48874 499.3133 209.66211 499.95034 209.66211 500.75586 C 209.66211 501.56543 209.48874 502.20623 209.14062 502.67578 C 208.79251 503.14533 208.3216 503.37891 207.72656 503.37891 C 207.12344 503.37891 206.64694 503.14714 206.29883 502.68164 C 205.95476 502.21209 205.7832 501.56947 205.7832 500.75586 C 205.7832 499.94225 205.95657 499.3034 206.30469 498.83789 C 206.6528 498.36834 207.12748 498.13281 207.72656 498.13281 z M 239.56055 498.13281 C 240.15557 498.13281 240.62649 498.37015 240.97461 498.84375 C 241.32272 499.3133 241.49609 499.95034 241.49609 500.75586 C 241.49609 501.56543 241.32272 502.20623 240.97461 502.67578 C 240.62649 503.14533 240.15557 503.37891 239.56055 503.37891 C 238.95742 503.37891 238.48093 503.14714 238.13281 502.68164 C 237.78875 502.21209 237.61719 501.56947 237.61719 500.75586 C 237.61719 499.94225 237.79056 499.3034 238.13867 498.83789 C 238.48679 498.36834 238.96147 498.13281 239.56055 498.13281 z "
     style="fill:#404040;stroke-width:0.31087351"
     id="path1282"
     d="m 150.85742,495.08594 v 9.06445 h 5.64063 v -1.03125 h -4.41407 v -8.0332 z m 38.55078,0.33398 v 1.92969 h -0.82031 v 0.86914 h 0.82031 v 3.69141 c 0,0.85004 0.16236,1.43789 0.49024,1.76172 0.32787,0.31977 0.92297,0.47851 1.78515,0.47851 h 1.14844 v -0.93555 h -1.14844 c -0.4655,0 -0.77392,-0.0785 -0.92773,-0.23632 -0.14977,-0.15787 -0.22461,-0.51381 -0.22461,-1.06836 v -3.69141 h 2.30078 v -0.86914 h -2.30078 v -1.92969 z m -29.2539,1.76563 c -0.97553,0 -1.74037,0.3158 -2.29492,0.94726 -0.55051,0.63146 -0.82618,1.50584 -0.82618,2.62305 0,1.11315 0.27567,1.98754 0.82618,2.62305 0.55455,0.63146 1.31939,0.94726 2.29492,0.94726 0.97148,0 1.73451,-0.3158 2.28906,-0.94726 0.55455,-0.63551 0.83203,-1.5099 0.83203,-2.62305 0,-1.11721 -0.27748,-1.99159 -0.83203,-2.62305 -0.55455,-0.63146 -1.31758,-0.94726 -2.28906,-0.94726 z m 17.99023,0 c -1.02005,0 -1.83242,0.32863 -2.43555,0.98437 -0.59908,0.6517 -0.89843,1.53333 -0.89843,2.64649 0,1.07672 0.3158,1.93104 0.94726,2.5625 0.63551,0.63146 1.49526,0.94726 2.58008,0.94726 0.43312,0 0.86028,-0.0438 1.28125,-0.13281 0.42097,-0.089 0.83169,-0.21867 1.23242,-0.38867 v -1.05664 c -0.39668,0.21048 -0.79639,0.36741 -1.20117,0.47265 -0.40074,0.10524 -0.81507,0.15821 -1.24414,0.15821 -0.74075,0 -1.3194,-0.19888 -1.73633,-0.59961 -0.41285,-0.40479 -0.64476,-0.99264 -0.69336,-1.76172 h 5.13672 v -0.54688 c 0,-1.01196 -0.26647,-1.81149 -0.80078,-2.39843 -0.53027,-0.59098 -1.25316,-0.88672 -2.16797,-0.88672 z m 6.96485,0 c -0.83386,0 -1.47829,0.17532 -1.93165,0.52343 -0.45335,0.34812 -0.67968,0.84091 -0.67968,1.48047 0,0.52622 0.1533,0.94251 0.46093,1.2461 0.30764,0.29954 0.80782,0.52224 1.5,0.66797 l 0.38868,0.0898 c 0.69217,0.14977 1.1394,0.30684 1.34179,0.46875 0.20644,0.16191 0.31055,0.39368 0.31055,0.69727 0,0.32787 -0.14243,0.58347 -0.42578,0.76562 -0.28335,0.17811 -0.68862,0.26758 -1.21484,0.26758 -0.39264,0 -0.78872,-0.053 -1.18946,-0.1582 -0.40074,-0.1093 -0.80783,-0.2718 -1.2207,-0.48633 v 1.15429 c 0.43716,0.14168 0.8515,0.24564 1.24414,0.31446 0.39669,0.0729 0.77827,0.10937 1.14258,0.10937 0.87433,0 1.5607,-0.18438 2.05859,-0.55273 0.50193,-0.36836 0.75195,-0.86658 0.75195,-1.49805 0,-0.55455 -0.16794,-0.98729 -0.5039,-1.29492 -0.33193,-0.31168 -0.89413,-0.55264 -1.6875,-0.72266 l -0.38281,-0.084 c -0.59908,-0.13358 -0.99698,-0.2742 -1.19532,-0.41992 -0.19834,-0.14978 -0.29883,-0.35422 -0.29883,-0.61329 10e-6,-0.34001 0.13881,-0.59365 0.41407,-0.76367 0.2793,-0.17 0.69544,-0.25586 1.25,-0.25586 0.3643,0 0.71662,0.0401 1.05664,0.1211 0.34002,0.081 0.66864,0.20332 0.98437,0.36523 v -1.05664 c -0.30764,-0.12141 -0.64351,-0.2127 -1.00781,-0.27344 -0.36431,-0.0607 -0.75314,-0.0918 -1.16601,-0.0918 z m 16.07812,0 c -1.06053,0 -1.89659,0.31762 -2.50781,0.95312 -0.60718,0.63552 -0.91211,1.50808 -0.91211,2.61719 0,1.09291 0.30312,1.96186 0.90625,2.60547 0.60312,0.6436 1.41535,0.96484 2.43945,0.96484 0.37645,0 0.73057,-0.0365 1.0625,-0.10937 0.33597,-0.0729 0.66097,-0.18241 0.97266,-0.32813 v -1.03125 c -0.31574,0.17406 -0.63335,0.30548 -0.95313,0.39453 -0.31573,0.085 -0.63711,0.12696 -0.96093,0.12696 -0.72456,0 -1.28677,-0.22815 -1.6875,-0.68555 -0.40074,-0.46145 -0.60157,-1.10769 -0.60157,-1.9375 0,-0.82981 0.20083,-1.47228 0.60157,-1.92969 0.40073,-0.46145 0.96294,-0.69336 1.6875,-0.69336 0.32382,0 0.6452,0.0457 0.96093,0.13477 0.31978,0.085 0.63739,0.21462 0.95313,0.38867 v -1.04492 c -0.30764,-0.14168 -0.62525,-0.24759 -0.95313,-0.31641 -0.32787,-0.0729 -0.66374,-0.10937 -1.00781,-0.10937 z m 6.53906,0 c -0.97552,0 -1.74037,0.3158 -2.29492,0.94726 -0.55051,0.63146 -0.82617,1.50584 -0.82617,2.62305 0,1.11315 0.27566,1.98754 0.82617,2.62305 0.55455,0.63146 1.3194,0.94726 2.29492,0.94726 0.97148,0 1.73451,-0.3158 2.28906,-0.94726 0.55456,-0.63551 0.83204,-1.5099 0.83204,-2.62305 0,-1.11721 -0.27748,-1.99159 -0.83204,-2.62305 -0.55455,-0.63146 -1.31758,-0.94726 -2.28906,-0.94726 z m 8.23828,0 c -0.48978,0 -0.91136,0.10048 -1.26757,0.29883 -0.35621,0.19834 -0.66296,0.50494 -0.91797,0.92187 v -1.05664 h -1.12305 v 6.80078 h 1.12305 v -3.84375 c 0,-0.6598 0.16794,-1.18187 0.5039,-1.56641 0.33598,-0.38859 0.78864,-0.58203 1.35938,-0.58203 0.48169,0 0.83958,0.15693 1.07031,0.47266 0.23073,0.31168 0.3457,0.79542 0.3457,1.45117 v 4.06836 h 1.12305 v -3.84375 c 0,-0.66385 0.16794,-1.18772 0.50391,-1.57226 0.33597,-0.38455 0.7942,-0.57618 1.37304,-0.57618 0.4736,0 0.82396,0.15693 1.05469,0.47266 0.23073,0.31573 0.34766,0.79947 0.34766,1.45117 v 4.06836 h 1.12304 v -4.10351 c 0,-0.91481 -0.19358,-1.61945 -0.57812,-2.11329 -0.38455,-0.49788 -0.9303,-0.74804 -1.63867,-0.74804 -0.52622,0 -0.9825,0.12055 -1.3711,0.35937 -0.38859,0.23883 -0.72265,0.6094 -1.00195,1.11133 -0.16596,-0.47764 -0.42337,-0.84278 -0.77148,-1.09375 -0.34407,-0.25097 -0.76398,-0.37695 -1.25782,-0.37695 z m 12.11328,0 c -0.48978,0 -0.91332,0.10048 -1.26953,0.29883 -0.35621,0.19834 -0.661,0.50494 -0.91601,0.92187 v -1.05664 h -1.12305 v 6.80078 h 1.12305 v -3.84375 c 0,-0.6598 0.16793,-1.18187 0.5039,-1.56641 0.33597,-0.38859 0.78863,-0.58203 1.35938,-0.58203 0.48169,0 0.83959,0.15693 1.07031,0.47266 0.23073,0.31168 0.34571,0.79542 0.34571,1.45117 v 4.06836 h 1.12304 v -3.84375 c 0,-0.66385 0.16793,-1.18772 0.50391,-1.57226 0.33596,-0.38455 0.79225,-0.57618 1.37109,-0.57618 0.4736,0 0.82592,0.15693 1.05664,0.47266 0.23073,0.31573 0.34766,0.79947 0.34766,1.45117 v 4.06836 h 1.12305 v -4.10351 c 0,-0.91481 -0.19358,-1.61945 -0.57813,-2.11329 -0.38454,-0.49788 -0.9303,-0.74804 -1.63867,-0.74804 -0.52622,0 -0.98446,0.12055 -1.37305,0.35937 -0.38859,0.23883 -0.7207,0.6094 -1,1.11133 -0.16596,-0.47764 -0.42337,-0.84278 -0.77148,-1.09375 -0.34407,-0.25097 -0.76398,-0.37695 -1.25782,-0.37695 z m 11.48243,0 c -0.97553,0 -1.74037,0.3158 -2.29493,0.94726 -0.5505,0.63146 -0.82617,1.50584 -0.82617,2.62305 0,1.11315 0.27567,1.98754 0.82617,2.62305 0.55456,0.63146 1.3194,0.94726 2.29493,0.94726 0.97148,0 1.73451,-0.3158 2.28906,-0.94726 0.55455,-0.63551 0.83203,-1.5099 0.83203,-2.62305 0,-1.11721 -0.27748,-1.99159 -0.83203,-2.62305 -0.55455,-0.63146 -1.31758,-0.94726 -2.28906,-0.94726 z m 8.25195,0 c -0.4736,0 -0.89351,0.10229 -1.25781,0.30468 -0.36026,0.20239 -0.67425,0.50719 -0.94141,0.91602 v -1.05664 h -1.12305 v 6.80078 h 1.12305 v -3.84375 c 0,-0.66385 0.17533,-1.18772 0.52344,-1.57226 0.34811,-0.38455 0.82265,-0.57618 1.42578,-0.57618 0.50193,0 0.87794,0.15874 1.12891,0.47852 0.25096,0.31978 0.37695,0.80171 0.37695,1.44531 v 4.06836 h 1.11719 v -4.10351 c 0,-0.9391 -0.20083,-1.65112 -0.60157,-2.13282 -0.40074,-0.48574 -0.99025,-0.72851 -1.77148,-0.72851 z m -83.33594,0.16406 1.7793,6.80078 h 1.31836 l 1.46875,-5.57422 1.46289,5.57422 h 1.31836 l 1.7793,-6.80078 h -1.11719 l -1.39063,5.30664 -1.39648,-5.30664 h -1.31836 l -1.39063,5.30664 -1.39648,-5.30664 z m -4.32226,0.7832 c 0.59503,0 1.06595,0.23734 1.41406,0.71094 0.34811,0.46955 0.52148,1.10659 0.52148,1.91211 0,0.80957 -0.17337,1.45037 -0.52148,1.91992 -0.34811,0.46955 -0.81903,0.70313 -1.41406,0.70313 -0.60313,0 -1.07962,-0.23177 -1.42774,-0.69727 -0.34406,-0.46955 -0.51562,-1.11217 -0.51562,-1.92578 0,-0.81361 0.17337,-1.45246 0.52148,-1.91797 0.34812,-0.46955 0.8228,-0.70508 1.42188,-0.70508 z m 18.00195,0 c 0.5505,0 0.99229,0.18257 1.32422,0.54688 0.336,0.3643 0.50756,0.85167 0.51562,1.46289 l -3.98242,0.006 c 0.0567,-0.63956 0.27018,-1.13416 0.64258,-1.48633 0.37645,-0.35216 0.87663,-0.5293 1.5,-0.5293 z m 29.57031,0 c 0.59504,0 1.06595,0.23734 1.41406,0.71094 0.34812,0.46955 0.52149,1.10659 0.52149,1.91211 0,0.80957 -0.17337,1.45037 -0.52149,1.91992 -0.34811,0.46955 -0.81902,0.70313 -1.41406,0.70313 -0.60312,0 -1.07962,-0.23177 -1.42773,-0.69727 -0.34407,-0.46955 -0.51563,-1.11217 -0.51563,-1.92578 0,-0.81361 0.17337,-1.45246 0.52149,-1.91797 0.34811,-0.46955 0.82279,-0.70508 1.42187,-0.70508 z m 31.83399,0 c 0.59502,0 1.06594,0.23734 1.41406,0.71094 0.34811,0.46955 0.52148,1.10659 0.52148,1.91211 0,0.80957 -0.17337,1.45037 -0.52148,1.91992 -0.34812,0.46955 -0.81904,0.70313 -1.41406,0.70313 -0.60313,0 -1.07962,-0.23177 -1.42774,-0.69727 -0.34406,-0.46955 -0.51562,-1.11217 -0.51562,-1.92578 0,-0.81361 0.17337,-1.45246 0.52148,-1.91797 0.34812,-0.46955 0.8228,-0.70508 1.42188,-0.70508 z" /></g><g
   aria-label="ancestor"
   style="font-style:normal;font-weight:normal;font-size:12.52213573px;line-height:1.25;font-family:sans-serif;letter-spacing:0px;word-spacing:0px;fill:#404040;fill-opacity:1;stroke:none;stroke-width:0.3130534"
   id="text875-2"><path
     sodipodi:type="inkscape:offset"
     inkscape:radius="0"
     inkscape:original="M 210.73633 509.27539 L 210.73633 511.2207 L 209.91211 511.2207 L 209.91211 512.09375 L 210.73633 512.09375 L 210.73633 515.8125 C 210.73633 516.66851 210.90225 517.25984 211.23242 517.58594 C 211.5626 517.90796 212.16106 518.06836 213.0293 518.06836 L 214.18555 518.06836 L 214.18555 517.12695 L 213.0293 517.12695 C 212.56054 517.12695 212.24865 517.04765 212.09375 516.88867 C 211.94293 516.7297 211.86719 516.37094 211.86719 515.8125 L 211.86719 512.09375 L 214.18555 512.09375 L 214.18555 511.2207 L 211.86719 511.2207 L 211.86719 509.27539 L 210.73633 509.27539 z M 176.43555 511.05469 C 176.06869 511.05469 175.69193 511.09621 175.30469 511.17773 C 174.91745 511.25519 174.51716 511.37228 174.10547 511.53125 L 174.10547 512.57227 C 174.44787 512.38476 174.80485 512.24414 175.17578 512.15039 C 175.54672 512.05664 175.92705 512.00977 176.31836 512.00977 C 176.93387 512.00977 177.41167 512.15217 177.75 512.4375 C 178.09241 512.71876 178.26367 513.11709 178.26367 513.63477 L 178.26367 513.74609 L 176.68555 513.74609 C 175.66242 513.74609 174.89268 513.94072 174.375 514.33203 C 173.86139 514.72335 173.60352 515.30381 173.60352 516.07422 C 173.60352 516.73457 173.81096 517.26281 174.22266 517.6582 C 174.63843 518.04952 175.19538 518.24609 175.89648 518.24609 C 176.45085 518.24609 176.91957 518.14683 177.30273 517.95117 C 177.68589 517.75144 178.00687 517.44507 178.26367 517.0293 L 178.26367 518.06836 L 179.38867 518.06836 L 179.38867 514.16016 C 179.38867 513.11665 179.14344 512.33978 178.6543 511.82617 C 178.16515 511.31257 177.42607 511.05469 176.43555 511.05469 z M 185.00781 511.05469 C 184.53089 511.05469 184.10905 511.15752 183.74219 511.36133 C 183.37941 511.56514 183.06396 511.8715 182.79492 512.2832 L 182.79492 511.2207 L 181.66211 511.2207 L 181.66211 518.06836 L 182.79492 518.06836 L 182.79492 514.19727 C 182.79492 513.52877 182.96976 513.00052 183.32031 512.61328 C 183.67087 512.22604 184.15045 512.0332 184.75781 512.0332 C 185.26327 512.0332 185.64181 512.1936 185.89453 512.51562 C 186.14726 512.83764 186.27344 513.32258 186.27344 513.9707 L 186.27344 518.06836 L 187.39844 518.06836 L 187.39844 513.93555 C 187.39844 512.98987 187.19652 512.27413 186.79297 511.78906 C 186.38942 511.29992 185.79452 511.05469 185.00781 511.05469 z M 192.5957 511.05469 C 191.52774 511.05469 190.68582 511.37566 190.07031 512.01562 C 189.45888 512.65558 189.15234 513.5335 189.15234 514.65039 C 189.15234 515.75097 189.4571 516.62532 190.06445 517.27344 C 190.67181 517.92156 191.4902 518.24609 192.52148 518.24609 C 192.90057 518.24609 193.25754 518.20814 193.5918 518.13477 C 193.93012 518.0614 194.25645 517.95143 194.57031 517.80469 L 194.57031 516.76562 C 194.25237 516.9409 193.93335 517.07438 193.61133 517.16406 C 193.29338 517.24966 192.97062 517.29102 192.64453 517.29102 C 191.91488 517.29102 191.34886 517.06218 190.94531 516.60156 C 190.54177 516.13688 190.33984 515.48602 190.33984 514.65039 C 190.33984 513.81476 190.54177 513.16569 190.94531 512.70508 C 191.34886 512.24039 191.91488 512.00977 192.64453 512.00977 C 192.97062 512.00977 193.29338 512.0529 193.61133 512.14258 C 193.93335 512.22818 194.25237 512.35988 194.57031 512.53516 L 194.57031 511.48242 C 194.26052 511.33976 193.9415 511.23532 193.61133 511.16602 C 193.28115 511.09265 192.94218 511.05469 192.5957 511.05469 z M 199.39453 511.05469 C 198.36732 511.05469 197.55071 511.38458 196.94336 512.04492 C 196.34008 512.70119 196.03711 513.58998 196.03711 514.71094 C 196.03711 515.79521 196.3563 516.65512 196.99219 517.29102 C 197.63215 517.9269 198.49742 518.24609 199.58984 518.24609 C 200.026 518.24609 200.45693 518.201 200.88086 518.11133 C 201.30479 518.02165 201.71755 517.88995 202.12109 517.71875 L 202.12109 516.65625 C 201.72163 516.86821 201.31778 517.02683 200.91016 517.13281 C 200.50662 517.2388 200.09028 517.29102 199.6582 517.29102 C 198.91226 517.29102 198.32806 517.08909 197.9082 516.68555 C 197.49245 516.27793 197.25987 515.68854 197.21094 514.91406 L 202.38477 514.91406 L 202.38477 514.36328 C 202.38477 513.34422 202.11619 512.53831 201.57812 511.94727 C 201.04415 511.35214 200.31576 511.05469 199.39453 511.05469 z M 206.4082 511.05469 C 205.5685 511.05469 204.91942 511.22952 204.46289 511.58008 C 204.00635 511.93063 203.7793 512.42823 203.7793 513.07227 C 203.7793 513.60218 203.93435 514.02046 204.24414 514.32617 C 204.55393 514.62781 205.05687 514.8513 205.75391 514.99805 L 206.14453 515.08984 C 206.84156 515.24066 207.29228 515.3975 207.49609 515.56055 C 207.70398 515.7236 207.80859 515.95796 207.80859 516.26367 C 207.80859 516.59385 207.66619 516.85172 207.38086 517.03516 C 207.09553 517.21451 206.68616 517.30469 206.15625 517.30469 C 205.76086 517.30469 205.36252 517.25052 204.95898 517.14453 C 204.55544 517.03448 204.14624 516.87229 203.73047 516.65625 L 203.73047 517.81836 C 204.1707 517.96103 204.58703 518.06547 204.98242 518.13477 C 205.3819 518.20814 205.76595 518.24609 206.13281 518.24609 C 207.01327 518.24609 207.7037 518.06039 208.20508 517.68945 C 208.71053 517.31851 208.96289 516.81557 208.96289 516.17969 C 208.96289 515.62125 208.7934 515.18675 208.45508 514.87695 C 208.12082 514.56309 207.55479 514.31964 206.75586 514.14844 L 206.37109 514.0625 C 205.76781 513.92799 205.36575 513.78736 205.16602 513.64062 C 204.96628 513.48981 204.86719 513.28432 204.86719 513.02344 C 204.86719 512.68104 205.00602 512.42511 205.2832 512.25391 C 205.56446 512.08271 205.98452 511.99609 206.54297 511.99609 C 206.90982 511.99609 207.26306 512.03761 207.60547 512.11914 C 207.94787 512.20067 208.27776 512.32328 208.5957 512.48633 L 208.5957 511.42188 C 208.28591 511.29958 207.94889 511.20762 207.58203 511.14648 C 207.21517 511.08535 206.82398 511.05469 206.4082 511.05469 z M 218.31836 511.05469 C 217.33599 511.05469 216.56625 511.37388 216.00781 512.00977 C 215.45345 512.64566 215.17578 513.52536 215.17578 514.65039 C 215.17578 515.77135 215.45345 516.65105 216.00781 517.29102 C 216.56625 517.9269 217.33599 518.24609 218.31836 518.24609 C 219.29665 518.24609 220.06461 517.9269 220.62305 517.29102 C 221.18149 516.65105 221.46094 515.77135 221.46094 514.65039 C 221.46094 513.52536 221.18149 512.64566 220.62305 512.00977 C 220.06461 511.37388 219.29665 511.05469 218.31836 511.05469 z M 226.71875 511.05469 C 226.17661 511.05469 225.71698 511.15752 225.33789 511.36133 C 224.9588 511.56106 224.65048 511.86742 224.41406 512.2832 L 224.41406 511.2207 L 223.2832 511.2207 L 223.2832 518.06836 L 224.41406 518.06836 L 224.41406 514.46094 C 224.41406 513.68645 224.58355 513.09333 224.92188 512.68164 C 225.26428 512.26587 225.75279 512.05859 226.38867 512.05859 C 226.56803 512.05859 226.73216 512.07661 226.87891 512.11328 C 227.02973 512.14589 227.16856 512.19811 227.29492 512.27148 L 227.28906 511.11523 C 227.17493 511.09483 227.07032 511.08235 226.97656 511.07422 C 226.88281 511.06202 226.7962 511.05469 226.71875 511.05469 z M 199.40625 512.00977 C 199.96062 512.00977 200.40599 512.19173 200.74023 512.55859 C 201.07858 512.92545 201.25163 513.4177 201.25977 514.0332 L 197.24805 514.03906 C 197.30511 513.39502 197.52147 512.89564 197.89648 512.54102 C 198.27557 512.18638 198.77851 512.00977 199.40625 512.00977 z M 218.31836 512.00977 C 218.91757 512.00977 219.39163 512.24769 219.74219 512.72461 C 220.09274 513.19745 220.26953 513.83922 220.26953 514.65039 C 220.26953 515.46563 220.09274 516.10918 219.74219 516.58203 C 219.39163 517.05487 218.91757 517.29102 218.31836 517.29102 C 217.71101 517.29102 217.23141 517.05666 216.88086 516.58789 C 216.53438 516.11505 216.36133 515.46971 216.36133 514.65039 C 216.36133 513.83107 216.53617 513.18752 216.88672 512.71875 C 217.23727 512.24591 217.71508 512.00977 218.31836 512.00977 z M 177.14453 514.625 L 178.26367 514.625 L 178.26367 514.87695 C 178.26367 515.61067 178.07441 516.19827 177.69531 516.64258 C 177.32031 517.08281 176.82093 517.30469 176.19727 517.30469 C 175.74481 517.30469 175.38605 517.18742 175.12109 516.95508 C 174.86022 516.71866 174.72852 516.40143 174.72852 516.00195 C 174.72852 515.50058 174.90531 515.14539 175.25586 514.9375 C 175.60641 514.72961 176.23553 514.625 177.14453 514.625 z "
     style="fill:#404040;stroke-width:0.3130534"
     id="path1302"
     d="m 210.73633,509.27539 v 1.94531 h -0.82422 v 0.87305 h 0.82422 v 3.71875 c 0,0.85601 0.16592,1.44734 0.49609,1.77344 0.33018,0.32202 0.92864,0.48242 1.79688,0.48242 h 1.15625 v -0.94141 h -1.15625 c -0.46876,0 -0.78065,-0.0793 -0.93555,-0.23828 -0.15082,-0.15897 -0.22656,-0.51773 -0.22656,-1.07617 v -3.71875 h 2.31836 v -0.87305 h -2.31836 v -1.94531 z m -34.30078,1.7793 c -0.36686,0 -0.74362,0.0415 -1.13086,0.12304 -0.38724,0.0775 -0.78753,0.19455 -1.19922,0.35352 v 1.04102 c 0.3424,-0.18751 0.69938,-0.32813 1.07031,-0.42188 0.37094,-0.0937 0.75127,-0.14062 1.14258,-0.14062 0.61551,0 1.09331,0.1424 1.43164,0.42773 0.34241,0.28126 0.51367,0.67959 0.51367,1.19727 v 0.11132 h -1.57812 c -1.02313,0 -1.79287,0.19463 -2.31055,0.58594 -0.51361,0.39132 -0.77148,0.97178 -0.77148,1.74219 0,0.66035 0.20744,1.18859 0.61914,1.58398 0.41577,0.39132 0.97272,0.58789 1.67382,0.58789 0.55437,0 1.02309,-0.0993 1.40625,-0.29492 0.38316,-0.19973 0.70414,-0.5061 0.96094,-0.92187 v 1.03906 h 1.125 v -3.9082 c 0,-1.04351 -0.24523,-1.82038 -0.73437,-2.33399 -0.48915,-0.5136 -1.22823,-0.77148 -2.21875,-0.77148 z m 8.57226,0 c -0.47692,0 -0.89876,0.10283 -1.26562,0.30664 -0.36278,0.20381 -0.67823,0.51017 -0.94727,0.92187 v -1.0625 h -1.13281 v 6.84766 h 1.13281 v -3.87109 c 0,-0.6685 0.17484,-1.19675 0.52539,-1.58399 0.35056,-0.38724 0.83014,-0.58008 1.4375,-0.58008 0.50546,0 0.884,0.1604 1.13672,0.48242 0.25273,0.32202 0.37891,0.80696 0.37891,1.45508 v 4.09766 h 1.125 v -4.13281 c 0,-0.94568 -0.20192,-1.66142 -0.60547,-2.14649 -0.40355,-0.48914 -0.99845,-0.73437 -1.78516,-0.73437 z m 7.58789,0 c -1.06796,0 -1.90988,0.32097 -2.52539,0.96093 -0.61143,0.63996 -0.91797,1.51788 -0.91797,2.63477 0,1.10058 0.30476,1.97493 0.91211,2.62305 0.60736,0.64812 1.42575,0.97265 2.45703,0.97265 0.37909,0 0.73606,-0.038 1.07032,-0.11132 0.33832,-0.0734 0.66465,-0.18334 0.97851,-0.33008 v -1.03907 c -0.31794,0.17528 -0.63696,0.30876 -0.95898,0.39844 -0.31795,0.0856 -0.64071,0.12696 -0.9668,0.12696 -0.72965,0 -1.29567,-0.22884 -1.69922,-0.68946 -0.40354,-0.46468 -0.60547,-1.11554 -0.60547,-1.95117 0,-0.83563 0.20193,-1.4847 0.60547,-1.94531 0.40355,-0.46469 0.96957,-0.69531 1.69922,-0.69531 0.32609,0 0.64885,0.0431 0.9668,0.13281 0.32202,0.0856 0.64104,0.2173 0.95898,0.39258 v -1.05274 c -0.30979,-0.14266 -0.62881,-0.2471 -0.95898,-0.3164 -0.33018,-0.0734 -0.66915,-0.11133 -1.01563,-0.11133 z m 6.79883,0 c -1.02721,0 -1.84382,0.32989 -2.45117,0.99023 -0.60328,0.65627 -0.90625,1.54506 -0.90625,2.66602 0,1.08427 0.31919,1.94418 0.95508,2.58008 0.63996,0.63588 1.50523,0.95507 2.59765,0.95507 0.43616,0 0.86709,-0.0451 1.29102,-0.13476 0.42393,-0.0897 0.83669,-0.22138 1.24023,-0.39258 v -1.0625 c -0.39946,0.21196 -0.80331,0.37058 -1.21093,0.47656 -0.40354,0.10599 -0.81988,0.15821 -1.25196,0.15821 -0.74594,0 -1.33014,-0.20193 -1.75,-0.60547 -0.41575,-0.40762 -0.64833,-0.99701 -0.69726,-1.77149 h 5.17383 v -0.55078 c 0,-1.01906 -0.26858,-1.82497 -0.80665,-2.41601 -0.53397,-0.59513 -1.26236,-0.89258 -2.18359,-0.89258 z m 7.01367,0 c -0.8397,0 -1.48878,0.17483 -1.94531,0.52539 -0.45654,0.35055 -0.68359,0.84815 -0.68359,1.49219 0,0.52991 0.15505,0.94819 0.46484,1.2539 0.30979,0.30164 0.81273,0.52513 1.50977,0.67188 l 0.39062,0.0918 c 0.69703,0.15082 1.14775,0.30766 1.35156,0.47071 0.20789,0.16305 0.3125,0.39741 0.3125,0.70312 0,0.33018 -0.1424,0.58805 -0.42773,0.77149 -0.28533,0.17935 -0.6947,0.26953 -1.22461,0.26953 -0.39539,0 -0.79373,-0.0542 -1.19727,-0.16016 -0.40354,-0.11005 -0.81274,-0.27224 -1.22851,-0.48828 v 1.16211 c 0.44023,0.14267 0.85656,0.24711 1.25195,0.31641 0.39948,0.0734 0.78353,0.11132 1.15039,0.11132 0.88046,0 1.57089,-0.1857 2.07227,-0.55664 0.50545,-0.37094 0.75781,-0.87388 0.75781,-1.50976 0,-0.55844 -0.16949,-0.99294 -0.50781,-1.30274 -0.33426,-0.31386 -0.90029,-0.55731 -1.69922,-0.72851 l -0.38477,-0.0859 c -0.60328,-0.13451 -1.00534,-0.27514 -1.20507,-0.42188 -0.19974,-0.15081 -0.29883,-0.3563 -0.29883,-0.61718 0,-0.3424 0.13883,-0.59833 0.41601,-0.76953 0.28126,-0.1712 0.70132,-0.25782 1.25977,-0.25782 0.36685,0 0.72009,0.0415 1.0625,0.12305 0.3424,0.0815 0.67229,0.20414 0.99023,0.36719 v -1.06445 c -0.30979,-0.1223 -0.64681,-0.21426 -1.01367,-0.2754 -0.36686,-0.0611 -0.75805,-0.0918 -1.17383,-0.0918 z m 11.91016,0 c -0.98237,0 -1.75211,0.31919 -2.31055,0.95508 -0.55436,0.63589 -0.83203,1.51559 -0.83203,2.64062 0,1.12096 0.27767,2.00066 0.83203,2.64063 0.55844,0.63588 1.32818,0.95507 2.31055,0.95507 0.97829,0 1.74625,-0.31919 2.30469,-0.95507 0.55844,-0.63997 0.83789,-1.51967 0.83789,-2.64063 0,-1.12503 -0.27945,-2.00473 -0.83789,-2.64062 -0.55844,-0.63589 -1.3264,-0.95508 -2.30469,-0.95508 z m 8.40039,0 c -0.54214,0 -1.00177,0.10283 -1.38086,0.30664 -0.37909,0.19973 -0.68741,0.50609 -0.92383,0.92187 v -1.0625 h -1.13086 v 6.84766 h 1.13086 v -3.60742 c 0,-0.77449 0.16949,-1.36761 0.50782,-1.7793 0.3424,-0.41577 0.83091,-0.62305 1.46679,-0.62305 0.17936,0 0.34349,0.018 0.49024,0.0547 0.15082,0.0326 0.28965,0.0848 0.41601,0.1582 l -0.006,-1.15625 c -0.11413,-0.0204 -0.21874,-0.0329 -0.3125,-0.041 -0.0937,-0.0122 -0.18036,-0.0195 -0.25781,-0.0195 z m -27.3125,0.95508 c 0.55437,0 0.99974,0.18196 1.33398,0.54882 0.33835,0.36686 0.5114,0.85911 0.51954,1.47461 l -4.01172,0.006 c 0.0571,-0.64404 0.27342,-1.14342 0.64843,-1.49804 0.37909,-0.35464 0.88203,-0.53125 1.50977,-0.53125 z m 18.91211,0 c 0.59921,0 1.07327,0.23792 1.42383,0.71484 0.35055,0.47284 0.52734,1.11461 0.52734,1.92578 0,0.81524 -0.17679,1.45879 -0.52734,1.93164 -0.35056,0.47284 -0.82462,0.70899 -1.42383,0.70899 -0.60735,0 -1.08695,-0.23436 -1.4375,-0.70313 -0.34648,-0.47284 -0.51953,-1.11818 -0.51953,-1.9375 0,-0.81932 0.17484,-1.46287 0.52539,-1.93164 0.35055,-0.47284 0.82836,-0.70898 1.43164,-0.70898 z m -41.17383,2.61523 h 1.11914 v 0.25195 c 0,0.73372 -0.18926,1.32132 -0.56836,1.76563 -0.375,0.44023 -0.87438,0.66211 -1.49804,0.66211 -0.45246,0 -0.81122,-0.11727 -1.07618,-0.34961 -0.26087,-0.23642 -0.39257,-0.55365 -0.39257,-0.95313 0,-0.50137 0.17679,-0.85656 0.52734,-1.06445 0.35055,-0.20789 0.97967,-0.3125 1.88867,-0.3125 z" /></g></svg>